<svg xmlns="http://www.w3.org/2000/svg" viewBox="0 0 800 550" xmlns:xlink="http://www.w3.org/1999/xlink">
 <defs>
  <clipPath id="1B">
   <path d="m0 0h105v144h-105z"/>
   </clipPath>
  <clipPath id="1A">
   <path d="m135.58 0h403.84v548h-403.84z"/>
   </clipPath>
  <linearGradient id="m" gradientUnits="userSpaceOnUse" x1="350.79" x2="398.44" xlink:href="#5"/>
  <linearGradient id="l" gradientUnits="userSpaceOnUse" x1="336.73" x2="342.71" xlink:href="#5"/>
  <linearGradient id="n" gradientUnits="userSpaceOnUse" x1="370.01" x2="493.74" xlink:href="#5"/>
  <linearGradient id="o" gradientUnits="userSpaceOnUse" x1="190.3" x2="329.42" xlink:href="#5"/>
  <linearGradient id="k" gradientUnits="userSpaceOnUse" x1="315.05" x2="341.42" xlink:href="#5"/>
  <linearGradient id="r" gradientUnits="userSpaceOnUse" x1="259.12" x2="266.18" xlink:href="#5"/>
  <linearGradient id="p" gradientUnits="userSpaceOnUse" x1="260.45" x2="297.12" xlink:href="#5"/>
  <linearGradient id="q" gradientUnits="userSpaceOnUse" x1="232.99" x2="275.63" xlink:href="#5"/>
  <linearGradient id="j" gradientUnits="userSpaceOnUse" x1="344.12" x2="358.38" xlink:href="#5"/>
  <linearGradient id="c" gradientUnits="userSpaceOnUse" x1="375.5" x2="379.06" xlink:href="#5"/>
  <linearGradient id="d" gradientUnits="userSpaceOnUse" x1="297.12" x2="315.73" xlink:href="#5"/>
  <linearGradient id="s" gradientUnits="userSpaceOnUse" x1="266.79" x2="297.12" xlink:href="#5"/>
  <linearGradient id="e" gradientUnits="userSpaceOnUse" x1="350.14" x2="419.92" xlink:href="#5"/>
  <linearGradient id="f" gradientUnits="userSpaceOnUse" x1="373.12" x2="379.01" xlink:href="#5"/>
  <linearGradient id="i" gradientUnits="userSpaceOnUse" x1="327.61" x2="333.74" xlink:href="#5"/>
  <linearGradient id="g" gradientUnits="userSpaceOnUse" x1="312.95" x2="317.23" xlink:href="#5"/>
  <linearGradient id="h" gradientUnits="userSpaceOnUse" x1="352.68" x2="363.55" xlink:href="#5"/>
  <linearGradient id="t" gradientUnits="userSpaceOnUse" x1="277.41" x2="282.3" xlink:href="#5"/>
  <linearGradient id="13" gradientUnits="userSpaceOnUse" x1="501.42" x2="528.84" xlink:href="#5"/>
  <linearGradient id="14" gradientUnits="userSpaceOnUse" x1="467.5" x2="516.48" xlink:href="#5"/>
  <linearGradient id="0" gradientUnits="userSpaceOnUse" x1="481.19" x2="490.96">
   <stop stop-color="#9fbee5"/>
   </linearGradient>
  <linearGradient id="15" gradientUnits="userSpaceOnUse" x1="2.5" x2="22.5" xlink:href="#2"/>
  <linearGradient id="16" gradientUnits="userSpaceOnUse" x1="2.5" x2="22.5">
   <stop stop-color="#e56c1b"/>
   </linearGradient>
  <linearGradient id="19" gradientUnits="userSpaceOnUse" x1="2.5" x2="22.5">
   <stop stop-color="#9dbde5"/>
   </linearGradient>
  <linearGradient id="17" gradientUnits="userSpaceOnUse" x1="2.5" x2="22.5">
   <stop stop-color="#e5d39c"/>
   </linearGradient>
  <linearGradient id="18" gradientUnits="userSpaceOnUse" x1="2.5" x2="22.5">
   <stop stop-color="#d8e5e5"/>
   </linearGradient>
  <linearGradient id="12" gradientUnits="userSpaceOnUse" x1="492.81" x2="498.75" xlink:href="#5"/>
  <linearGradient id="u" gradientUnits="userSpaceOnUse" x1="244.78" x2="275.35" xlink:href="#5"/>
  <linearGradient id="v" gradientUnits="userSpaceOnUse" x1="276.44" x2="282.66" xlink:href="#5"/>
  <linearGradient id="11" gradientUnits="userSpaceOnUse" x1="473.96" x2="494.71" xlink:href="#5"/>
  <linearGradient id="w" gradientUnits="userSpaceOnUse" x1="283.75" x2="297.12" xlink:href="#5"/>
  <linearGradient id="x" gradientUnits="userSpaceOnUse" x1="284.07" x2="297.12" xlink:href="#5"/>
  <linearGradient id="10" gradientUnits="userSpaceOnUse" x1="465.19" x2="483.81" xlink:href="#5"/>
  <linearGradient id="y" gradientUnits="userSpaceOnUse" x1="171.89" x2="241.31" xlink:href="#5"/>
  <linearGradient id="z" gradientUnits="userSpaceOnUse" x1="357.05" x2="441.08" xlink:href="#5"/>
  <linearGradient id="b" gradientUnits="userSpaceOnUse" x1="326.88" x2="347.6" xlink:href="#5"/>
  <linearGradient id="A" gradientUnits="userSpaceOnUse" x1="203.67" x2="209.6" xlink:href="#5"/>
  <linearGradient id="B" gradientUnits="userSpaceOnUse" x1="179.76" x2="280.72" xlink:href="#5"/>
  <linearGradient id="a" gradientUnits="userSpaceOnUse" x1="318.72" x2="325.3" xlink:href="#5"/>
  <linearGradient id="C" gradientUnits="userSpaceOnUse" x1="409.95" x2="415.56" xlink:href="#5"/>
  <linearGradient id="D" gradientUnits="userSpaceOnUse" x1="418.15" x2="421.62" xlink:href="#5"/>
  <linearGradient id="G" gradientUnits="userSpaceOnUse" x1="402.36" x2="410.43" xlink:href="#5"/>
  <linearGradient id="E" gradientUnits="userSpaceOnUse" x1="476.86" x2="479.69" xlink:href="#5"/>
  <linearGradient id="F" gradientUnits="userSpaceOnUse" x1="417.1" x2="420.97" xlink:href="#5"/>
  <linearGradient id="9" gradientUnits="userSpaceOnUse" x1="220.15" x2="222.04" xlink:href="#5"/>
  <linearGradient id="1" gradientUnits="userSpaceOnUse" x1="329.42" x2="382.12">
   <stop stop-color="#a1c0e5"/>
   </linearGradient>
  <linearGradient id="2" gradientUnits="userSpaceOnUse" x1="439.63" x2="482.24">
   <stop stop-color="#e51919"/>
   </linearGradient>
  <linearGradient id="8" gradientUnits="userSpaceOnUse" x1="205.97" x2="209.65" xlink:href="#5"/>
  <linearGradient id="3" gradientUnits="userSpaceOnUse" x1="480.82" x2="491.68" xlink:href="#2"/>
  <linearGradient id="4" gradientUnits="userSpaceOnUse" x1="419.88" x2="510.75" xlink:href="#2"/>
  <linearGradient id="7" gradientUnits="userSpaceOnUse" x1="222.73" x2="243.49" xlink:href="#5"/>
  <linearGradient id="5" gradientUnits="userSpaceOnUse" x1="297.12" x2="332.01">
   <stop stop-color="#fff"/>
   </linearGradient>
  <linearGradient id="6" gradientUnits="userSpaceOnUse" x1="256.73" x2="297.12" xlink:href="#5"/>
  <linearGradient id="H" gradientUnits="userSpaceOnUse" x1="424.69" x2="427.64" xlink:href="#5"/>
  <linearGradient id="T" gradientUnits="userSpaceOnUse" x1="326.35" x2="351.15" xlink:href="#5"/>
  <linearGradient id="U" gradientUnits="userSpaceOnUse" x1="339.76" x2="347.03" xlink:href="#5"/>
  <linearGradient id="I" gradientUnits="userSpaceOnUse" x1="389.76" x2="417.46" xlink:href="#5"/>
  <linearGradient id="V" gradientUnits="userSpaceOnUse" x1="355.11" x2="377.08" xlink:href="#5"/>
  <linearGradient id="W" gradientUnits="userSpaceOnUse" x1="317.67" x2="322.36" xlink:href="#5"/>
  <linearGradient id="Z" gradientUnits="userSpaceOnUse" x1="319.69" x2="326.84" xlink:href="#5"/>
  <linearGradient id="X" gradientUnits="userSpaceOnUse" x1="351.27" x2="363.91" xlink:href="#5"/>
  <linearGradient id="Y" gradientUnits="userSpaceOnUse" x1="419.4" x2="422.83" xlink:href="#5"/>
  <linearGradient id="S" gradientUnits="userSpaceOnUse" x1="378.13" x2="493.9" xlink:href="#5"/>
  <linearGradient id="R" gradientUnits="userSpaceOnUse" x1="414.79" x2="433.9" xlink:href="#5"/>
  <linearGradient id="L" gradientUnits="userSpaceOnUse" x1="420.61" x2="424.49" xlink:href="#5"/>
  <linearGradient id="J" gradientUnits="userSpaceOnUse" x1="440.88" x2="444.96" xlink:href="#5"/>
  <linearGradient id="K" gradientUnits="userSpaceOnUse" x1="429.09" x2="438.34" xlink:href="#5"/>
  <linearGradient id="M" gradientUnits="userSpaceOnUse" x1="415.36" x2="419.6" xlink:href="#5"/>
  <linearGradient id="N" gradientUnits="userSpaceOnUse" x1="339.12" x2="356.8" xlink:href="#5"/>
  <linearGradient id="Q" gradientUnits="userSpaceOnUse" x1="310.85" x2="318.96" xlink:href="#5"/>
  <linearGradient id="O" gradientUnits="userSpaceOnUse" x1="253.99" x2="413.26" xlink:href="#5"/>
  <linearGradient id="P" gradientUnits="userSpaceOnUse" x1="268.36" x2="333.62" xlink:href="#5"/>
  </defs>
 <g fill-rule="evenodd">
  <path fill-opacity="0" stroke-width="1" d="m0 0h800v550h-800z"/>
  <g transform="translate(0 1)" clip-path="url(#1A)" stroke="#000" stroke-width=".25">
   <path fill="url(#0)" path="M490.957,512.143L488.736,515.002L484.375,513.546L481.185,510.85L485.91,512.318Z" d="m490.96 512.14l-2.221 2.859-4.361-1.456-3.19-2.696 4.725 1.468" dojoGfxStrokeStyle="solid"/>
   <path fill="url(#1)" path="M382.124,444.117L372.311,455.193L362.78,466.668L357.086,472.405L356.965,496.95L332.008,496.95L329.423,451.622L329.423,419.804L358.499,419.804L358.459,427.605L359.953,429.948L364.92,429.559L367.949,439.651L366.899,443.378L373.724,441.073Z" d="m382.12 444.12l-9.813 11.08-9.531 11.475-5.694 5.737-.121 24.545h-24.957l-2.585-45.33v-31.818h29.08l-.04 7.801 1.494 2.343 4.967-.389 3.03 10.09-1.05 3.727 6.825-2.305" dojoGfxStrokeStyle="solid"/>
   <path fill="url(#2)" path="M481.992,497.565L482.235,499.158L477.106,502.983L475.006,501.774L471.008,503.586L465.193,503.405L465.193,505.448L461.599,506.345L458.61,510.732L457.52,515.467L452.593,520.533L439.63,520.59L444.274,518.24L445.97,514.479L451.099,510.909L456.51,508.902L462.851,501.228L468.141,497.933L473.916,495.593L480.458,496.149Z" d="m481.99 497.56l.243 1.593-5.129 3.825-2.1-1.209-3.998 1.812-5.815-.181v2.043l-3.594.897-2.989 4.387-1.09 4.735-4.927 5.066-12.963.057 4.644-2.35 1.696-3.761 5.129-3.57 5.411-2.01 6.341-7.674 5.29-3.295 5.775-2.34 6.542.556" dojoGfxStrokeStyle="solid"/>
   <path fill="url(#3)" path="M482.356,490.984L488.817,493.173L491.684,494.974L489.827,496.457L484.536,494.478L480.821,491.486Z" d="m482.36 490.98l6.461 2.189 2.867 1.801-1.857 1.483-5.291-1.979-3.715-2.992" dojoGfxStrokeStyle="solid"/>
   <path fill="url(#4)" path="M428.807,398.276L439.428,401.845L443.83,398.976L452.391,406.811L453.037,410.433L461.033,413.428L459.337,415.489L460.872,428.544L463.537,428.388L468.02,432.117L467.939,434.422L473.189,428.935L474.319,429.87L476.621,421.976L479.408,417.858L479.287,423.334L483.608,431.885L481.144,434.957L484.092,438.07L482.437,445.444L484.698,454.98L484.456,458.158L482.437,460.048L478.439,457.736L476.096,459.489L471.977,455.902L471.816,459.35L467.737,461.44L467.495,464.203L471.21,468.435L469.191,470.46L471.291,473.472L473.068,470.931L473.391,475.462L478.115,479.338L481.508,479.99L482.437,473.072L483.931,477.833L510.745,477.833L510.018,481.03L505.294,482.26L498.953,489.158L491.846,490.041L489.584,488.843L472.906,488.969L470.16,491.799L469.15,494.85L466.243,495.222L462.406,498.362L457.641,506.046L453.239,510.497L451.059,510.791L446.576,513.605L441.084,519.331L439.913,516.798L434.945,518.355L431.836,517.318L428.484,514.13L423.557,512.845L420.488,508.19L420.205,505.028L420.205,481.225L422.75,481.808L422.144,479.338L424.325,475.462L422.386,470.729L422.386,464.272L419.882,459.35L427.232,455.548L431.674,450.036L432.28,442.116L430.099,435.796L424.042,430.725L427.273,425.082L427.151,422.376L429.615,419.319L425.657,412.683L428.161,407.489L426.586,405.791L425.94,400.11Z" d="m428.81 398.28l10.621 3.569 4.402-2.869 8.561 7.835.646 3.622 7.996 2.995-1.696 2.061 1.535 13.06 2.665-.156 4.483 3.729-.081 2.305 5.25-5.487 1.13.935 2.302-7.894 2.787-4.118-.121 5.476 4.321 8.551-2.464 3.072 2.948 3.113-1.655 7.374 2.261 9.536-.242 3.178-2.02 1.89-3.998-2.312-2.343 1.753-4.119-3.587-.161 3.448-4.079 2.09-.242 2.763 3.715 4.232-2.02 2.025 2.1 3.01 1.777-2.541.323 4.531 4.724 3.876 3.393.652.929-6.918 1.494 4.761h26.814l-.727 3.197-4.724 1.23-6.341 6.898-7.107.883-2.262-1.198-16.678.126-2.746 2.83-1.01 3.051-2.907.372-3.837 3.14-4.765 7.684-4.402 4.451-2.18.294-4.483 2.814-5.492 5.726-1.171-2.533-4.968 1.557-3.109-1.037-3.352-3.188-4.927-1.285-3.069-4.655-.283-3.162v-23.803l2.545.583-.606-2.47 2.181-3.876-1.939-4.733v-6.457l-2.504-4.922 7.35-3.802 4.442-5.512.606-7.92-2.181-6.32-6.06-5.071 3.231-5.643-.122-2.706 2.464-3.057-3.958-6.636 2.504-5.194-1.575-1.698-.646-5.681" dojoGfxStrokeStyle="solid"/>
   <path fill="url(#5)" path="M332.008,496.95L297.116,496.95L297.116,419.804L329.423,419.804L329.423,451.622Z" d="m332.01 496.95h-34.892v-77.15h32.31v31.818" dojoGfxStrokeStyle="solid"/>
   <path fill="url(#6)" path="M297.116,496.95L280.721,496.95L278.177,493.484L277.773,488.336L271.836,482.325L270.181,479.077L263.881,475.396L261.781,470.393L257.702,468.435L256.733,465.712L256.733,419.804L297.116,419.804Z" d="m297.12 496.95h-16.395l-2.544-3.466-.404-5.148-5.937-6.01-1.655-3.248-6.3-3.681-2.1-5-4.079-1.958-.969-2.723v-45.908h40.38" dojoGfxStrokeStyle="solid"/>
   <path fill="url(#7)" path="M224.911,485.154L227.657,486.749L234.724,488.59L237.47,494.044L239.933,494.974L243.487,500.255L241.993,501.107L237.874,499.524L230.201,494.354L229.878,491.298L227.98,491.548L222.73,485.793Z" d="m224.91 485.15l2.746 1.595 7.07 1.841 2.746 5.454 2.463.93 3.554 5.281-1.494.852-4.119-1.583-7.673-5.17-.323-3.056-1.898.25-5.25-5.755" dojoGfxStrokeStyle="solid"/>
   <path fill="url(#8)" path="M209.121,469.517L209.646,474.27L205.971,470.191Z" d="m209.12 469.52l.525 4.753-3.675-4.079" dojoGfxStrokeStyle="solid"/>
   <path fill="url(#9)" path="M221.922,470.124L222.043,473.805L220.145,472.939L220.145,469.112Z" d="m221.92 470.12l.121 3.681-1.898-.866v-3.827" dojoGfxStrokeStyle="solid"/>
   <path fill="url(#A)" path="M204.234,463.308L209.605,463.377L207.465,470.124L205.405,469.449L203.669,465.233Z" d="m204.23 463.31l5.371.069-2.14 6.747-2.06-.675-1.736-4.216" dojoGfxStrokeStyle="solid"/>
   <path fill="url(#B)" path="M256.733,421.173L256.733,465.712L257.702,468.435L261.781,470.393L263.881,475.396L270.181,479.077L271.796,482.26L277.773,488.336L278.177,493.484L280.721,496.95L245.627,496.95L237.632,490.984L238.156,489.158L231.534,487.512L231.776,485.154L228.384,485.474L225.315,482.196L225.032,478.358L227.859,475.529L223.295,475.991L220.509,467.417L219.055,468.503L215.946,464.753L214.573,460.118L216.511,455.548L215.865,449.529L209.928,445.958L202.659,432.425L196.44,425.636L194.26,421.495L190.706,423.095L190.181,425.794L186.385,428.466L185.698,425.952L179.762,419.804L256.733,419.804Z" d="m256.73 421.17v44.539l.969 2.723 4.079 1.958 2.1 5 6.3 3.681 1.615 3.183 5.977 6.076.404 5.148 2.544 3.466h-35.09l-7.995-5.966.524-1.826-6.622-1.646.242-2.358-3.392.32-3.069-3.278-.283-3.838 2.827-2.829-4.564.462-2.786-8.574-1.454 1.086-3.109-3.75-1.373-4.635 1.938-4.57-.646-6.02-5.937-3.571-7.269-13.533-6.219-6.789-2.18-4.141-3.554 1.6-.525 2.699-3.796 2.672-.687-2.514-5.936-6.148h76.971" dojoGfxStrokeStyle="solid"/>
   <path fill="url(#C)" path="M412.533,469.652L415.561,472.939L409.948,471.065Z" d="m412.53 469.65l3.03 3.287-5.613-1.874" dojoGfxStrokeStyle="solid"/>
   <path fill="url(#D)" path="M421.619,445.517L420.246,451.334L418.146,451.046Z" d="m421.62 445.52l-1.373 5.817-2.1-.288" dojoGfxStrokeStyle="solid"/>
   <path fill="url(#E)" path="M479.69,406.387L479.448,408.839L476.864,406.556Z" d="m479.69 406.39l-.242 2.452-2.584-2.283" dojoGfxStrokeStyle="solid"/>
   <path fill="url(#F)" path="M420.529,399.849L420.973,403.224L418.954,406.811L417.096,403.739L418.59,399.762Z" d="m420.53 399.85l.444 3.375-2.02 3.587-1.858-3.072 1.494-3.977" dojoGfxStrokeStyle="solid"/>
   <path fill="url(#G)" path="M409.746,394.658L410.433,396.958L405.546,401.585L402.356,399.5L404.941,395.013Z" d="m409.75 394.66l.687 2.3-4.887 4.627-3.19-2.085 2.585-4.487" dojoGfxStrokeStyle="solid"/>
   <path fill="url(#H)" path="M424.688,389.996L427.636,390.448L426.586,393.59Z" d="m424.69 390l2.948.452-1.05 3.142" dojoGfxStrokeStyle="solid"/>
   <path fill="url(#I)" path="M396.097,368.197L398.681,373.944L399.771,371.232L401.831,374.04L409.787,378.903L411.685,384.232L417.459,386.993L414.229,390.357L407.969,387.724L408.737,386.259L403.891,384.417L403.608,387.45L396.218,393.322L394.885,387.997L389.756,389.452L390.402,385.984L393.31,384.232L392.341,379.752L393.916,369.474Z" d="m396.1 368.2l2.584 5.747 1.09-2.712 2.06 2.808 7.956 4.863 1.898 5.329 5.774 2.761-3.23 3.364-6.26-2.633.768-1.465-4.846-1.842-.283 3.03-7.39 5.872-1.333-5.325-5.129 1.455.646-3.468 2.908-1.752-.969-4.48 1.575-10.278" dojoGfxStrokeStyle="solid"/>
   <path fill="url(#J)" path="M441.366,344.671L444.961,347.896L440.882,347.896Z" d="m441.37 344.67l3.595 3.225h-4.079" dojoGfxStrokeStyle="solid"/>
   <path fill="url(#K)" path="M436.036,342.171L437.893,342.934L438.338,349.598L436.884,352.341L430.059,353.074L429.09,348.855L431.634,342.716Z" d="m436.04 342.17l1.857.763.445 6.664-1.454 2.743-6.825.733-.969-4.219 2.544-6.139" dojoGfxStrokeStyle="solid"/>
   <path fill="url(#L)" path="M424.486,330.08L422.83,335.639L420.609,335.302Z" d="m424.49 330.08l-1.656 5.559-2.221-.337" dojoGfxStrokeStyle="solid"/>
   <path fill="url(#M)" path="M419.6,325.097L417.379,328.469L415.359,325.799Z" d="m419.6 325.1l-2.221 3.372-2.02-2.67" dojoGfxStrokeStyle="solid"/>
   <path fill="url(#N)" path="M348.04,327.659L353.371,331.795L354.259,335.751L356.803,335.975L352.361,340.416L340.69,336.423L339.115,334.176L344.002,330.882L345.496,324.276Z" d="m348.04 327.66l5.331 4.136.888 3.956 2.544.224-4.442 4.441-11.671-3.993-1.575-2.247 4.887-3.294 1.494-6.606" dojoGfxStrokeStyle="solid"/>
   <path fill="url(#O)" path="M359.913,299.584L365.688,306.247L366.172,312.365L368.797,315.428L370.049,322.745L366.293,326.498L370.615,328.93L372.109,326.847L376.47,329.506L373.199,331.225L376.107,335.975L376.914,343.043L379.055,334.289L381.114,331.339L385.879,336.646L386.808,341.952L384.345,342.389L384.87,347.789L388.02,354.014L391.816,352.446L391.897,348.855L394.441,344.996L395.37,337.539L398.156,334.402L396.016,325.682L400.781,324.629L407.687,327.079L409.625,331.111L412.856,332.364L409.948,335.863L413.098,338.649L409.1,342.389L409.827,346.611L413.26,351.29L412.21,356.09L410.271,356.4L404.658,362.72L400.418,358.353L403.366,364.225L396.985,363.323L396.379,360.495L391.735,360.597L394.481,364.325L388.464,372.785L386.243,372.785L379.135,366.715L371.826,366.715L377.52,368L381.76,372.785L389.797,373.654L390.12,375.384L386.041,383.583L383.012,385.616L377.359,384.139L377.197,388.453L374.209,389.271L368.191,387.358L374.693,391.169L375.299,393.768L372.068,396.253L367.99,396.253L367.384,400.458L364.072,402.88L364.759,404.938L361.811,407.742L358.459,419.804L329.423,419.804L329.423,383.212L301.276,378.052L294.411,371.135L287.021,371.135L253.987,345.535L253.987,328.122L262.104,331.909L264.648,334.289L273.007,336.646L274.542,334.74L278.863,337.65L280.802,342.934L275.955,343.479L276.44,347.682L284.84,349.068L292.997,348.002L297.238,345.858L298.974,348.855L302.326,349.492L305.234,353.179L306.364,358.66L308.343,354.742L305.153,348.642L305.88,345.427L314.279,340.966L313.754,338.539L308.666,342.607L303.78,344.021L301.882,342.607L304.062,338.76L312.462,335.19L315.41,337.65L315.128,341.076L319.408,345.212L323.123,344.888L328.171,348.536L334.592,347.147L347.919,349.705L346.829,345.32L345.294,347.361L342.669,341.514L347.879,339.976L350.907,344.563L354.017,342.607L351.917,350.446L353.209,353.806L355.511,352.341L355.875,344.779L360.882,342.607L363.467,336.311L359.146,337.204L361.407,333.045L359.186,326.614L358.176,328.007L353.29,324.746L351.392,319.173L352.886,315.549L351.15,312.98L351.836,307.131L355.026,307.257L356.763,298.803Z" d="m359.91 299.58l5.775 6.663.484 6.118 2.625 3.063 1.252 7.317-3.756 3.753 4.322 2.432 1.494-2.083 4.361 2.659-3.271 1.719 2.908 4.75.807 7.07 2.141-8.754 2.059-2.95 4.765 5.307.929 5.306-2.463.437.525 5.4 3.15 6.225 3.796-1.568.081-3.591 2.544-3.859.929-7.457 2.786-3.137-2.14-8.72 4.765-1.053 6.906 2.45 1.938 4.03 3.231 1.253-2.908 3.499 3.15 2.786-3.998 3.74.727 4.222 3.433 4.679-1.05 4.8-1.939.31-5.613 6.32-4.24-4.367 2.948 5.872-6.381-.902-.606-2.828-4.644.102 2.746 3.728-6.02 8.46h-2.221l-7.108-6.07h-7.309l5.694 1.285 4.24 4.785 8.04.869.323 1.73-4.079 8.199-3.03 2.033-5.653-1.477-.162 4.314-2.988.818-6.02-1.913 6.502 3.811.606 2.599-3.231 2.485h-4.078l-.606 4.205-3.312 2.422.687 2.058-2.948 2.804-3.352 12.06h-29.04v-36.592l-28.15-5.16-6.865-6.917h-7.39l-33.03-25.6v-17.413l8.117 3.787 2.544 2.38 8.359 2.357 1.535-1.906 4.321 2.91 1.939 5.284-4.847.545.485 4.203 8.4 1.386 8.157-1.066 4.241-2.144 1.736 2.997 3.352.637 2.908 3.687 1.13 5.481 1.979-3.918-3.19-6.1.727-3.215 8.399-4.461-.525-2.427-5.088 4.068-4.886 1.414-1.898-1.414 2.18-3.847 8.4-3.57 2.948 2.46-.282 3.426 4.28 4.136 3.715-.324 5.05 3.648 6.421-1.389 13.327 2.558-1.09-4.385-1.535 2.041-2.625-5.847 5.21-1.538 3.03 4.587 3.11-1.956-2.1 7.839 1.292 3.36 2.302-1.465.364-7.562 5.01-2.172 2.585-6.296-4.321.893 2.261-4.159-2.221-6.431-1.01 1.393-4.886-3.261-1.898-5.573 1.494-3.624-1.736-2.569.686-5.849 3.19.126 1.737-8.454" dojoGfxStrokeStyle="solid"/>
   <path fill="url(#P)" path="M305.153,279.834L309.757,280.256L314.845,285.407L320.216,306.5L318.722,309.388L321.266,313.594L329.746,319.892L333.542,321.085L333.623,326.963L329.221,324.629L325.223,328.584L325.304,332.023L329.666,329.736L330.191,334.402L323.689,336.981L311.574,332.364L311.21,328.93L307.333,334.627L303.012,335.077L301.357,337.427L293.159,339.534L284.84,340.196L282.336,336.758L282.215,332.364L270.746,329.851L268.363,322.981L297.116,322.981L297.116,284.855L302.649,290.585L305.234,302.938L308.222,300.621L303.982,282.915Z" d="m305.15 279.83l4.604.422 5.088 5.151 5.371 21.09-1.494 2.888 2.544 4.206 8.48 6.298 3.796 1.193.081 5.878-4.402-2.334-3.998 3.955.081 3.439 4.362-2.287.525 4.666-6.502 2.579-12.12-4.617-.364-3.434-3.877 5.697-4.321.45-1.655 2.35-8.198 2.107-8.319.662-2.504-3.438-.121-4.394-11.469-2.513-2.383-6.87h28.753v-38.13l5.533 5.73 2.585 12.353 2.988-2.317-4.24-17.706" dojoGfxStrokeStyle="solid"/>
   <path fill="url(#Q)" path="M318.964,280.397L315.976,285.82L311.453,279.128L310.847,274.706L316.904,274.129Z" d="m318.96 280.4l-2.988 5.423-4.523-6.692-.606-4.422 6.06-.577" dojoGfxStrokeStyle="solid"/>
   <path fill="url(#R)" path="M416.934,273.985L425.9,275.281L429.534,277.568L433.896,286.78L425.657,286.095L421.579,288.146L418.267,286.506L415.158,280.819L414.794,274.129Z" d="m416.93 273.99l8.966 1.296 3.634 2.287 4.362 9.212-8.239-.685-4.078 2.051-3.312-1.64-3.109-5.687-.364-6.69" dojoGfxStrokeStyle="solid"/>
   <path fill="url(#S)" path="M391.775,272.537L398.277,275.281L393.916,280.538L391.21,287.191L392.947,291.929L392.381,298.02L398.641,307.383L399.529,302.297L397.025,302.425L394.077,297.758L397.631,294.729L395.854,291.795L396.298,282.915L398.721,279.27L406.839,274.274L412.088,274.562L413.461,281.099L415.683,282.358L417.217,288.282L414.35,295.523L415.965,296.971L418.792,292.465L426.263,294.464L424.123,292.331L427.959,288.01L437.651,291.527L438.217,296.446L441.528,297.103L446.334,307.508L448.353,302.425L454.128,307.508L450.17,310.011L449.282,313.84L456.147,310.011L454.653,315.428L459.014,312.365L465.274,316.036L462.972,323.453L466.525,319.053L470.281,326.149L466.687,325.565L466.687,329.276L469.837,329.276L472.098,332.478L464.587,332.137L467.777,334.063L465.112,338.982L472.139,340.746L469.716,341.624L475.491,345.858L479.973,345.643L483.204,352.97L486.919,353.074L485.506,357.224L490.957,355.676L493.905,360.19L493.017,362.518L488.777,363.925L491.159,366.02L488.575,369.572L484.496,370.843L485.667,373.944L480.619,375.097L476.783,368.59L472.866,364.225L471.735,360.19L470.241,363.021L467.252,361.61L470.079,366.913L465.879,368.197L469.675,369.67L472.179,376.245L476.5,378.241L475.975,380.786L480.256,385.524L480.256,392.248L478.439,389.452L479.731,395.634L477.873,396.341L472.058,394.124L467.979,388.726L467.818,391.079L462.729,387.541L466.122,392.964L469.07,394.569L475.087,401.412L473.714,404.34L469.393,401.931L464.506,400.979L460.104,396.253L457.681,396.606L451.745,392.785L453.482,389.271L448.918,386.901L444.961,382.747L444.718,379.564L439.347,381.815L435.269,379.564L431.634,383.583L425.657,380.034L428.605,371.524L435.349,373.847L440.276,372.785L443.911,368.984L441.084,363.925L446.737,358.865L449.08,352.656L446.576,343.696L441.003,339.645L438.257,334.402L431.917,338.095L431.836,334.289L435.672,331.225L427.636,325.097L427.192,320.011L422.427,319.053L423.113,324.394L411.16,321.441L409.665,325.448L403.85,323.571L392.947,321.679L391.654,318.693L386.566,320.131L382.851,317.247L380.105,311.994L381.316,310.508L388.545,311.5L385.678,308.262L378.651,306.753L378.126,293.533L380.67,284.026L384.305,277.284Z" d="m391.77 272.54l6.502 2.744-4.361 5.257-2.706 6.653 1.737 4.738-.566 6.091 6.26 9.363.888-5.086-2.504.128-2.948-4.667 3.554-3.03-1.777-2.934.444-8.88 2.423-3.645 8.118-4.996 5.249.288 1.373 6.537 2.222 1.259 1.534 5.924-2.867 7.241 1.615 1.448 2.827-4.506 7.471 1.999-2.14-2.133 3.836-4.321 9.692 3.517.566 4.919 3.311.657 4.806 10.405 2.02-5.083 5.775 5.083-3.958 2.503-.888 3.829 6.865-3.829-1.494 5.417 4.361-3.063 6.26 3.671-2.302 7.417 3.553-4.4 3.756 7.096-3.594-.584v3.711h3.15l2.261 3.202-7.511-.341 3.19 1.926-2.665 4.919 7.03 1.764-2.423.878 5.775 4.234 4.482-.215 3.231 7.327 3.715.104-1.413 4.15 5.451-1.548 2.948 4.514-.888 2.328-4.24 1.407 2.382 2.095-2.584 3.552-4.079 1.271 1.171 3.101-5.05 1.153-3.836-6.507-3.917-4.365-1.131-4.04-1.494 2.831-2.989-1.411 2.827 5.303-4.2 1.284 3.796 1.473 2.504 6.575 4.321 1.996-.525 2.545 4.281 4.738v6.724l-1.817-2.796 1.292 6.182-1.858.707-5.815-2.217-4.079-5.398-.161 2.353-5.089-3.538 3.393 5.423 2.948 1.605 6.02 6.843-1.373 2.928-4.321-2.409-4.887-.952-4.402-4.726-2.423.353-5.936-3.821 1.737-3.514-4.564-2.37-3.957-4.154-.243-3.183-5.371 2.251-4.078-2.251-3.635 4.02-5.977-3.549 2.948-8.51 6.744 2.323 4.927-1.062 3.635-3.801-2.827-5.059 5.653-5.06 2.343-6.209-2.504-8.96-5.573-4.051-2.746-5.243-6.34 3.693-.081-3.806 3.836-3.064-8.04-6.128-.444-5.086-4.765-.958.686 5.341-11.953-2.953-1.495 4.01-5.815-1.877-10.903-1.892-1.293-2.986-5.088 1.438-3.715-2.884-2.746-5.253 1.211-1.486 7.229.992-2.867-3.238-7.03-1.509-.525-13.22 2.544-9.507 3.635-6.742" dojoGfxStrokeStyle="solid"/>
   <path fill="url(#T)" path="M338.187,271.955L340.65,274.274L348.848,272.682L349.009,279.128L344.163,284.164L348.565,285.269L350.988,288.69L351.15,300.621L343.396,307.257L334.915,295.655L331.564,294.994L326.354,287.328L329.625,283.471L332.129,288.554L337.298,285.269L331.2,278.42L333.906,272.972Z" d="m338.19 271.95l2.463 2.319 8.198-1.592.161 6.446-4.846 5.04 4.402 1.105 2.423 3.421.162 11.931-7.754 6.636-8.481-11.602-3.351-.661-5.21-7.666 3.271-3.857 2.504 5.083 5.169-3.285-6.098-6.849 2.706-5.448" dojoGfxStrokeStyle="solid"/>
   <path fill="url(#U)" path="M347.031,269.466L345.092,272.246L339.761,271.809Z" d="m347.03 269.47l-1.939 2.78-5.331-.437" dojoGfxStrokeStyle="solid"/>
   <path fill="url(#V)" path="M366.778,269.172L377.076,271.955L370.493,286.643L368.272,288.69L361.084,287.873L363.911,292.063L361.205,297.889L357.086,298.542L357.126,292.063L355.309,288.826L355.107,274.274L358.742,269.025Z" d="m366.78 269.17l10.298 2.783-6.583 14.688-2.221 2.047-7.188-.817 2.827 4.19-2.706 5.826-4.119.653.04-6.479-1.817-3.237-.202-14.552 3.635-5.249" dojoGfxStrokeStyle="solid"/>
   <path fill="url(#W)" path="M322.356,250.809L320.418,255.065L317.672,253.498L320.822,248.412Z" d="m322.36 250.81l-1.938 4.256-2.746-1.567 3.15-5.086" dojoGfxStrokeStyle="solid"/>
   <path fill="url(#X)" path="M360.155,245.828L363.749,251.127L363.911,259.707L358.823,261.082L351.271,255.689L355.309,246.638Z" d="m360.15 245.83l3.594 5.299.162 8.58-5.088 1.375-7.552-5.393 4.04-9.05" dojoGfxStrokeStyle="solid"/>
   <path fill="url(#Y)" path="M422.265,237.062L422.83,241.568L419.398,241.568Z" d="m422.26 237.06l.565 4.506h-3.432" dojoGfxStrokeStyle="solid"/>
   <path fill="url(#Z)" path="M326.839,234.692L326.031,237.903L319.691,237.735L320.539,235.372Z" d="m326.84 234.69l-.808 3.211-6.34-.168.848-2.363" dojoGfxStrokeStyle="solid"/>
   <path fill="url(#a)" path="M321.589,228.661L325.304,231.61L319.812,233.84L318.722,229.01Z" d="m321.59 228.66l3.715 2.949-5.492 2.23-1.09-4.83" dojoGfxStrokeStyle="solid"/>
   <path fill="url(#b)" path="M343.921,227.787L346.909,230.919L347.596,236.894L345.415,254.909L336.167,255.221L334.592,248.412L339.277,244.198L326.879,247.446L327.162,243.707L331.887,235.032L338.025,240.74L333.502,230.573L336.41,228.137L340.973,231.437Z" d="m343.92 227.79l2.988 3.132.687 5.975-2.181 18.01-9.248.312-1.575-6.809 4.685-4.214-12.398 3.248.283-3.739 4.725-8.675 6.138 5.708-4.523-10.167 2.908-2.436 4.563 3.3" dojoGfxStrokeStyle="solid"/>
   <path fill="url(#c)" path="M379.055,230.4L375.501,226.734L377.964,224.791Z" d="m379.06 230.4l-3.554-3.666 2.463-1.943" dojoGfxStrokeStyle="solid"/>
   <path fill="url(#d)" path="M302.487,225.145L303.174,238.574L308.908,240.906L314.239,239.409L315.733,245.014L313.229,254.44L303.497,256.623L301.882,254.283L297.116,257.707L297.116,246.8L301.559,247.446L301.72,244.198L297.197,240.574L299.903,237.567L297.116,230.919Z" d="m302.49 225.15l.687 13.429 5.734 2.332 5.331-1.497 1.494 5.605-2.504 9.426-9.732 2.183-1.615-2.34-4.766 3.424v-10.907l4.443.646.161-3.248-4.523-3.624 2.706-3.01-2.787-6.648" dojoGfxStrokeStyle="solid"/>
   <path fill="url(#e)" path="M356.723,221.756L362.053,223.01L367.02,229.01L372.068,227.437L380.71,234.181L380.387,236.219L372.755,235.711L377.116,238.071L385.233,247.607L388.504,245.503L392.422,248.572L403.164,242.063L413.785,242.887L419.681,247.929L419.923,255.065L417.621,261.235L411.038,263.659L406.354,262.146L390.362,263.659L383.86,263.055L384.668,258.632L378.085,262.601L369.726,258.786L367.788,251.762L369.403,242.393L364.92,232.813L356.117,235.202L350.14,223.367Z" d="m356.72 221.76l5.33 1.254 4.967 6 5.05-1.573 8.642 6.744-.323 2.038-7.632-.508 4.361 2.36 8.117 9.536 3.271-2.104 3.918 3.069 10.742-6.509 10.621.824 5.896 5.04.242 7.136-2.302 6.17-6.583 2.424-4.684-1.513-15.992 1.513-6.502-.604.808-4.423-6.583 3.969-8.359-3.815-1.938-7.02 1.615-9.369-4.483-9.58-8.803 2.389-5.977-11.835" dojoGfxStrokeStyle="solid"/>
   <path fill="url(#f)" path="M376.672,210.347L379.014,213.53L377.52,218.318L373.118,214.829L373.159,210.536Z" d="m376.67 210.35l2.342 3.183-1.494 4.788-4.402-3.489.041-4.293" dojoGfxStrokeStyle="solid"/>
   <path fill="url(#g)" path="M317.227,214.459L316.42,219.046L312.947,208.265Z" d="m317.23 214.46l-.807 4.587-3.473-10.781" dojoGfxStrokeStyle="solid"/>
   <path fill="url(#h)" path="M356.076,207.503L362.417,208.265L363.547,213.902L353.694,213.158L352.684,208.834Z" d="m356.08 207.5l6.341.762 1.13 5.637-9.853-.744-1.01-4.324" dojoGfxStrokeStyle="solid"/>
   <path fill="url(#i)" path="M333.744,208.265L327.606,208.455L330.635,205.009Z" d="m333.74 208.26l-6.138.19 3.03-3.446" dojoGfxStrokeStyle="solid"/>
   <path fill="url(#j)" path="M350.059,189.264L358.378,196.17L358.136,201.121L350.382,207.121L346.506,202.489L350.14,200.533L344.123,194.361L344.971,186.778Z" d="m350.06 189.26l8.319 6.906-.242 4.951-7.754 6-3.876-4.632 3.634-1.956-6.02-6.172.848-7.583" dojoGfxStrokeStyle="solid"/>
   <path fill="url(#k)" path="M322.72,175.691L327.687,182.787L330.837,181.3L339.398,191.725L338.469,195.167L341.417,205.587L335.037,205.971L333.098,199.153L326.435,195.769L321.549,198.559L318.035,191.725L323.204,193.351L321.024,183.211L315.047,182.363L315.451,175.909Z" d="m322.72 175.69l4.967 7.096 3.15-1.487 8.561 10.425-.929 3.442 2.948 10.42-6.38.384-1.939-6.818-6.663-3.384-4.886 2.79-3.514-6.834 5.169 1.626-2.18-10.14-5.977-.848.404-6.454" dojoGfxStrokeStyle="solid"/>
   <path fill="url(#l)" path="M339.721,158.25L342.709,161.519L342.265,168.374L336.733,160.124Z" d="m339.72 158.25l2.988 3.269-.444 6.855-5.532-8.25" dojoGfxStrokeStyle="solid"/>
   <path fill="url(#m)" path="M366.697,127.922L370.493,132.165L375.137,147.424L380.63,147.916L381.76,156.362L383.981,150.36L387.172,151.088L389.716,167.245L388.141,171.284L395.814,170.392L398.439,177.214L392.018,181.513L387.374,190.498L385.072,184.055L385.031,194.16L381.72,199.745L369.807,199.153L360.64,183.633L364.032,179.588L369.443,178.512L373.199,174.378L367.343,173.277L360.882,177.214L356.723,176.78L350.786,157.308L357.005,160.124L351.392,154.219L355.753,151.573L353.532,146.931L359.63,146.437L355.673,141.186L358.257,134.778L365.042,133.736L360.963,126.58Z" d="m366.7 127.92l3.796 4.243 4.644 15.259 5.493.492 1.13 8.446 2.221-6 3.191.728 2.544 16.16-1.575 4.04 7.673-.892 2.625 6.822-6.421 4.299-4.644 8.985-2.302-6.443-.041 10.1-3.311 5.585-11.913-.592-9.167-15.52 3.392-4.045 5.411-1.076 3.756-4.134-5.856-1.101-6.461 3.937-4.159-.434-5.937-19.472 6.219 2.816-5.613-5.905 4.361-2.646-2.221-4.642 6.098-.494-3.957-5.251 2.584-6.408 6.785-1.042-4.079-7.156" dojoGfxStrokeStyle="solid"/>
   <path fill="url(#n)" path="M459.903,73.984L460.185,78.325L473.35,81.611L464.224,89.943L472.098,87.411L480.054,80.958L487.444,93.381L492.694,94.31L493.744,103.103L481.387,116.966L470.483,120.03L472.179,123.055L460.751,131.639L475.854,123.328L480.983,124.145L465.597,142.447L450.049,168.149L445.001,165.884L446.011,170.838L438.338,175.035L428.888,177.431L440.599,178.08L440.599,182.151L434.057,178.728L431.473,182.151L438.782,186.153L439.267,191.521L432.401,192.336L438.015,195.769L436.117,201.121L430.14,205.009L425.617,203.85L427.394,210.912L421.78,216.672L413.825,216.672L422.265,220.134L423.436,224.968L426.667,222.474L427.273,227.962L421.134,234.181L415.561,236.556L413.381,229.706L409.06,232.47L400.458,234.011L388.383,231.437L387.131,233.498L379.176,229.532L379.741,224.436L390.281,218.318L387.253,215.568L385.799,206.738L389.231,205.202L394.158,208.834L395.047,214.088L400.216,216.488L404.658,212.412L398.964,212.412L395.41,204.237L397.833,202.099L392.866,199.351L387.899,200.729L387.939,194.563L391.574,186.986L397.066,184.686L405.304,187.194L411.563,185.316L400.983,183.844L397.995,169.498L392.22,166.566L392.018,153.5L402.962,154.935L411.685,166.111L405.304,153.26L426.263,146.437L418.429,146.19L425.577,141.186L422.75,136.074L430.988,124.145L425.577,128.189L419.842,140.68L414.713,144.949L405.667,147.67L409.585,143.2L402.8,143.701L402.719,147.916L391.008,146.437L393.593,136.59L388.868,145.694L380.347,139.409L391.21,136.074L392.866,132.427L378.57,136.074L378.247,120.307L370.009,119.476L373.805,113.576L385.96,105.765L399.085,109.269L391.089,104.881L395.37,101.909L395.006,94.927L406.273,100.108L418.186,109.848L407.323,97.684L411.886,94.001L408.858,88.997L415.844,92.137L411.886,84.851L418.671,85.494L417.621,79.974L429.817,82.263L433.855,76.332L441.69,77.994L443.184,82.263L447.747,74.657Z" d="m459.9 73.984l.282 4.341 13.165 3.286-9.126 8.332 7.874-2.532 7.956-6.453 7.39 12.423 5.25.929 1.05 8.793-12.357 13.863-10.904 3.064 1.696 3.03-11.428 8.584 15.1-8.311 5.129.817-15.386 18.302-15.548 25.702-5.05-2.265 1.01 4.954-7.673 4.197-9.45 2.396 11.711.649v4.071l-6.542-3.423-2.584 3.423 7.309 4 .485 5.368-6.866.815 5.614 3.433-1.898 5.352-5.977 3.888-4.523-1.159 1.777 7.06-5.614 5.76h-7.955l8.44 3.462 1.171 4.834 3.231-2.494.606 5.488-6.139 6.219-5.573 2.375-2.18-6.85-4.321 2.764-8.602 1.541-12.08-2.574-1.252 2.061-7.955-3.966.565-5.096 10.54-6.118-3.03-2.75-1.454-8.83 3.432-1.536 4.927 3.632.889 5.254 5.169 2.4 4.442-4.076h-5.694l-3.554-8.175 2.423-2.138-4.967-2.748-4.967 1.378.04-6.166 3.635-7.577 5.492-2.3 8.238 2.508 6.259-1.878-10.58-1.472-2.988-14.346-5.775-2.932-.202-13.07 10.944 1.435 8.723 11.176-6.381-12.851 20.959-6.823-7.834-.247 7.148-5-2.827-5.112 8.238-11.929-5.411 4.04-5.735 12.491-5.129 4.269-9.05 2.721 3.918-4.47-6.785.501-.081 4.215-11.711-1.479 2.585-9.847-4.725 9.104-8.521-6.285 10.863-3.335 1.656-3.647-14.296 3.647-.323-15.767-8.238-.831 3.796-5.9 12.155-7.811 13.12 3.504-7.996-4.388 4.281-2.972-.364-6.982 11.267 5.181 11.913 9.74-10.863-12.164 4.563-3.683-3.03-5 6.986 3.14-3.958-7.286 6.785.643-1.05-5.52 12.196 2.289 4.04-5.931 7.835 1.662 1.494 4.269 4.563-7.606" dojoGfxStrokeStyle="solid"/>
   <path fill="url(#o)" path="M226.647,318.092L229.878,326.149L234.724,330.882L234.845,327.659L238.722,321.916L239.247,330.539L243.931,328.815L244.82,324.863L250.958,325.682L253.987,328.122L253.987,345.535L287.021,371.135L294.411,371.135L301.276,378.052L329.423,383.212L329.423,419.804L241.306,419.804L238.076,414.254L238.156,411.935L235.087,413.428L229.151,413.677L228.182,408.418L224.507,405.791L219.701,398.976L215.784,391.619L217.076,390.086L213.361,385.616L211.584,381.348L205.971,378.147L205.284,374.425L207.586,370.257L206.011,365.921L201.771,366.616L201.811,360.597L199.833,356.606L191.473,356.09L190.302,348.216L190.342,335.527L193.412,330.768L201.044,328.93L203.427,329.851L214.774,320.966L218.732,321.797L213.159,326.731L208.232,328.469L204.759,333.838L211.665,327.427L212.473,331.567L214.976,326.498L223.174,323.453L224.547,315.914Z" d="m226.65 318.09l3.231 8.06 4.846 4.733.121-3.223 3.877-5.743.525 8.623 4.684-1.724.889-3.952 6.138.819 3.03 2.44v17.413l33.03 25.6h7.39l6.865 6.917 28.15 5.16v36.592h-88.12l-3.23-5.55.08-2.319-3.069 1.493-5.936.249-.969-5.259-3.675-2.627-4.806-6.815-3.917-7.357 1.292-1.533-3.715-4.47-1.777-4.268-5.613-3.201-.687-3.722 2.302-4.168-1.575-4.336-4.24.695.04-6.02-1.978-3.991-8.36-.516-1.171-7.874.04-12.689 3.07-4.759 7.632-1.838 2.383.921 11.347-8.885 3.958.831-5.573 4.934-4.927 1.738-3.473 5.369 6.906-6.411.808 4.14 2.503-5.069 8.198-3.045 1.373-7.539" dojoGfxStrokeStyle="solid"/>
   <path fill="url(#p)" path="M280.155,280.397L281.771,289.639L284.921,284.441L292.19,288.554L289.767,293.932L294.37,290.45L297.116,292.063L297.116,322.981L268.363,322.981L268.969,321.441L278.903,319.173L286.657,320.608L290.938,319.772L288.232,316.884L281.003,314.329L274.582,316.036L266.627,315.793L263.235,310.632L272.482,306.121L273.613,303.961L264.163,306.121L264.487,302.554L260.569,302.938L260.448,299.194L264.325,294.065L262.427,292.732L267.354,285.82L278.621,279.411Z" d="m280.15 280.4l1.616 9.242 3.15-5.198 7.269 4.113-2.423 5.378 4.603-3.482 2.746 1.613v30.918h-28.753l.606-1.54 9.934-2.268 7.754 1.435 4.281-.836-2.706-2.888-7.229-2.555-6.421 1.707-7.955-.243-3.392-5.161 9.247-4.511 1.131-2.16-9.45 2.16.324-3.567-3.918.384-.121-3.744 3.877-5.129-1.898-1.333 4.927-6.912 11.267-6.409" dojoGfxStrokeStyle="solid"/>
   <path fill="url(#q)" path="M250.352,262.146L257.298,266.952L264.527,266.357L269.373,269.172L275.632,277.568L260.125,289.775L259.439,293.533L256.006,294.994L254.148,304.726L244.214,309.886L240.337,302.04L232.987,298.673L236.662,290.045L236.057,286.643L241.508,273.841L237.51,265.311Z" d="m250.35 262.15l6.946 4.806 7.229-.595 4.846 2.815 6.259 8.396-15.507 12.207-.686 3.758-3.433 1.461-1.858 9.732-9.934 5.16-3.877-7.846-7.35-3.367 3.675-8.628-.605-3.402 5.451-12.802-3.998-8.53" dojoGfxStrokeStyle="solid"/>
   <path fill="url(#r)" path="M266.183,237.062L265.092,243.543L262.346,247.446L259.116,245.828Z" d="m266.18 237.06l-1.091 6.481-2.746 3.903-3.23-1.618" dojoGfxStrokeStyle="solid"/>
   <path fill="url(#s)" path="M277.934,230.746L281.125,236.049L285.042,234.692L291.261,241.898L291.786,246.638L297.116,246.8L297.116,257.707L287.263,264.411L282.215,263.96L279.186,260.319L285.809,255.534L290.817,255.221L292.957,252.552L274.017,255.845L271.836,252.078L266.788,252.236L268.04,247.768L275.915,245.014L267.879,246.152L269.292,242.722L277.45,241.403L270.019,240.906L270.746,236.556Z" d="m277.93 230.75l3.191 5.303 3.917-1.357 6.219 7.206.525 4.74 5.33.162v10.907l-9.853 6.704-5.05-.451-3.03-3.641 6.623-4.785 5.01-.313 2.14-2.669-18.94 3.293-2.181-3.767-5.05.158 1.252-4.468 7.875-2.754-8.04 1.138 1.413-3.43 8.158-1.319-7.431-.497.727-4.35" dojoGfxStrokeStyle="solid"/>
   <path fill="url(#t)" path="M282.053,224.08L282.296,227.261L277.409,226.029Z" d="m282.05 224.08l.243 3.181-4.887-1.232" dojoGfxStrokeStyle="solid"/>
   <path fill="url(#u)" path="M272.361,213.344L275.35,216.304L271.877,218.318L273.331,227.261L264.567,232.298L265.86,225.853L260.448,237.735L254.956,242.393L253.179,235.88L251.564,240.574L244.779,237.735L247.122,232.298L250.473,231.782L256.45,221.576L261.458,215.383Z" d="m272.36 213.34l2.989 2.96-3.473 2.01 1.454 8.943-8.764 5.04 1.293-6.445-5.412 11.882-5.492 4.658-1.777-6.513-1.615 4.694-6.785-2.839 2.343-5.437 3.351-.516 5.977-10.206 5.01-6.193" dojoGfxStrokeStyle="solid"/>
   <path fill="url(#v)" path="M279.671,203.073L282.659,206.738L279.752,208.834L276.44,204.043Z" d="m279.67 203.07l2.988 3.665-2.907 2.096-3.312-4.791" dojoGfxStrokeStyle="solid"/>
   <path fill="url(#w)" path="M297.116,201.317L296.147,212.785L288.596,215.936L284.194,212.225L283.75,206.355L287.949,202.879Z" d="m297.12 201.32l-.969 11.468-7.551 3.151-4.402-3.711-.444-5.87 4.199-3.476" dojoGfxStrokeStyle="solid"/>
   <path fill="url(#x)" path="M295.501,188.232L297.116,196.769L284.073,195.368Z" d="m295.5 188.23l1.615 8.537-13.04-1.401" dojoGfxStrokeStyle="solid"/>
   <path fill="url(#y)" path="M172.372,327.311L179.439,328.7L181.62,331.795L190.342,335.527L190.302,348.216L191.473,356.09L199.833,356.606L201.811,360.597L201.771,366.616L206.011,365.921L207.586,370.257L205.284,374.425L205.971,378.147L211.584,381.348L213.361,385.616L217.076,390.086L215.784,391.619L219.701,398.976L224.507,405.791L228.222,408.502L229.151,413.677L235.087,413.428L238.156,411.935L238.076,414.254L241.306,419.804L179.762,419.804L179.6,416.962L176.087,418.265L171.927,417.207L171.887,327.079Z" d="m172.37 327.31l7.07 1.389 2.181 3.095 8.722 3.732-.04 12.689 1.171 7.874 8.36.516 1.978 3.991-.04 6.02 4.24-.695 1.575 4.336-2.302 4.168.687 3.722 5.613 3.201 1.777 4.268 3.715 4.47-1.292 1.533 3.917 7.357 4.806 6.815 3.715 2.711.929 5.175 5.936-.249 3.069-1.493-.08 2.319 3.23 5.55h-61.54l-.162-2.842-3.513 1.303-4.16-1.058-.04-90.13" dojoGfxStrokeStyle="solid"/>
   <path fill="url(#z)" path="M382.447,444.044L387.656,449.963L395.248,453.199L397.47,455.548L402.396,455.122L409.181,456.609L408.454,462.963L409.665,465.849L408.979,471.4L412.775,477.177L415.723,479.469L416.611,482.131L420.205,484.706L420.205,505.028L420.488,508.19L423.557,512.845L428.484,514.13L431.836,517.318L434.945,518.355L439.913,516.798L441.084,519.331L437.086,521.616L432.684,525.69L431.109,528.323L423.557,528.323L421.619,529.27L422.225,532.922L417.257,535.28L413.098,536.154L408.373,539.086L405.869,538.111L405.829,535.608L407.969,534.076L409.585,528.434L408.05,518.929L402.194,514.421L401.306,511.614L398.52,509.493L384.426,501.107L380.549,503.104L374.168,501.592L371.463,502.681L367.182,499.707L358.944,498.24L357.046,494.602L357.086,472.405L362.78,466.668L372.311,455.193Z" d="m382.45 444.04l5.209 5.919 7.592 3.236 2.222 2.349 4.926-.426 6.785 1.487-.727 6.354 1.211 2.886-.686 5.551 3.796 5.777 2.948 2.292.888 2.662 3.594 2.575v20.322l.283 3.162 3.069 4.655 4.927 1.285 3.352 3.188 3.109 1.037 4.968-1.557 1.171 2.533-3.998 2.285-4.402 4.074-1.575 2.633h-7.552l-1.938.947.606 3.652-4.968 2.358-4.159.874-4.725 2.932-2.504-.975-.04-2.503 2.14-1.532 1.616-5.642-1.535-9.505-5.856-4.508-.888-2.807-2.786-2.121-14.09-8.386-3.877 1.997-6.381-1.512-2.705 1.089-4.281-2.974-8.238-1.467-1.898-3.638.04-22.2 5.694-5.737 9.531-11.475" dojoGfxStrokeStyle="solid"/>
   <path fill="url(#10)" path="M473.794,503.044L476.298,504.969L479.65,504.128L479.004,507.239L480.619,513.546L483.81,514.13L479.731,517.087L473.068,520.133L470.483,520.133L467.495,516.509L467.495,508.487L465.516,506.762L465.193,503.405Z" d="m473.79 503.04l2.504 1.925 3.352-.841-.646 3.111 1.615 6.307 3.191.584-4.079 2.957-6.663 3.046h-2.585l-2.988-3.624v-8.02l-1.979-1.725-.323-3.357" dojoGfxStrokeStyle="solid"/>
   <path fill="url(#11)" path="M482.84,514.77L489.019,516.798L491.321,515.467L494.713,519.331L492.169,519.617L487.646,522.185L481.71,523.15L479.489,527.205L476.904,528.936L473.956,525.746L475.652,522.299L479.408,519.789L485.344,518.47L479.085,518.585Z" d="m482.84 514.77l6.179 2.028 2.302-1.331 3.392 3.864-2.544.286-4.523 2.568-5.936.965-2.221 4.055-2.585 1.731-2.948-3.19 1.696-3.447 3.756-2.51 5.936-1.319-6.259.115" dojoGfxStrokeStyle="solid"/>
   <path fill="url(#12)" path="M497.015,508.961L497.621,511.203L494.673,516.625L497.903,512.904L498.751,515.989L493.704,517.376L492.815,514.595Z" d="m497.01 508.96l.606 2.242-2.948 5.422 3.23-3.721.848 3.085-5.05 1.387-.889-2.781" dojoGfxStrokeStyle="solid"/>
   <path fill="url(#13)" path="M515.672,480.315L516.278,483.807L512.199,490.481L511.876,493.36L514.703,489.663L517.328,491.047L515.107,492.486L518.741,493.919L521.447,493.484L525.324,495.098L522.941,497.994L524.435,499.585L527.383,499.341L524.718,501.956L525.082,505.747L528.837,505.927L527.545,510.202L524.758,510.968L525.203,507.953L523.103,510.084L523.749,506.882L522.578,503.707L518.216,509.434L515.228,509.257L519.872,505.268L515.753,506.106L515.753,504.248L512.038,505.807L506.707,504.789L502.426,505.627L501.417,503.586L504.163,499.585L512.199,482.325Z" d="m515.67 480.31l.606 3.492-4.079 6.674-.323 2.879 2.827-3.697 2.625 1.384-2.221 1.439 3.634 1.433 2.706-.435 3.877 1.614-2.383 2.896 1.494 1.591 2.948-.244-2.665 2.615.364 3.791 3.755.18-1.292 4.275-2.787.766.445-3.02-2.1 2.131.646-3.202-1.171-3.175-4.362 5.727-2.988-.177 4.644-3.989-4.119.838v-1.858l-3.715 1.559-5.331-1.018-4.281.838-1.01-2.041 2.746-4 8.04-17.26" dojoGfxStrokeStyle="solid"/>
   <path fill="url(#14)" path="M480.74,417.37L481.871,421.896L488.454,431.576L488.292,434.116L491.402,438.372L489.382,439.801L493.502,442.191L491.927,446.763L494.309,451.262L497.702,452.053L497.055,456.75L502.871,456.326L503.396,458.439L509.736,460.466L508.605,461.787L501.013,464.41L498.711,466.054L498.913,468.773L503.719,464.753L509.251,463.032L510.665,466.19L515.955,468.976L514.945,472.739L516.48,477.111L511.351,481.549L510.745,477.833L483.931,477.833L482.437,473.072L481.508,479.99L478.115,479.338L473.391,475.462L473.068,470.931L471.291,473.472L469.191,470.46L471.21,468.435L467.495,464.203L467.737,461.44L471.816,459.35L471.977,455.902L476.096,459.489L478.439,457.736L482.437,460.048L484.456,458.158L484.698,454.98L482.84,449.819L482.437,445.444L484.092,438.07L481.144,434.957L483.608,431.885L479.287,423.334Z" d="m480.74 417.37l1.131 4.526 6.583 9.68-.162 2.54 3.11 4.256-2.02 1.429 4.12 2.39-1.575 4.572 2.382 4.499 3.393.791-.647 4.697 5.816-.424.525 2.113 6.34 2.027-1.131 1.321-7.592 2.623-2.302 1.644.202 2.719 4.806-4.02 5.532-1.721 1.414 3.158 5.29 2.786-1.01 3.763 1.535 4.372-5.129 4.438-.606-3.716h-26.814l-1.494-4.761-.929 6.918-3.393-.652-4.724-3.876-.323-4.531-1.777 2.541-2.1-3.01 2.02-2.025-3.715-4.232.242-2.763 4.079-2.09.161-3.448 4.119 3.587 2.343-1.753 3.998 2.312 2.02-1.89.242-3.178-1.858-5.161-.403-4.375 1.655-7.374-2.948-3.113 2.464-3.072-4.321-8.551" dojoGfxStrokeStyle="solid"/>
   </g>
  <path fill-opacity="0" stroke-width="1" d="m675 0h125v154h-125z"/>
  <g transform="translate(695 10)" clip-path="url(#1B)">
   <path fill-opacity="0" stroke-width="1" d="m0 0h105v144h-105z"/>
   <g>
    <path fill-opacity="0" d="m2 1.5h60v14h-60z"/>
    <text x="2" y="12.56" rotate="0" kerning="0" text-rendering="auto" font-weight="bold" font-size="12" font-family="Arial,SanSerif">Population
     </text>
    </g>
   <g transform="translate(0 18)">
    <path fill-opacity="0" dojoGfxStrokeStyle="solid" d="m2.5 2.5h98v20h-98z"/>
    <path fill="url(#15)" stroke="#000" stroke-width=".25" dojoGfxStrokeStyle="solid" d="m2.5 2.5h20v20h-20z"/>
    <path fill-opacity="0" dojoGfxStrokeStyle="solid" d="m27.5 5.5h73v14h-73z"/>
    <text x="27.5" y="16.56" rotate="0" kerning="0" text-rendering="auto" font-size="12" font-family="Arial,SansSerif,sans-serif">200,000,000
     </text>
    </g>
   <g transform="translate(0 18)">
    <path fill-opacity="0" dojoGfxStrokeStyle="solid" d="m2.5 27.5h98v20h-98z"/>
    <path fill="url(#16)" stroke="#000" stroke-width=".25" dojoGfxStrokeStyle="solid" d="m2.5 27.5h20v20h-20z"/>
    <path fill-opacity="0" dojoGfxStrokeStyle="solid" d="m27.5 30.5h73v14h-73z"/>
    <text x="27.5" y="41.56" rotate="0" kerning="0" text-rendering="auto" font-size="12" font-family="Arial,SansSerif,sans-serif">150,000,000
     </text>
    </g>
   <g transform="translate(0 18)">
    <path fill-opacity="0" dojoGfxStrokeStyle="solid" d="m2.5 52.5h98v20h-98z"/>
    <path fill="url(#17)" stroke="#000" stroke-width=".25" dojoGfxStrokeStyle="solid" d="m2.5 52.5h20v20h-20z"/>
    <path fill-opacity="0" dojoGfxStrokeStyle="solid" d="m27.5 55.5h73v14h-73z"/>
    <text x="27.5" y="66.56" rotate="0" kerning="0" text-rendering="auto" font-size="12" font-family="Arial,SansSerif,sans-serif">100,000,000
     </text>
    </g>
   <g transform="translate(0 18)">
    <path fill-opacity="0" dojoGfxStrokeStyle="solid" d="m2.5 77.5h98v20h-98z"/>
    <path fill="url(#18)" stroke="#000" stroke-width=".25" dojoGfxStrokeStyle="solid" d="m2.5 77.5h20v20h-20z"/>
    <path fill-opacity="0" dojoGfxStrokeStyle="solid" d="m27.5 80.5h73v14h-73z"/>
    <text x="27.5" y="91.56" rotate="0" kerning="0" text-rendering="auto" font-size="12" font-family="Arial,SansSerif,sans-serif">50,000,000
     </text>
    </g>
   <g transform="translate(0 18)">
    <path fill-opacity="0" dojoGfxStrokeStyle="solid" d="m2.5 102.5h98v20h-98z"/>
    <path fill="url(#19)" stroke="#000" stroke-width=".25" dojoGfxStrokeStyle="solid" d="m2.5 102.5h20v20h-20z"/>
    <path fill-opacity="0" dojoGfxStrokeStyle="solid" d="m27.5 105.5h73v14h-73z"/>
    <text x="27.5" y="116.56" rotate="0" kerning="0" text-rendering="auto" font-size="12" font-family="Arial,SansSerif,sans-serif">000
     </text>
    </g>
   </g>
  </g>
 </svg>
