<?xml version="1.0" encoding="UTF-8"?>
<svg width="100%" version="1.1" xmlns="http://www.w3.org/2000/svg" viewBox="0 0 1254 149" xmlns:xlink="http://www.w3.org/1999/xlink" >
<title></title><!-- removes titles except in safari -->

 <defs>
  <path id="c" d="M14.736 5.7119 C14.04 1.8721 11.832 0 7.992 0 C5.64 0 3.744 0.7442 2.448 2.1846 C0.864 3.9121 0 6.4082 0 9.2403 C0 12.1201 0.888 14.5918 2.544 16.2959 C3.888 17.6885 5.616 18.336 7.896 18.336 C12.168 18.336 14.568 16.0322 15.096 11.4004 L12.792 11.4004 C12.6 12.6006 12.36 13.416 12 14.1123 C11.28 15.5518 9.792 16.3682 7.92 16.3682 C4.44 16.3682 2.232 13.584 2.232 9.2158 C2.232 4.7285 4.344 1.9678 7.728 1.9678 C9.144 1.9678 10.464 2.4004 11.184 3.0723 C11.832 3.6719 12.192 4.416 12.456 5.7119 L14.736 5.7119 Z"/>
  <path id="f" d="M2.232 9.5283 L10.584 9.5283 L10.584 7.5606 L2.232 7.5606 L2.232 1.9678 L11.736 1.9678 L11.736 0 L0 0 L0 17.4961 L2.232 17.4961 L2.232 9.5283 Z"/>
</g>
  <path id="o" d="M8.4238 0 C3.4082 0 0 3.69628 0 9.16798 C0 14.6406 3.4082 18.336 8.4483 18.336 C10.5596 18.336 12.4561 17.6885 13.8721 16.4883 C15.7676 14.8799 16.8955 12.168 16.8955 9.31248 C16.8955 3.67188 13.5596 0 8.4238 0 Z M8.4238 1.96778 C12.2158 1.96778 14.6641 4.84868 14.6641 9.26468 C14.6641 13.4883 12.1436 16.3682 8.4483 16.3682 C4.7275 16.3682 2.2315 13.4883 2.2315 9.16798 C2.2315 4.84868 4.7275 1.96778 8.4238 1.96778 Z"/>
  <path id="r" d="M2.23145 9.96 L7.99118 9.96 C9.98338 9.96 10.8711 10.9199 10.8711 13.0801 L10.8477 14.6397 C10.8477 15.7197 11.0401 16.7764 11.3516 17.4961 L14.0635 17.4961 L14.0635 16.9443 C13.2237 16.3682 13.0557 15.7441 13.0078 13.416 C12.9834 10.5361 12.5274 9.6719 10.6319 8.8565 C12.5996 7.8965 13.3916 6.6719 13.3916 4.6797 C13.3916 1.6563 11.4951 0 8.06348 0 L0 0 L0 17.4961 L2.23145 17.4961 L2.23145 9.96 Z M2.23145 7.9922 L2.23145 1.9678 L7.63188 1.9678 C8.87988 1.9678 9.59958 2.1602 10.1514 2.6406 C10.752 3.1445 11.0635 3.9365 11.0635 4.9922 C11.0635 7.0557 10.0078 7.9922 7.63188 7.9922 L2.23145 7.9922 Z"/>
  <path id="1" d="M2.8262 3.6719 L2.8262 12.7617 L4.4102 12.7617 L4.4102 0 L3.3662 0 C2.8077 1.9619 2.4483 2.2314 0 2.5381 L0 3.6719 L2.8262 3.6719 Z"/>
  <path id="2" d="M8.4957 11.1953 L1.7813 11.1953 C1.9434 10.1513 2.5195 9.4853 4.0859 8.5674 L5.8857 7.5957 C7.6677 6.624 8.5857 5.3096 8.5857 3.7441 C8.5857 2.6816 8.1537 1.6914 7.3977 1.0078 C6.6417 0.3242 5.7061 0 4.5 0 C2.8799 0 1.6738 0.5762 0.9717 1.6553 C0.5215 2.3398 0.3232 3.1318 0.2881 4.4277 L1.8721 4.4277 C1.9258 3.5635 2.0342 3.042 2.25 2.6279 C2.6641 1.8535 3.4912 1.3857 4.4453 1.3857 C5.8857 1.3857 6.9657 2.4121 6.9657 3.7793 C6.9657 4.7881 6.3721 5.6513 5.2373 6.2998 L3.582 7.2353 C0.918 8.748 0.1436 9.9541 0 12.7617 L8.4957 12.7617 L8.4957 11.1953 Z"/>
 </defs>
 <g id="Hintergrund" >
  <g id="Gruppe1">

      aria-describedby="InitialKetoneDesc" aria-labelledby="InitialKetoneLabel">
    <title id="InitialKetoneLabel">The initial ketone</title>
    <desc id="InitialKetoneDesc">A ketone, consisting of a carbon atom double-bonded to an oxygen atom and singly  bonded to two "terminal groups"</desc>

     <use xlink:href="#o" transform="translate(42, 10)" /> </g>

    <g id="g1doubleBond">
     <title>Double bond</title>
     <line style="stroke:black;stroke-width:2" x1="54" y1="59" x2="54" y2="30"/>
     <line style="stroke:black;stroke-width:2" x1="47" y1="59" x2="47" y2="30"/> </g>

    <g id="g1terminal1">
     <title>terminal group 1</title>
     <!-- R --><use xlink:href="#r" transform="translate(5, 69)" />
     <!-- 1 --><use xlink:href="#1" transform="translate(21, 65)" /> </g>
    
    <g id="g1R1singleBond"><title>Single bond to terminal group 1</title>
     <line style="stroke:black;stroke-width:2" x1="30" y1="70" x2="51" y2="56"/> </g>
    
    <g id="g1terminal2">
     <title>terminal group 2</title>
     <!-- R --><use xlink:href="#r" transform="translate(77, 69)" />
     <!-- 2 --><use xlink:href="#2" transform="translate(93, 65)" /> </g>

    <g id="g1R1singleBond"><title>Single bond to terminal group 2</title>
     <line style="stroke:black;stroke-width:2" x1="74" y1="70" x2="51" y2="56"/> </g>
   </g>

   <g id="plus" tabindex="0"><title>plus</title>
   <path d="M11.616 4.9678 L6.648 4.9678 L6.648 0 L4.968 0 L4.968 4.9678 L0 4.9678 L0 6.6485 L4.968 6.6485 L4.968 11.6162 L6.648 11.6162 L6.648 6.6485 L11.616 6.6485 L11.616 4.9678 Z" transform="translate(117.45, 50.374)" />
   </g>

   <g id="reagent" tabindex="0" aria-labelledby="reagentlabel">
    <title id="reagentlabel">Reagent, triflouro-1,1,1-ethaneperoxoic acid</title>
    <use xlink:href="#h" transform="translate(137,75)" />
    <use xlink:href="#o" transform="translate(153,75)" />

   <path style="fill:#161413; fill-rule:nonzero;stroke:none;" d="M18.6 0 L18.6 1.6992 L0 1.6992 L0 0 L18.6 0 Z" transform="translate(172,82)" />

   <use xlink:href="#o" transform="translate(193,75)" />

   <path style="fill:#161413; fill-rule:nonzero;stroke:none;" d="M14.85 0 L15.8 1.7002 L1.45 26.5498 L0 25.7002 L14.85 0 Z" transform="translate(206, 48)" />

   <use xlink:href="#o" transform="translate(193, 6)" />

   <path style="fill:#161413; fill-rule:nonzero;stroke:none;" d="M0 0.8506 L1.45 0 L16.25 25.6006 L14.75 26.4502 L0 0.8506 Z" transform="translate(204.3, 26)" />
   <path style="fill:#161413; fill-rule:nonzero;stroke:none;" d="M0 0.8506 L1.5 0 L16.25 25.6006 L14.8 26.4502 L0 0.8506 Z" transform="translate(209.45, 23)" />


   <path style="fill:#161413; fill-rule:nonzero;stroke:none;" d="M30.3 0 L30.3 1.7002 L0.95 1.7002 L0 0 L30.3 0 Z" transform="translate(221, 48)" />

   </g>

   <path style="fill:none;stroke:#e20010; stroke-width:1.7; stroke-linecap:butt; stroke-linejoin:miter; stroke-dasharray:none;" d="M0 7.0498 C6.0996 4.5 12.5996 2.89941 19.2002 2.45019 C52.6 0 81.65 25.1494 84.1 58.5498 " transform="translate(59.25, 1.9502)" />
   <path style="fill:#e20010; fill-rule:nonzero;stroke:none;" d="M3.1 13.75 L6.9 0.2998 C6.9 0.2998 4.9 1.8994 3.4 1.8496 C1.9 1.7998 0 0 0 0 L3.1 13.75 " transform="translate(140, 59)" />
    </g>
   
   <path style="fill:none;stroke:#e20010; stroke-width:1.7; stroke-linecap:butt; stroke-linejoin:miter; stroke-dasharray:none;" d="M106.35 22.8008 C100.75 27.9504 94.2498 32.1504 87.1998 35.1504 C53.4498 49.5004 14.3496 33.7504 0 0 " transform="translate(53.9502, 74.8496)" />
   <path style="fill:#e20010; fill-rule:nonzero;stroke:none;" d="M0 0 L0.8506 14.0498 C0.8506 14.0498 2.2002 11.7998 3.6504 11.3496 C5.0498 10.8496 7.4502 11.8496 7.4502 11.8496 L0 0 " transform="translate(50.2998, 63.5)" />
     </g>
    </g>

    <g id="arrow1">
     <path style="fill:none;stroke:#161413; stroke-width:1.35; stroke-linecap:butt; stroke-linejoin:miter; stroke-dasharray:none;" d="M64.65 0 L0 0 " transform="translate(310.5, 52)" />
     <path style="fill:#161413; fill-rule:nonzero;stroke:none;" d="M17 4.3496 L0 0 C0 0 2.1 2.4492 2.1 4.3496 C2.1 6.25 0 8.6494 0 8.6494 L17 4.3496 " transform="translate(373, 47.6504)" /></g>
   
   <g id="intermediate1"><title>Intermediate state 1</title>
   <use xlink:href="#o" transform="translate(572.412, 2.21582)" />

   <path d="M1.7 29.4492 L0 29.4492 L0 0 L1.7 0 L1.7 29.4492 Z" transform="translate(583, 22.4004)" />

   <path d="M1.7 29.4492 L0 29.4492 L0 0 L1.7 0 L1.7 29.4492 Z" transform="translate(577.05, 22.4004)" />


   <path d="M26.1 15.0498 L25.25 16.5498 L0 1.9492 L0 0 L26.1 15.0498 Z" transform="translate(580.85, 49.1504)" />

   <use xlink:href="#o" transform="translate(537.912, 61.7158)" />

   <path d="M0.85 16.2998 L0 14.8496 L25.7 0 L25.7 1.9492 L0.85 16.2998 Z" transform="translate(555.15, 49.1504)" />

   <use xlink:href="#o" transform="translate(503.662, 41.7158)" />

   <path d="M0 1.4502 L0.85 0 L16.35 8.9502 L15.5 10.4004 L0 1.4502 Z" transform="translate(521.5, 55.0498)" />

   <path d="M1 15.3496 L0 14.9502 L0.15 13.9004 L24.2 0 L25.05 1.5 L1 15.3496 Z" transform="translate(477.75, 55)" />

   <use xlink:href="#r" transform="translate(432, 82)" />
   <use xlink:href="#1" transform="translate(449, 78)" />
   <path d="M0.85 12.9004 L0 11.4004 L19.8 0 L21.2 0.1504 L20.65 1.4502 L0.85 12.9004 Z" transform="translate(456.55, 69.7998)" />
   <use xlink:href="#r" transform="translate(480.732, 100)" />
   <use xlink:href="#2" transform="translate(496.362, 96)" />
   <path d="M8.8 27.4502 L7.15 27.8496 L0 1.2998 L0.55 0 L1.55 0.3994 L8.8 27.4502 Z" transform="translate(477.2, 69.9502)" />
   <use xlink:href="#h" transform="translate(424.992, 33.7539)" />
   <use xlink:href="#o" transform="translate(441.412, 33.4658)" />
   <path d="M0 1.2002 L1.2 0 L20.55 19.3506 L20.4 20.4004 L19 20.25 L0 1.2002 Z" transform="translate(457.35, 49.5498)" />
    </g>

    <g><title>Things moving in intermediate state 1</title>

     <g><title>second things moving</title>
   <path style="fill:none;stroke:#e20010; stroke-width:1.7; stroke-linecap:butt; stroke-linejoin:miter; stroke-dasharray:none;" d="M3.1 24.8008 C0.9 21.6504 0 17.7002 0.55 13.9004 C1.8 5.7002 9.5 0 17.7 1.25 C25.95 2.5 31.6 10.2002 30.4 18.4502 " transform="translate(528.75, 32)" />
   <path style="fill:#e20010; fill-rule:nonzero;stroke:none;" d="M0 13.4004 L10.1 3.7002 C10.1 3.7002 7.55 4.0996 6.3 3.2998 C5 2.5 4.25 0 4.25 0 L0 13.4004 " transform="translate(552.85, 47.25)" />
     </g>
   <path style="fill:none;stroke:#e20010; stroke-width:1.7; stroke-linecap:butt; stroke-linejoin:miter; stroke-dasharray:none;" d="M26.25 0 C21.8 9.4492 9.75 14.2998 0 10.4492 " transform="translate(484.4, 73.4004)" />
   <path style="fill:#e20010; fill-rule:nonzero;stroke:none;" d="M5.4 0 L0 12.9004 C0 12.9004 2.2 11.5508 3.7 11.8008 C5.2 12 6.85 14 6.85 14 L5.4 0 " transform="translate(506.95, 61.5996)" />
    </g>
   <path style="fill:none;stroke:#161413; stroke-width:1.35; stroke-linecap:butt; stroke-linejoin:miter; stroke-dasharray:none;" d="M158.7 0 L0 0 " transform="translate(654.75, 51.25)" />
   <path style="fill:#161413; fill-rule:nonzero;stroke:none;" d="M17 4.3496 L0 0 C0 0 2.15 2.4492 2.15 4.3496 C2.15 6.25 0 8.6494 0 8.6494 L17 4.3496 " transform="translate(811.25, 46.9004)" />

    <g><title>Stuff thrown out in second phase transform?</title>
   <path d="M16.98 0 L0 0 L0 2.1602 L16.98 2.1602 L16.98 0 Z" transform="translate(682.35, 83.6396)" />

   <use xlink:href="#o" transform="translate(731, 64)" />

   <path style="fill:#161413; fill-rule:nonzero;stroke:none;" d="M1.7 29.4498 L0 29.4498 L0 0 L1.7 0 L1.7 29.4498 Z" transform="translate(741.65, 84.2002)" />
   <path style="fill:#161413; fill-rule:nonzero;stroke:none;" d="M1.7 29.4498 L0 29.4498 L0 0 L1.7 0 L1.7 29.4498 Z" transform="translate(735.65, 84.2002)" />
   <path style="fill:#161413; fill-rule:nonzero;stroke:none;" d="M26.1 15.1 L25.25 16.55 L0 1.95 L0 0 L26.1 15.1 Z" transform="translate(739.5, 111)" />
   <use xlink:href="#o" transform="translate(696, 123)" />

   <path style="fill:#161413; fill-rule:nonzero;stroke:none;" d="M0.85 16.3 L0 14.85 L25.7 0 L25.7 1.95 L0.85 16.3 Z" transform="translate(713.8, 111)" />

<g><!-- minus --><title>negative charge</title>
   <circle r="6" style="stroke:#000;stroke-width:1.3;fill:none" cx="709" cy="116"/>
  <path style="fill:none;stroke:#161413; stroke-width:1.35; stroke-linecap:butt; stroke-linejoin:miter; stroke-dasharray:none;" d="M0 0 L6.05 0 " transform="translate(706.05, 116.05)" /> </g>
    </g>


   <use xlink:href="#r" transform="translate(848, 74)" />
   <use xlink:href="#1" transform="translate(865, 70)" />
   <path style="fill:#161413; fill-rule:nonzero;stroke:none;" d="M20.35 0 L21.2 0.5 L21.2 1.5 L0.85 13.25 L0 11.75 L20.35 0 Z" transform="translate(872.65, 61.6504)" />
   <use xlink:href="#o" transform="translate(885.412, 14.2158)" />
   <use xlink:href="#h" transform="translate(905.242, 14.5039)" />
   <path style="fill:#161413; fill-rule:nonzero;stroke:none;" d="M0 0 L1.7 0 L1.7 27.2002 L0.85 27.7002 L0 27.2002 L0 0 Z" transform="translate(893, 34.4502)" />
   <use xlink:href="#o" transform="translate(919.662, 73.7158)" />

   <path style="fill:#161413; fill-rule:nonzero;stroke:none;" d="M25.75 14.3496 L24.9 15.8496 L0 1.5 L0 0.5 L0.85 0 L25.75 14.3496 Z" transform="translate(893.85, 61.6504)" />
   <use xlink:href="#r" transform="translate(955, 54)" />
   <use xlink:href="#2" transform="translate(971, 50)" />
   <path style="fill:#161413; fill-rule:nonzero;stroke:none;" d="M14.05 0 L14.9 1.5 L0.85 9.5996 L0 8.0996 L14.05 0 Z" transform="translate(936.9, 67.9004)" />

<g><title>positive charge</title>
   <circle r="6" style="stroke:#000;stroke-width:1.3;fill:none" cx="894" cy="72"/>
   <path style="fill:none;stroke:#161413; stroke-width:1.35; stroke-linecap:butt; stroke-linejoin:miter; stroke-dasharray:none;" d="M0 0 L6 0 " transform="translate(891, 72)" />
   <path style="fill:none;stroke:#161413; stroke-width:1.35; stroke-linecap:butt; stroke-linejoin:miter; stroke-dasharray:none;" d="M0 0 L0 6 " transform="translate(894, 69)" /> </g>


   <!--path style="fill:none;stroke:#161413; stroke-width:1.35; stroke-linecap:butt; stroke-linejoin:miter; stroke-dasharray:none;" d="M84.25 0 L0 0 " transform="translate(999, 52)" /-->
       <path style="stroke:#000; stroke-width:1.35" d="M1000 52 h85" />

   <path style="fill:#161413; fill-rule:nonzero;stroke:none;" d="M17 4.3496 L0 0 C0 0 2.15 2.4492 2.15 4.3496 C2.15 6.25 0 8.6494 0 8.6494 L17 4.3496 " transform="translate(1081.05, 47.6504)" />

   <g><title>Byproduct: positively charged hydrogen ions</title>
     <path style="stroke:#000; stroke-width:2" d="M1012 77 h17" />
     <use xlink:href="#h" transform="translate(1038.49, 69.7539)" />

     <g><title>positive charge</title>
       <circle r="6" style="stroke:#000;stroke-width:1.3;fill:none" cx="1061" cy="68"/>
       <path style="stroke:#000; stroke-width:1.35" d="M1058 68 h6" />
       <path style="stroke:#000; stroke-width:1.35" d="M1061 65 v6" /> </g>
   </g>

   <use xlink:href="#o" transform="translate(1156, 12)" />
   <path style="fill:#161413; fill-rule:nonzero;stroke:none;" d="M1.7 29.4502 L0 29.4502 L0 0 L1.7 0 L1.7 29.4502 Z" transform="translate(1166.9, 32.4502)" />
   <path style="fill:#161413; fill-rule:nonzero;stroke:none;" d="M1.7 29.4502 L0 29.4502 L0 0 L1.7 0 L1.7 29.4502 Z" transform="translate(1160.9, 32.4502)" />
   <use xlink:href="#r" transform="translate(1118, 72)" />
   <use xlink:href="#1" transform="translate(1135, 68)" />
   <path style="fill:#161413; fill-rule:nonzero;stroke:none;" d="M0.85 13.7002 L0 12.25 L21.2 0 L21.2 1.9502 L0.85 13.7002 Z" transform="translate(1143.55, 59.2002)" />
   <use xlink:href="#o" transform="translate(1190, 72)" />
   <path style="fill:#161413; fill-rule:nonzero;stroke:none;" d="M25.7 14.8496 L24.85 16.2998 L0 1.9502 L0 0 L25.7 14.8496 Z" transform="translate(1164.75, 59.2002)" />
   <use xlink:href="#r" transform="translate(1226, 52)" />
   <use xlink:href="#2" transform="translate(1242, 48)" />
   <path style="fill:#161413; fill-rule:nonzero;stroke:none;" d="M14.1 0 L14.95 1.4502 L0.85 9.5498 L0 8.0996 L14.1 0 Z" transform="translate(1207.75, 65.9502)" />
  </g>
 </g>
</svg>
