<?xml version="1.0" encoding="UTF-8"?>
<svg width="1254pt" version="1.1" xmlns="http://www.w3.org/2000/svg" height="149pt" viewBox="0 0 1254 149" xmlns:xlink="http://www.w3.org/1999/xlink" >
 <defs>
  <clipPath id="Clip0" >
   <path d="M0 0 L1254 0 L1254 149 L0 149 L0 0 Z" transform="translate(0, 0)" />
  </clipPath>
 </defs>
 <g id="Hintergrund" >
  <g id="Gruppe1" clip-path="url(#Clip0)" >
   <path style="fill:#161413; fill-rule:evenodd;stroke:none;" d="M8.4238 0 C3.4082 0 0 3.69628 0 9.16798 C0 14.6406 3.4082 18.336 8.4483 18.336 C10.5596 18.336 12.4561 17.6885 13.8721 16.4883 C15.7676 14.8799 16.8955 12.168 16.8955 9.31248 C16.8955 3.67188 13.5596 0 8.4238 0 Z M8.4238 1.96778 C12.2158 1.96778 14.6641 4.84868 14.6641 9.26468 C14.6641 13.4883 12.1436 16.3682 8.4483 16.3682 C4.7275 16.3682 2.2315 13.4883 2.2315 9.16798 C2.2315 4.84868 4.7275 1.96778 8.4238 1.96778 Z" transform="translate(42.1621, 9.71582)" />
   <path style="fill:#161413; fill-rule:nonzero;stroke:none;" d="M1.6992 29.4502 L0 29.4502 L0 0 L1.6992 0 L1.6992 29.4502 Z" transform="translate(52.6504, 29.9502)" />
   <path style="fill:#161413; fill-rule:nonzero;stroke:none;" d="M1.6992 29.4502 L0 29.4502 L0 0 L1.6992 0 L1.6992 29.4502 Z" transform="translate(46.6504, 29.9502)" />
   <path style="fill:#161413; fill-rule:evenodd;stroke:none;" d="M2.23145 9.96 L7.99118 9.96 C9.98338 9.96 10.8711 10.9199 10.8711 13.0801 L10.8477 14.6397 C10.8477 15.7197 11.0401 16.7764 11.3516 17.4961 L14.0635 17.4961 L14.0635 16.9443 C13.2237 16.3682 13.0557 15.7441 13.0078 13.416 C12.9834 10.5361 12.5274 9.6719 10.6319 8.8565 C12.5996 7.8965 13.3916 6.6719 13.3916 4.6797 C13.3916 1.6563 11.4951 0 8.06348 0 L0 0 L0 17.4961 L2.23145 17.4961 L2.23145 9.96 Z M2.23145 7.9922 L2.23145 1.9678 L7.63188 1.9678 C8.87988 1.9678 9.59958 2.1602 10.1514 2.6406 C10.752 3.1445 11.0635 3.9365 11.0635 4.9922 C11.0635 7.0557 10.0078 7.9922 7.63188 7.9922 L2.23145 7.9922 Z" transform="translate(4.48242, 69.5039)" />
   <path style="fill:#161413; fill-rule:evenodd;stroke:none;" d="M2.8262 3.6719 L2.8262 12.7617 L4.4102 12.7617 L4.4102 0 L3.3662 0 C2.8077 1.9619 2.4483 2.2314 0 2.5381 L0 3.6719 L2.8262 3.6719 Z" transform="translate(21.3359, 65.2383)" />
   <path style="fill:#161413; fill-rule:nonzero;stroke:none;" d="M0.8506 13.7002 L0 12.25 L21.2002 0 L21.2002 1.9502 L0.8506 13.7002 Z" transform="translate(29.2998, 56.7002)" />
   <path style="fill:#161413; fill-rule:evenodd;stroke:none;" d="M2.2315 9.96 L7.9912 9.96 C9.9834 9.96 10.8711 10.9199 10.8711 13.0801 L10.8477 14.6397 C10.8477 15.7197 11.0401 16.7764 11.3516 17.4961 L14.0635 17.4961 L14.0635 16.9443 C13.2237 16.3682 13.0557 15.7441 13.0078 13.416 C12.9834 10.5361 12.5274 9.6719 10.6319 8.8565 C12.5996 7.8965 13.3916 6.6719 13.3916 4.6797 C13.3916 1.6563 11.4951 0 8.0635 0 L0 0 L0 17.4961 L2.2315 17.4961 L2.2315 9.96 Z M2.2315 7.9922 L2.2315 1.9678 L7.6319 1.9678 C8.8799 1.9678 9.5996 2.1602 10.1514 2.6406 C10.752 3.1445 11.0635 3.9365 11.0635 4.9922 C11.0635 7.0557 10.0078 7.9922 7.6319 7.9922 L2.2315 7.9922 Z" transform="translate(77.4824, 69.5039)" />
   <path style="fill:#161413; fill-rule:evenodd;stroke:none;" d="M8.4957 11.1953 L1.7813 11.1953 C1.9434 10.1513 2.5195 9.4853 4.0859 8.5674 L5.8857 7.5957 C7.6677 6.624 8.5857 5.3096 8.5857 3.7441 C8.5857 2.6816 8.1537 1.6914 7.3977 1.0078 C6.6417 0.3242 5.7061 0 4.5 0 C2.8799 0 1.6738 0.5762 0.9717 1.6553 C0.5215 2.3398 0.3232 3.1318 0.2881 4.4277 L1.8721 4.4277 C1.9258 3.5635 2.0342 3.042 2.25 2.6279 C2.6641 1.8535 3.4912 1.3857 4.4453 1.3857 C5.8857 1.3857 6.9657 2.4121 6.9657 3.7793 C6.9657 4.7881 6.3721 5.6513 5.2373 6.2998 L3.582 7.2353 C0.918 8.748 0.1436 9.9541 0 12.7617 L8.4957 12.7617 L8.4957 11.1953 Z" transform="translate(93.3623, 65.2383)" />
   <path style="fill:#161413; fill-rule:nonzero;stroke:none;" d="M23.7002 13.7002 L22.8496 15.1494 L0 1.9502 L0 0 L23.7002 13.7002 Z" transform="translate(50.5, 56.7002)" />
   <path style="fill:#161413; fill-rule:evenodd;stroke:none;" d="M11.232 9.5283 L11.232 17.4961 L13.464 17.4961 L13.464 0 L11.232 0 L11.232 7.5606 L2.232 7.5606 L2.232 0 L0 0 L0 17.4961 L2.256 17.4961 L2.256 9.5283 L11.232 9.5283 Z" transform="translate(137.492, 75.2539)" />
   <path style="fill:#161413; fill-rule:evenodd;stroke:none;" d="M8.424 0 C3.408 0 0 3.6963 0 9.168 C0 14.6406 3.408 18.336 8.448 18.336 C10.56 18.336 12.456 17.6885 13.872 16.4883 C15.768 14.8799 16.896 12.168 16.896 9.3125 C16.896 3.6719 13.56 0 8.424 0 Z M8.424 1.9678 C12.216 1.9678 14.664 4.8487 14.664 9.2647 C14.664 13.4883 12.144 16.3682 8.448 16.3682 C4.728 16.3682 2.232 13.4883 2.232 9.168 C2.232 4.8487 4.728 1.9678 8.424 1.9678 Z" transform="translate(153.662, 74.9658)" />
   <path style="fill:#161413; fill-rule:evenodd;stroke:none;" d="M8.424 0 C3.408 0 0 3.6963 0 9.168 C0 14.6406 3.408 18.336 8.448 18.336 C10.56 18.336 12.456 17.6885 13.872 16.4883 C15.768 14.8799 16.896 12.168 16.896 9.3125 C16.896 3.6719 13.56 0 8.424 0 Z M8.424 1.9678 C12.216 1.9678 14.664 4.8487 14.664 9.2647 C14.664 13.4883 12.144 16.3682 8.448 16.3682 C4.728 16.3682 2.232 13.4883 2.232 9.168 C2.232 4.8487 4.728 1.9678 8.424 1.9678 Z" transform="translate(193.162, 74.9658)" />
   <path style="fill:#161413; fill-rule:nonzero;stroke:none;" d="M18.6 0 L18.6 1.6992 L0 1.6992 L0 0 L18.6 0 Z" transform="translate(172.55, 82.4004)" />
   <path style="fill:#161413; fill-rule:nonzero;stroke:none;" d="M14.85 0 L15.8 1.7002 L1.45 26.5498 L0 25.7002 L14.85 0 Z" transform="translate(206.2, 48.0498)" />
   <path style="fill:#161413; fill-rule:evenodd;stroke:none;" d="M8.424 0 C3.408 0 0 3.69629 0 9.16798 C0 14.6406 3.408 18.336 8.448 18.336 C10.56 18.336 12.456 17.6885 13.872 16.4883 C15.768 14.8799 16.896 12.168 16.896 9.31248 C16.896 3.67188 13.56 0 8.424 0 Z M8.424 1.96777 C12.216 1.96777 14.664 4.84868 14.664 9.26468 C14.664 13.4883 12.144 16.3682 8.448 16.3682 C4.728 16.3682 2.232 13.4883 2.232 9.16798 C2.232 4.84868 4.728 1.96777 8.424 1.96777 Z" transform="translate(193.162, 6.21582)" />
   <path style="fill:#161413; fill-rule:nonzero;stroke:none;" d="M0 0.8506 L1.45 0 L16.25 25.6006 L14.75 26.4502 L0 0.8506 Z" transform="translate(204.3, 25.8496)" />
   <path style="fill:#161413; fill-rule:nonzero;stroke:none;" d="M0 0.8506 L1.5 0 L16.25 25.6006 L14.8 26.4502 L0 0.8506 Z" transform="translate(209.45, 22.8496)" />
   <path style="fill:#161413; fill-rule:evenodd;stroke:none;" d="M14.736 5.7119 C14.04 1.8721 11.832 0 7.992 0 C5.64 0 3.744 0.7442 2.448 2.1846 C0.864 3.9121 0 6.4082 0 9.2403 C0 12.1201 0.888 14.5918 2.544 16.2959 C3.888 17.6885 5.616 18.336 7.896 18.336 C12.168 18.336 14.568 16.0322 15.096 11.4004 L12.792 11.4004 C12.6 12.6006 12.36 13.416 12 14.1123 C11.28 15.5518 9.792 16.3682 7.92 16.3682 C4.44 16.3682 2.232 13.584 2.232 9.2158 C2.232 4.7285 4.344 1.9678 7.728 1.9678 C9.144 1.9678 10.464 2.4004 11.184 3.0723 C11.832 3.6719 12.192 4.416 12.456 5.7119 L14.736 5.7119 Z" transform="translate(253.652, 40.4658)" />
   <path style="fill:#161413; fill-rule:evenodd;stroke:none;" d="M2.232 9.5283 L10.584 9.5283 L10.584 7.5606 L2.232 7.5606 L2.232 1.9678 L11.736 1.9678 L11.736 0 L0 0 L0 17.4961 L2.232 17.4961 L2.232 9.5283 Z" transform="translate(271.91, 40.7539)" />
   <path style="fill:#161413; fill-rule:evenodd;stroke:none;" d="M3.402 6.9121 L3.6 6.9121 L4.266 6.8935 C6.012 6.8935 6.912 7.6855 6.912 9.2158 C6.912 10.8174 5.922 11.7715 4.266 11.7715 C2.538 11.7715 1.692 10.9082 1.584 9.0537 L0 9.0537 C0.072 10.0801 0.252 10.7461 0.558 11.3213 C1.206 12.5459 2.466 13.1758 4.212 13.1758 C6.84 13.1758 8.532 11.6094 8.532 9.1972 C8.532 7.5781 7.902 6.6777 6.372 6.1553 C7.56 5.6875 8.154 4.7881 8.154 3.5097 C8.154 1.3135 6.696 0 4.266 0 C1.692 0 0.324 1.4033 0.27 4.1221 L1.854 4.1221 C1.872 3.3476 1.944 2.916 2.142 2.5195 C2.502 1.8174 3.294 1.3857 4.284 1.3857 C5.688 1.3857 6.534 2.2138 6.534 3.5635 C6.534 4.4638 6.21 5.0039 5.508 5.292 C5.076 5.4717 4.518 5.5439 3.402 5.5615 L3.402 6.9121 Z" transform="translate(285.076, 49.9883)" />
   <path style="fill:#161413; fill-rule:nonzero;stroke:none;" d="M30.3 0 L30.3 1.7002 L0.95 1.7002 L0 0 L30.3 0 Z" transform="translate(221.05, 48.0498)" />
   <path style="fill:#161413; fill-rule:evenodd;stroke:none;" d="M11.616 4.9678 L6.648 4.9678 L6.648 0 L4.968 0 L4.968 4.9678 L0 4.9678 L0 6.6485 L4.968 6.6485 L4.968 11.6162 L6.648 11.6162 L6.648 6.6485 L11.616 6.6485 L11.616 4.9678 Z" transform="translate(117.45, 50.374)" />
   <path style="fill:none;stroke:#161413; stroke-width:1.35; stroke-linecap:butt; stroke-linejoin:miter; stroke-dasharray:none;" d="M64.65 0 L0 0 " transform="translate(310.5, 52)" />
   <path style="fill:#161413; fill-rule:nonzero;stroke:none;" d="M17 4.3496 L0 0 C0 0 2.1 2.4492 2.1 4.3496 C2.1 6.25 0 8.6494 0 8.6494 L17 4.3496 " transform="translate(373, 47.6504)" />
   <path style="fill:#161413; fill-rule:evenodd;stroke:none;" d="M8.424 0 C3.408 0 0 3.69629 0 9.16798 C0 14.6406 3.408 18.336 8.448 18.336 C10.56 18.336 12.456 17.6885 13.872 16.4883 C15.768 14.8799 16.896 12.168 16.896 9.31248 C16.896 3.67188 13.56 0 8.424 0 Z M8.424 1.96777 C12.216 1.96777 14.664 4.84863 14.664 9.26468 C14.664 13.4883 12.144 16.3682 8.448 16.3682 C4.728 16.3682 2.232 13.4883 2.232 9.16798 C2.232 4.84863 4.728 1.96777 8.424 1.96777 Z" transform="translate(572.412, 2.21582)" />
   <path style="fill:#161413; fill-rule:nonzero;stroke:none;" d="M1.7 29.4492 L0 29.4492 L0 0 L1.7 0 L1.7 29.4492 Z" transform="translate(583, 22.4004)" />
   <path style="fill:#161413; fill-rule:nonzero;stroke:none;" d="M1.7 29.4492 L0 29.4492 L0 0 L1.7 0 L1.7 29.4492 Z" transform="translate(577.05, 22.4004)" />
   <path style="fill:#161413; fill-rule:evenodd;stroke:none;" d="M14.736 5.7119 C14.04 1.8721 11.832 0 7.992 0 C5.64 0 3.744 0.7442 2.448 2.1846 C0.864 3.9121 0 6.4082 0 9.2403 C0 12.1201 0.888 14.5918 2.544 16.2959 C3.888 17.6885 5.616 18.336 7.896 18.336 C12.168 18.336 14.568 16.0322 15.096 11.4004 L12.792 11.4004 C12.6 12.6006 12.36 13.416 12 14.1123 C11.28 15.5518 9.792 16.3682 7.92 16.3682 C4.44 16.3682 2.232 13.584 2.232 9.2158 C2.232 4.7285 4.344 1.9678 7.728 1.9678 C9.144 1.9678 10.464 2.4004 11.184 3.0723 C11.832 3.6719 12.192 4.416 12.456 5.7119 L14.736 5.7119 Z" transform="translate(607.652, 61.7158)" />
   <path style="fill:#161413; fill-rule:evenodd;stroke:none;" d="M2.232 9.5283 L10.584 9.5283 L10.584 7.5606 L2.232 7.5606 L2.232 1.9678 L11.736 1.9678 L11.736 0 L0 0 L0 17.4961 L2.232 17.4961 L2.232 9.5283 Z" transform="translate(625.91, 62.0039)" />
   <path style="fill:#161413; fill-rule:evenodd;stroke:none;" d="M3.402 6.9121 L3.6 6.9121 L4.266 6.8935 C6.012 6.8935 6.912 7.6855 6.912 9.2158 C6.912 10.8174 5.922 11.7715 4.266 11.7715 C2.538 11.7715 1.692 10.9082 1.584 9.0537 L0 9.0537 C0.072 10.0801 0.252 10.7461 0.558 11.3213 C1.206 12.5459 2.466 13.1758 4.212 13.1758 C6.84 13.1758 8.532 11.6094 8.532 9.1972 C8.532 7.5781 7.902 6.6777 6.372 6.1553 C7.56 5.6875 8.154 4.7881 8.154 3.5097 C8.154 1.3135 6.696 0 4.266 0 C1.692 0 0.324 1.4033 0.27 4.1221 L1.854 4.1221 C1.872 3.3476 1.944 2.916 2.142 2.5195 C2.502 1.8174 3.294 1.3857 4.284 1.3857 C5.688 1.3857 6.534 2.2138 6.534 3.5635 C6.534 4.4638 6.21 5.0039 5.508 5.292 C5.076 5.4717 4.518 5.5439 3.402 5.5615 L3.402 6.9121 Z" transform="translate(639.076, 71.2383)" />
   <path style="fill:#161413; fill-rule:nonzero;stroke:none;" d="M26.1 15.0498 L25.25 16.5498 L0 1.9492 L0 0 L26.1 15.0498 Z" transform="translate(580.85, 49.1504)" />
   <path style="fill:#161413; fill-rule:evenodd;stroke:none;" d="M8.424 0 C3.408 0 0 3.6963 0 9.168 C0 14.6406 3.408 18.336 8.448 18.336 C10.56 18.336 12.456 17.6885 13.872 16.4883 C15.768 14.8799 16.896 12.168 16.896 9.3125 C16.896 3.6719 13.56 0 8.424 0 Z M8.424 1.9678 C12.216 1.9678 14.664 4.8487 14.664 9.2647 C14.664 13.4883 12.144 16.3682 8.448 16.3682 C4.728 16.3682 2.232 13.4883 2.232 9.168 C2.232 4.8487 4.728 1.9678 8.424 1.9678 Z" transform="translate(537.912, 61.7158)" />
   <path style="fill:#161413; fill-rule:nonzero;stroke:none;" d="M0.85 16.2998 L0 14.8496 L25.7 0 L25.7 1.9492 L0.85 16.2998 Z" transform="translate(555.15, 49.1504)" />
   <path style="fill:#161413; fill-rule:evenodd;stroke:none;" d="M8.424 0 C3.408 0 0 3.6963 0 9.168 C0 14.6406 3.408 18.336 8.448 18.336 C10.56 18.336 12.456 17.6885 13.872 16.4883 C15.768 14.8799 16.896 12.168 16.896 9.3125 C16.896 3.6719 13.56 0 8.424 0 Z M8.424 1.9678 C12.216 1.9678 14.664 4.8487 14.664 9.2647 C14.664 13.4883 12.144 16.3682 8.448 16.3682 C4.728 16.3682 2.232 13.4883 2.232 9.168 C2.232 4.8487 4.728 1.9678 8.424 1.9678 Z" transform="translate(503.662, 41.7158)" />
   <path style="fill:#161413; fill-rule:nonzero;stroke:none;" d="M0 1.4502 L0.85 0 L16.35 8.9502 L15.5 10.4004 L0 1.4502 Z" transform="translate(521.5, 55.0498)" />
   <path style="fill:#161413; fill-rule:nonzero;stroke:none;" d="M1 15.3496 L0 14.9502 L0.15 13.9004 L24.2 0 L25.05 1.5 L1 15.3496 Z" transform="translate(477.75, 55)" />
   <path style="fill:#161413; fill-rule:evenodd;stroke:none;" d="M2.232 9.96 L7.992 9.96 C9.984 9.96 10.872 10.9199 10.872 13.0801 L10.848 14.6397 C10.848 15.7197 11.04 16.7764 11.352 17.4961 L14.064 17.4961 L14.064 16.9443 C13.224 16.3682 13.056 15.7441 13.008 13.416 C12.984 10.5361 12.528 9.6719 10.632 8.8565 C12.6 7.8965 13.392 6.6719 13.392 4.6797 C13.392 1.6563 11.496 0 8.064 0 L0 0 L0 17.4961 L2.232 17.4961 L2.232 9.96 Z M2.232 7.9922 L2.232 1.9678 L7.632 1.9678 C8.88 1.9678 9.6 2.1602 10.152 2.6406 C10.752 3.1445 11.064 3.9365 11.064 4.9922 C11.064 7.0557 10.008 7.9922 7.632 7.9922 L2.232 7.9922 Z" transform="translate(431.732, 81.7539)" />
   <path style="fill:#161413; fill-rule:evenodd;stroke:none;" d="M2.826 3.6719 L2.826 12.7617 L4.41 12.7617 L4.41 0 L3.366 0 C2.808 1.9619 2.448 2.2314 0 2.5381 L0 3.6719 L2.826 3.6719 Z" transform="translate(448.586, 77.4883)" />
   <path style="fill:#161413; fill-rule:nonzero;stroke:none;" d="M0.85 12.9004 L0 11.4004 L19.8 0 L21.2 0.1504 L20.65 1.4502 L0.85 12.9004 Z" transform="translate(456.55, 69.7998)" />
   <path style="fill:#161413; fill-rule:evenodd;stroke:none;" d="M2.232 9.96 L7.992 9.96 C9.984 9.96 10.872 10.92 10.872 13.08 L10.848 14.64 C10.848 15.72 11.04 16.776 11.352 17.496 L14.064 17.496 L14.064 16.944 C13.224 16.368 13.056 15.744 13.008 13.416 C12.984 10.536 12.528 9.672 10.632 8.856 C12.6 7.896 13.392 6.672 13.392 4.68 C13.392 1.656 11.496 0 8.064 0 L0 0 L0 17.496 L2.232 17.496 L2.232 9.96 Z M2.232 7.992 L2.232 1.968 L7.632 1.968 C8.88 1.968 9.6 2.16 10.152 2.641 C10.752 3.144 11.064 3.936 11.064 4.992 C11.064 7.056 10.008 7.992 7.632 7.992 L2.232 7.992 Z" transform="translate(480.732, 100.254)" />
   <path style="fill:#161413; fill-rule:evenodd;stroke:none;" d="M8.496 11.1957 L1.782 11.1957 C1.944 10.1517 2.52 9.4857 4.086 8.5677 L5.886 7.5957 C7.668 6.6237 8.586 5.3097 8.586 3.7441 C8.586 2.6816 8.154 1.6914 7.398 1.0078 C6.642 0.3242 5.706 0 4.5 0 C2.88 0 1.674 0.5762 0.972 1.6553 C0.522 2.3398 0.324 3.1318 0.288 4.4277 L1.872 4.4277 C1.926 3.5635 2.034 3.042 2.25 2.6279 C2.664 1.8535 3.492 1.3857 4.446 1.3857 C5.886 1.3857 6.966 2.4121 6.966 3.7793 C6.966 4.7877 6.372 5.6517 5.238 6.2997 L3.582 7.2357 C0.918 8.7477 0.144 9.9537 0 12.7617 L8.496 12.7617 L8.496 11.1957 Z" transform="translate(496.362, 95.9883)" />
   <path style="fill:#161413; fill-rule:nonzero;stroke:none;" d="M8.8 27.4502 L7.15 27.8496 L0 1.2998 L0.55 0 L1.55 0.3994 L8.8 27.4502 Z" transform="translate(477.2, 69.9502)" />
   <path style="fill:#161413; fill-rule:evenodd;stroke:none;" d="M11.232 9.5283 L11.232 17.4961 L13.464 17.4961 L13.464 0 L11.232 0 L11.232 7.5606 L2.232 7.5606 L2.232 0 L0 0 L0 17.4961 L2.256 17.4961 L2.256 9.5283 L11.232 9.5283 Z" transform="translate(424.992, 33.7539)" />
   <path style="fill:#161413; fill-rule:evenodd;stroke:none;" d="M8.424 0 C3.408 0 0 3.6963 0 9.168 C0 14.6406 3.408 18.336 8.448 18.336 C10.56 18.336 12.456 17.6885 13.872 16.4883 C15.768 14.8799 16.896 12.168 16.896 9.3125 C16.896 3.6719 13.56 0 8.424 0 Z M8.424 1.9678 C12.216 1.9678 14.664 4.8487 14.664 9.2647 C14.664 13.4883 12.144 16.3682 8.448 16.3682 C4.728 16.3682 2.232 13.4883 2.232 9.168 C2.232 4.8487 4.728 1.9678 8.424 1.9678 Z" transform="translate(441.412, 33.4658)" />
   <path style="fill:#161413; fill-rule:nonzero;stroke:none;" d="M0 1.2002 L1.2 0 L20.55 19.3506 L20.4 20.4004 L19 20.25 L0 1.2002 Z" transform="translate(457.35, 49.5498)" />
   <path style="fill:none;stroke:#e20010; stroke-width:1.7; stroke-linecap:butt; stroke-linejoin:miter; stroke-dasharray:none;" d="M0 7.0498 C6.0996 4.5 12.5996 2.89941 19.2002 2.45019 C52.6 0 81.65 25.1494 84.1 58.5498 " transform="translate(59.25, 1.9502)" />
   <path style="fill:#e20010; fill-rule:nonzero;stroke:none;" d="M3.1 13.75 L6.9 0.2998 C6.9 0.2998 4.9 1.8994 3.4 1.8496 C1.9 1.7998 0 0 0 0 L3.1 13.75 " transform="translate(139.95, 58.6504)" />
   <path style="fill:none;stroke:#e20010; stroke-width:1.7; stroke-linecap:butt; stroke-linejoin:miter; stroke-dasharray:none;" d="M106.35 22.8008 C100.75 27.9504 94.2498 32.1504 87.1998 35.1504 C53.4498 49.5004 14.3496 33.7504 0 0 " transform="translate(53.9502, 74.8496)" />
   <path style="fill:#e20010; fill-rule:nonzero;stroke:none;" d="M0 0 L0.8506 14.0498 C0.8506 14.0498 2.2002 11.7998 3.6504 11.3496 C5.0498 10.8496 7.4502 11.8496 7.4502 11.8496 L0 0 " transform="translate(50.2998, 63.5)" />
   <path style="fill:none;stroke:#e20010; stroke-width:1.7; stroke-linecap:butt; stroke-linejoin:miter; stroke-dasharray:none;" d="M26.25 0 C21.8 9.4492 9.75 14.2998 0 10.4492 " transform="translate(484.4, 73.4004)" />
   <path style="fill:#e20010; fill-rule:nonzero;stroke:none;" d="M5.4 0 L0 12.9004 C0 12.9004 2.2 11.5508 3.7 11.8008 C5.2 12 6.85 14 6.85 14 L5.4 0 " transform="translate(506.95, 61.5996)" />
   <path style="fill:none;stroke:#161413; stroke-width:1.35; stroke-linecap:butt; stroke-linejoin:miter; stroke-dasharray:none;" d="M158.7 0 L0 0 " transform="translate(654.75, 51.25)" />
   <path style="fill:#161413; fill-rule:nonzero;stroke:none;" d="M17 4.3496 L0 0 C0 0 2.15 2.4492 2.15 4.3496 C2.15 6.25 0 8.6494 0 8.6494 L17 4.3496 " transform="translate(811.25, 46.9004)" />
   <path style="fill:#161413; fill-rule:evenodd;stroke:none;" d="M8.424 0 C3.408 0 0 3.6963 0 9.168 C0 14.6406 3.408 18.336 8.448 18.336 C10.56 18.336 12.456 17.6885 13.872 16.4883 C15.768 14.8799 16.896 12.168 16.896 9.3125 C16.896 3.6719 13.56 0 8.424 0 Z M8.424 1.9678 C12.216 1.9678 14.664 4.8487 14.664 9.2647 C14.664 13.4883 12.144 16.3682 8.448 16.3682 C4.728 16.3682 2.232 13.4883 2.232 9.168 C2.232 4.8487 4.728 1.9678 8.424 1.9678 Z" transform="translate(731.162, 63.9658)" />
   <path style="fill:#161413; fill-rule:nonzero;stroke:none;" d="M1.7 29.4498 L0 29.4498 L0 0 L1.7 0 L1.7 29.4498 Z" transform="translate(741.65, 84.2002)" />
   <path style="fill:#161413; fill-rule:nonzero;stroke:none;" d="M1.7 29.4498 L0 29.4498 L0 0 L1.7 0 L1.7 29.4498 Z" transform="translate(735.65, 84.2002)" />
   <path style="fill:#161413; fill-rule:evenodd;stroke:none;" d="M14.736 5.712 C14.04 1.872 11.832 0 7.992 0 C5.64 0 3.744 0.744 2.448 2.184 C0.864 3.912 0 6.408 0 9.24 C0 12.12 0.888 14.592 2.544 16.296 C3.888 17.688 5.616 18.336 7.896 18.336 C12.168 18.336 14.568 16.032 15.096 11.4 L12.792 11.4 C12.6 12.6 12.36 13.416 12 14.112 C11.28 15.552 9.792 16.368 7.92 16.368 C4.44 16.368 2.232 13.584 2.232 9.216 C2.232 4.728 4.344 1.968 7.728 1.968 C9.144 1.968 10.464 2.4 11.184 3.072 C11.832 3.672 12.192 4.416 12.456 5.712 L14.736 5.712 Z" transform="translate(766.152, 123.466)" />
   <path style="fill:#161413; fill-rule:evenodd;stroke:none;" d="M2.232 9.528 L10.584 9.528 L10.584 7.56 L2.232 7.56 L2.232 1.968 L11.736 1.968 L11.736 0 L0 0 L0 17.496 L2.232 17.496 L2.232 9.528 Z" transform="translate(784.66, 123.754)" />
   <path style="fill:#161413; fill-rule:evenodd;stroke:none;" d="M3.402 6.912 L3.6 6.912 L4.266 6.894 C6.012 6.894 6.912 7.686 6.912 9.216 C6.912 10.818 5.922 11.772 4.266 11.772 C2.538 11.772 1.692 10.908 1.584 9.054 L0 9.054 C0.072 10.08 0.252 10.746 0.558 11.322 C1.206 12.546 2.466 13.176 4.212 13.176 C6.84 13.176 8.532 11.61 8.532 9.198 C8.532 7.578 7.902 6.678 6.372 6.156 C7.56 5.688 8.154 4.788 8.154 3.51 C8.154 1.314 6.696 0 4.266 0 C1.692 0 0.324 1.404 0.27 4.122 L1.854 4.122 C1.872 3.348 1.944 2.916 2.142 2.52 C2.502 1.818 3.294 1.386 4.284 1.386 C5.688 1.386 6.534 2.214 6.534 3.564 C6.534 4.464 6.21 5.004 5.508 5.292 C5.076 5.472 4.518 5.544 3.402 5.562 L3.402 6.912 Z" transform="translate(797.576, 132.988)" />
   <path style="fill:#161413; fill-rule:nonzero;stroke:none;" d="M26.1 15.1 L25.25 16.55 L0 1.95 L0 0 L26.1 15.1 Z" transform="translate(739.5, 110.95)" />
   <path style="fill:#161413; fill-rule:evenodd;stroke:none;" d="M8.424 0 C3.408 0 0 3.696 0 9.168 C0 14.64 3.408 18.336 8.448 18.336 C10.56 18.336 12.456 17.688 13.872 16.488 C15.768 14.88 16.896 12.168 16.896 9.312 C16.896 3.672 13.56 0 8.424 0 Z M8.424 1.968 C12.216 1.968 14.664 4.848 14.664 9.264 C14.664 13.488 12.144 16.368 8.448 16.368 C4.728 16.368 2.232 13.488 2.232 9.168 C2.232 4.848 4.728 1.968 8.424 1.968 Z" transform="translate(696.662, 123.466)" />
   <path style="fill:#161413; fill-rule:nonzero;stroke:none;" d="M0.85 16.3 L0 14.85 L25.7 0 L25.7 1.95 L0.85 16.3 Z" transform="translate(713.8, 110.95)" />
   <path style="fill:none;stroke:#161413; stroke-width:1.35; stroke-linecap:butt; stroke-linejoin:miter; stroke-dasharray:none;" d="M12.1 6.05 C12.1 9.391 9.391 12.1 6.05 12.1 C2.709 12.1 0 9.391 0 6.05 C0 2.709 2.709 0 6.05 0 C9.391 0 12.1 2.709 12.1 6.05 Z" transform="translate(703, 110)" />
   <path style="fill:none;stroke:#161413; stroke-width:1.35; stroke-linecap:butt; stroke-linejoin:miter; stroke-dasharray:none;" d="M0 0 L6.05 0 " transform="translate(706.05, 116.05)" />
   <path style="fill:#161413; fill-rule:evenodd;stroke:none;" d="M2.232 9.96 L7.992 9.96 C9.984 9.96 10.872 10.9199 10.872 13.0801 L10.848 14.6397 C10.848 15.7197 11.04 16.7764 11.352 17.4961 L14.064 17.4961 L14.064 16.9443 C13.224 16.3682 13.056 15.7441 13.008 13.416 C12.984 10.5361 12.528 9.6719 10.632 8.8565 C12.6 7.8965 13.392 6.6719 13.392 4.6797 C13.392 1.6563 11.496 0 8.064 0 L0 0 L0 17.4961 L2.232 17.4961 L2.232 9.96 Z M2.232 7.9922 L2.232 1.9678 L7.632 1.9678 C8.88 1.9678 9.6 2.1602 10.152 2.6406 C10.752 3.1445 11.064 3.9365 11.064 4.9922 C11.064 7.0557 10.008 7.9922 7.632 7.9922 L2.232 7.9922 Z" transform="translate(847.732, 74.0039)" />
   <path style="fill:#161413; fill-rule:evenodd;stroke:none;" d="M2.826 3.6719 L2.826 12.7617 L4.41 12.7617 L4.41 0 L3.366 0 C2.808 1.9619 2.448 2.2314 0 2.5381 L0 3.6719 L2.826 3.6719 Z" transform="translate(864.836, 69.7383)" />
   <path style="fill:#161413; fill-rule:nonzero;stroke:none;" d="M20.35 0 L21.2 0.5 L21.2 1.5 L0.85 13.25 L0 11.75 L20.35 0 Z" transform="translate(872.65, 61.6504)" />
   <path style="fill:#161413; fill-rule:evenodd;stroke:none;" d="M8.424 0 C3.408 0 0 3.6963 0 9.168 C0 14.6406 3.408 18.336 8.448 18.336 C10.56 18.336 12.456 17.6885 13.872 16.4883 C15.768 14.8799 16.896 12.168 16.896 9.3125 C16.896 3.6719 13.56 0 8.424 0 Z M8.424 1.9678 C12.216 1.9678 14.664 4.8487 14.664 9.2647 C14.664 13.4883 12.144 16.3682 8.448 16.3682 C4.728 16.3682 2.232 13.4883 2.232 9.168 C2.232 4.8487 4.728 1.9678 8.424 1.9678 Z" transform="translate(885.412, 14.2158)" />
   <path style="fill:#161413; fill-rule:evenodd;stroke:none;" d="M11.232 9.5283 L11.232 17.4961 L13.464 17.4961 L13.464 0 L11.232 0 L11.232 7.5606 L2.232 7.5606 L2.232 0 L0 0 L0 17.4961 L2.256 17.4961 L2.256 9.5283 L11.232 9.5283 Z" transform="translate(905.242, 14.5039)" />
   <path style="fill:#161413; fill-rule:nonzero;stroke:none;" d="M0 0 L1.7 0 L1.7 27.2002 L0.85 27.7002 L0 27.2002 L0 0 Z" transform="translate(893, 34.4502)" />
   <path style="fill:#161413; fill-rule:evenodd;stroke:none;" d="M8.424 0 C3.408 0 0 3.6963 0 9.168 C0 14.6406 3.408 18.336 8.448 18.336 C10.56 18.336 12.456 17.6885 13.872 16.4883 C15.768 14.8799 16.896 12.168 16.896 9.3125 C16.896 3.6719 13.56 0 8.424 0 Z M8.424 1.9678 C12.216 1.9678 14.664 4.8487 14.664 9.2647 C14.664 13.4883 12.144 16.3682 8.448 16.3682 C4.728 16.3682 2.232 13.4883 2.232 9.168 C2.232 4.8487 4.728 1.9678 8.424 1.9678 Z" transform="translate(919.662, 73.7158)" />
   <path style="fill:#161413; fill-rule:nonzero;stroke:none;" d="M25.75 14.3496 L24.9 15.8496 L0 1.5 L0 0.5 L0.85 0 L25.75 14.3496 Z" transform="translate(893.85, 61.6504)" />
   <path style="fill:#161413; fill-rule:evenodd;stroke:none;" d="M2.232 9.96 L7.992 9.96 C9.984 9.96 10.872 10.9199 10.872 13.0801 L10.848 14.6397 C10.848 15.7197 11.04 16.7764 11.352 17.4961 L14.064 17.4961 L14.064 16.9443 C13.224 16.3682 13.056 15.7441 13.008 13.416 C12.984 10.5361 12.528 9.6719 10.632 8.8565 C12.6 7.8965 13.392 6.6719 13.392 4.6797 C13.392 1.6563 11.496 0 8.064 0 L0 0 L0 17.4961 L2.232 17.4961 L2.232 9.96 Z M2.232 7.9922 L2.232 1.9678 L7.632 1.9678 C8.88 1.9678 9.6 2.1602 10.152 2.6406 C10.752 3.1445 11.064 3.9365 11.064 4.9922 C11.064 7.0557 10.008 7.9922 7.632 7.9922 L2.232 7.9922 Z" transform="translate(955.232, 54.0039)" />
   <path style="fill:#161413; fill-rule:evenodd;stroke:none;" d="M8.496 11.1953 L1.782 11.1953 C1.944 10.1513 2.52 9.4853 4.086 8.5674 L5.886 7.5957 C7.668 6.624 8.586 5.3096 8.586 3.7441 C8.586 2.6816 8.154 1.6914 7.398 1.0078 C6.642 0.3242 5.706 0 4.5 0 C2.88 0 1.674 0.5762 0.972 1.6553 C0.522 2.3398 0.324 3.1318 0.288 4.4277 L1.872 4.4277 C1.926 3.5635 2.034 3.042 2.25 2.6279 C2.664 1.8535 3.492 1.3857 4.446 1.3857 C5.886 1.3857 6.966 2.4121 6.966 3.7793 C6.966 4.7881 6.372 5.6513 5.238 6.2998 L3.582 7.2353 C0.918 8.748 0.144 9.9541 0 12.7617 L8.496 12.7617 L8.496 11.1953 Z" transform="translate(971.112, 49.7383)" />
   <path style="fill:#161413; fill-rule:nonzero;stroke:none;" d="M14.05 0 L14.9 1.5 L0.85 9.5996 L0 8.0996 L14.05 0 Z" transform="translate(936.9, 67.9004)" />
   <path style="fill:none;stroke:#161413; stroke-width:1.35; stroke-linecap:butt; stroke-linejoin:miter; stroke-dasharray:none;" d="M12 6 C12 9.3135 9.313 12 6 12 C2.687 12 0 9.3135 0 6 C0 2.6865 2.687 0 6 0 C9.313 0 12 2.6865 12 6 Z" transform="translate(888.25, 66.5)" />
   <path style="fill:none;stroke:#161413; stroke-width:1.35; stroke-linecap:butt; stroke-linejoin:miter; stroke-dasharray:none;" d="M0 0 L6 0 " transform="translate(891.25, 72.5)" />
   <path style="fill:none;stroke:#161413; stroke-width:1.35; stroke-linecap:butt; stroke-linejoin:miter; stroke-dasharray:none;" d="M0 0 L0 6 " transform="translate(894.25, 69.5)" />
   <path style="fill:none;stroke:#161413; stroke-width:1.35; stroke-linecap:butt; stroke-linejoin:miter; stroke-dasharray:none;" d="M84.25 0 L0 0 " transform="translate(999, 52)" />
   <path style="fill:#161413; fill-rule:nonzero;stroke:none;" d="M17 4.3496 L0 0 C0 0 2.15 2.4492 2.15 4.3496 C2.15 6.25 0 8.6494 0 8.6494 L17 4.3496 " transform="translate(1081.05, 47.6504)" />
   <path style="fill:#161413; fill-rule:evenodd;stroke:none;" d="M16.98 0 L0 0 L0 2.1602 L16.98 2.1602 L16.98 0 Z" transform="translate(682.35, 83.6396)" />
   <path style="fill:#161413; fill-rule:evenodd;stroke:none;" d="M17.09 0 L0 0 L0 2.1749 L17.09 2.1749 L17.09 0 Z" transform="translate(1012.6, 75.3271)" />
   <path style="fill:#161413; fill-rule:evenodd;stroke:none;" d="M11.23 9.5283 L11.23 17.4961 L13.47 17.4961 L13.47 0 L11.23 0 L11.23 7.5606 L2.23 7.5606 L2.23 0 L0 0 L0 17.4961 L2.26 17.4961 L2.26 9.5283 L11.23 9.5283 Z" transform="translate(1038.49, 69.7539)" />
   <path style="fill:none;stroke:#161413; stroke-width:1.35; stroke-linecap:butt; stroke-linejoin:miter; stroke-dasharray:none;" d="M12.1 6.0498 C12.1 9.3906 9.39 12.0996 6.05 12.0996 C2.71 12.0996 0 9.3906 0 6.0498 C0 2.709 2.71 0 6.05 0 C9.39 0 12.1 2.709 12.1 6.0498 Z" transform="translate(1055.25, 62.5)" />
   <path style="fill:none;stroke:#161413; stroke-width:1.35; stroke-linecap:butt; stroke-linejoin:miter; stroke-dasharray:none;" d="M0 0 L6.05 0 " transform="translate(1058.3, 68.5498)" />
   <path style="fill:none;stroke:#161413; stroke-width:1.35; stroke-linecap:butt; stroke-linejoin:miter; stroke-dasharray:none;" d="M0 0 L0 6.0498 " transform="translate(1061.3, 65.5498)" />
   <path style="fill:#161413; fill-rule:evenodd;stroke:none;" d="M8.43 0 C3.41 0 0 3.6963 0 9.168 C0 14.6406 3.41 18.336 8.45 18.336 C10.56 18.336 12.46 17.6885 13.87 16.4883 C15.77 14.8799 16.9 12.168 16.9 9.3125 C16.9 3.6719 13.56 0 8.43 0 Z M8.43 1.9678 C12.22 1.9678 14.67 4.8487 14.67 9.2647 C14.67 13.4883 12.15 16.3682 8.45 16.3682 C4.73 16.3682 2.23 13.4883 2.23 9.168 C2.23 4.8487 4.73 1.9678 8.43 1.9678 Z" transform="translate(1156.41, 12.2158)" />
   <path style="fill:#161413; fill-rule:nonzero;stroke:none;" d="M1.7 29.4502 L0 29.4502 L0 0 L1.7 0 L1.7 29.4502 Z" transform="translate(1166.9, 32.4502)" />
   <path style="fill:#161413; fill-rule:nonzero;stroke:none;" d="M1.7 29.4502 L0 29.4502 L0 0 L1.7 0 L1.7 29.4502 Z" transform="translate(1160.9, 32.4502)" />
   <path style="fill:#161413; fill-rule:evenodd;stroke:none;" d="M2.23 9.96 L7.99 9.96 C9.99 9.96 10.87 10.9199 10.87 13.0801 L10.85 14.6397 C10.85 15.7197 11.04 16.7764 11.35 17.4961 L14.07 17.4961 L14.07 16.9443 C13.23 16.3682 13.06 15.7441 13.01 13.416 C12.99 10.5361 12.53 9.6719 10.63 8.8565 C12.6 7.8965 13.39 6.6719 13.39 4.6797 C13.39 1.6563 11.5 0 8.07 0 L0 0 L0 17.4961 L2.23 17.4961 L2.23 9.96 Z M2.23 7.9922 L2.23 1.9678 L7.63 1.9678 C8.88 1.9678 9.6 2.1602 10.15 2.6406 C10.75 3.1445 11.07 3.9365 11.07 4.9922 C11.07 7.0557 10.01 7.9922 7.63 7.9922 L2.23 7.9922 Z" transform="translate(1118.73, 72.0039)" />
   <path style="fill:#161413; fill-rule:evenodd;stroke:none;" d="M2.82 3.6719 L2.82 12.7617 L4.41 12.7617 L4.41 0 L3.36 0 C2.8 1.9619 2.44 2.2314 0 2.5381 L0 3.6719 L2.82 3.6719 Z" transform="translate(1135.59, 67.7383)" />
   <path style="fill:#161413; fill-rule:nonzero;stroke:none;" d="M0.85 13.7002 L0 12.25 L21.2 0 L21.2 1.9502 L0.85 13.7002 Z" transform="translate(1143.55, 59.2002)" />
   <path style="fill:#161413; fill-rule:evenodd;stroke:none;" d="M8.43 0 C3.41 0 0 3.6963 0 9.168 C0 14.6406 3.41 18.336 8.45 18.336 C10.56 18.336 12.46 17.6885 13.87 16.4883 C15.77 14.8799 16.9 12.168 16.9 9.3125 C16.9 3.6719 13.56 0 8.43 0 Z M8.43 1.9678 C12.22 1.9678 14.67 4.8487 14.67 9.2647 C14.67 13.4883 12.15 16.3682 8.45 16.3682 C4.73 16.3682 2.23 13.4883 2.23 9.168 C2.23 4.8487 4.73 1.9678 8.43 1.9678 Z" transform="translate(1190.66, 71.7158)" />
   <path style="fill:#161413; fill-rule:nonzero;stroke:none;" d="M25.7 14.8496 L24.85 16.2998 L0 1.9502 L0 0 L25.7 14.8496 Z" transform="translate(1164.75, 59.2002)" />
   <path style="fill:#161413; fill-rule:evenodd;stroke:none;" d="M2.23 9.96 L7.99 9.96 C9.99 9.96 10.87 10.9199 10.87 13.0801 L10.85 14.6397 C10.85 15.7197 11.04 16.7764 11.35 17.4961 L14.07 17.4961 L14.07 16.9443 C13.23 16.3682 13.06 15.7441 13.01 13.416 C12.99 10.5361 12.53 9.6719 10.63 8.8565 C12.6 7.8965 13.39 6.6719 13.39 4.6797 C13.39 1.6563 11.5 0 8.07 0 L0 0 L0 17.4961 L2.23 17.4961 L2.23 9.96 Z M2.23 7.9922 L2.23 1.9678 L7.63 1.9678 C8.88 1.9678 9.6 2.1602 10.15 2.6406 C10.75 3.1445 11.07 3.9365 11.07 4.9922 C11.07 7.0557 10.01 7.9922 7.63 7.9922 L2.23 7.9922 Z" transform="translate(1226.23, 52.2539)" />
   <path style="fill:#161413; fill-rule:evenodd;stroke:none;" d="M8.5 11.1953 L1.78 11.1953 C1.95 10.1513 2.52 9.4853 4.09 8.5674 L5.89 7.5957 C7.67 6.624 8.59 5.3096 8.59 3.7441 C8.59 2.6816 8.16 1.6914 7.4 1.0078 C6.64 0.3242 5.71 0 4.5 0 C2.88 0 1.68 0.5762 0.97 1.6553 C0.52 2.3398 0.33 3.1318 0.29 4.4277 L1.87 4.4277 C1.93 3.5635 2.04 3.042 2.25 2.6279 C2.67 1.8535 3.49 1.3857 4.45 1.3857 C5.89 1.3857 6.97 2.4121 6.97 3.7793 C6.97 4.7881 6.37 5.6513 5.24 6.2998 L3.58 7.2353 C0.92 8.748 0.15 9.9541 0 12.7617 L8.5 12.7617 L8.5 11.1953 Z" transform="translate(1241.86, 47.9883)" />
   <path style="fill:#161413; fill-rule:nonzero;stroke:none;" d="M14.1 0 L14.95 1.4502 L0.85 9.5498 L0 8.0996 L14.1 0 Z" transform="translate(1207.75, 65.9502)" />
   <path style="fill:none;stroke:#e20010; stroke-width:1.7; stroke-linecap:butt; stroke-linejoin:miter; stroke-dasharray:none;" d="M3.1 24.8008 C0.9 21.6504 0 17.7002 0.55 13.9004 C1.8 5.7002 9.5 0 17.7 1.25 C25.95 2.5 31.6 10.2002 30.4 18.4502 " transform="translate(528.75, 32.0996)" />
   <path style="fill:#e20010; fill-rule:nonzero;stroke:none;" d="M0 13.4004 L10.1 3.7002 C10.1 3.7002 7.55 4.0996 6.3 3.2998 C5 2.5 4.25 0 4.25 0 L0 13.4004 " transform="translate(552.85, 47.25)" />
  </g>
 </g>
</svg>
