<svg xmlns="http://www.w3.org/2000/svg" viewBox="0 0 550 580" xmlns:xlink="http://www.w3.org/1999/xlink">
 <style><![CDATA[
 path:hover {fill:none; stroke:black}
]]></style>
 <defs>
  <clipPath id="1">
   <path d="m-20-21h550v580h-550z"/>
   </clipPath>
  </defs>
 <path fill="#fff" fill-rule="evenodd" stroke-width="1" d="m0 0h550v580h-550z" id="0"/>
 <use xlink:href="#0"/>
 <g transform="translate(20 21)" clip-path="url(#1)" fill-rule="evenodd">
  <g fill="#e6e6e6"><title>label backgrounds</title>
   <path id="xer-back" d="m253.78 36.503c-11.758.062-23.494 1.013-35.11 2.846l-3.43-21.731c12.711-2.01 25.555-3.047 38.423-3.115"/>
   <path id="tung…" d="m216.26 39.742c-14.423 2.432-28.586 6.217-42.3 11.304l-7.651-20.627c15.01-5.567 30.508-9.709 46.29-12.37"/>
   <path d="m171.68 51.906c-9.133 3.498-18.04 7.567-26.66 12.183l-10.384-19.395c9.436-5.05 19.18-9.505 29.18-13.333"/>
   <path d="m142.88 65.25c-12.04 6.61-23.474 14.272-34.17 22.897l-13.813-17.12c11.701-9.438 24.21-17.824 37.39-25.06"/>
   <path d="m106.82 89.69c-11.593 9.554-22.24 20.21-31.778 31.81l-16.992-13.974c10.444-12.699 22.09-24.358 34.779-34.814"/>
   <path d="m73.5 123.39c-10.29 12.783-19.2 26.616-26.583 41.27l-19.648-9.899c8.08-16.04 17.833-31.18 29.09-45.17"/>
   <path d="m45.831 166.85c-8.364 17.04-14.614 35.04-18.61 53.605l-21.507-4.631c4.374-20.313 11.213-40.01 20.367-58.667"/>
   <path d="m26.72 222.84c-3.743 18.309-5.269 37-4.545 55.676l-21.984.851c-.791-20.437.879-40.895 4.974-60.933"/>
   <path d="m22.282 280.95c.675 13.72 2.562 27.353 5.639 40.74l-21.441 4.929c-3.367-14.652-5.433-29.572-6.172-44.587"/>
   <path d="m28.48 324.07c3.125 12.97 7.357 25.647 12.651 37.892l-20.19 8.731c-5.794-13.402-10.426-27.28-13.846-41.47"/>
   <path d="m42.11 364.2c7.998 17.981 18.242 34.875 30.487 50.28l-17.223 13.689c-13.401-16.86-24.612-35.35-33.365-55.03"/>
   <path d="m74.13 416.38c9.907 12.2 21.02 23.367 33.18 33.33l-13.946 17.01c-13.302-10.903-25.468-23.12-36.31-36.475"/>
   <path d="m109.2 451.25c14.577 11.694 30.508 21.591 47.45 29.48l-9.286 19.944c-18.541-8.633-35.976-19.466-51.93-32.26"/>
   <path d="m158.87 481.74c14.316 6.484 29.25 11.504 44.578 14.981l-4.868 21.455c-16.774-3.806-33.12-9.299-48.787-16.396"/>
   <path d="m205.82 497.25c16.33 3.526 32.992 5.285 49.698 5.247l.049 22c-18.283.041-36.518-1.884-54.39-5.743"/>
   <path id="severe" d="m258.66 36.529c51.618.811 101.5 18.741 141.83 50.976l13.737-17.18c-44.13-35.28-98.73-54.902-155.22-55.79"/>
   <path id="serious" d="m406.13 92.17c40.992 34.935 68.62 82.993 78.17 136l21.651-3.903c-10.458-58.01-40.689-110.61-85.55-148.84"/>
   <path d="m485.49 235.39c6.183 41.774.896 84.44-15.294 123.45l20.319 8.435c17.719-42.685 23.505-89.38 16.738-135.1"/>
   <path d="m467.28 365.55c-20.15 44.541-53.805 81.61-96.19 105.97l10.961 19.08c46.39-26.658 83.22-67.23 105.28-115.98"/>
   <path d="m364.69 475.07c-33.18 17.706-70.16 27.12-107.77 27.425l.181 21.999c41.16-.338 81.63-10.636 117.95-30.01"/>
   </g>
  <path fill="#f80" stroke="#f80" d="m143.07 470.43c-6.985-3.891-13.762-8.144-20.304-12.741q132.23-188.19 351.05-259.04c2.463 7.606 4.528 15.337 6.186 23.16q-225 47.692-336.93 248.62"/>
  <path fill="#cc0" stroke="#cc0" d="m194.18 491.31c-7.711-2.114-15.307-4.629-22.756-7.535q83.58-214.28 306.51-157.7c-1.967 7.75-4.336 15.393-7.099 22.896q-215.83-79.47-276.66 142.34"/>
  <path fill="#f00" stroke="#f00" d="m26.15 246.56c.778-7.762 1.95-15.479 3.512-23.12q225.34 46.06 291.75-174.15c7.468 2.253 14.817 4.883 22.02 7.882q-88.43 212.32-317.28 189.38"/>
  <path fill="#f80" stroke="#f80" d="m38.22 346.35c-2.346-6.617-4.387-13.338-6.118-20.14q222.9-56.706 428.93-158.95c3.121 6.289 5.952 12.717 8.485 19.264q-214.51 82.977-431.29 159.82"/>
  <path fill="#8a8" stroke="#8a8" d="m249.67 499.44c-6.335-.147-12.662-.556-18.965-1.225q24.298-228.71 154.96-39.435c-5.215 3.6-10.577 6.983-16.07 10.141q-114.6-199.42-119.93 30.519"/>
  <path fill="#f80" stroke="#f80" d="m27.703 304.65c-.924-5.974-1.613-11.982-2.063-18.01q229.36-17.14 426.69-135.29c3.106 5.187 6 10.493 8.692 15.908q-206.03 102.24-433.32 137.4"/>
  <path fill="#f00" stroke="#f00" d="m52.588 378.72c-2.778-5.148-5.358-10.4-7.736-15.745q210.15-93.48 306.61-302.27c5.311 2.454 10.526 5.109 15.634 7.96q-112.1 200.83-314.51 310.06"/>
  <path fill="#8a8" stroke="#8a8" d="m55.41 155.2c2.665-4.653 5.492-9.212 8.475-13.667q191.11 127.97 383.65 253.78c-2.933 4.489-6.02 8.874-9.262 13.147q-183.28-138.95-382.87-253.26"/>
  <path fill="#f00" stroke="#f00" d="m42.17 182.3c1.959-4.781 4.079-9.496 6.355-14.13q206.48 101.33 257.91-122.85c5.04 1.155 10.03 2.48 14.98 3.972q-66.41 220.2-279.24 133.01"/>
  <path fill="#cc0" stroke="#cc0" d="m63.746 397.26c-2.816-4.216-5.492-8.523-8.02-12.916q199.28-114.84 427.79-88.74c-.575 5.04-1.317 10.05-2.224 15.04q-226.29-41.14-417.54 86.61"/>
  <path fill="#f00" stroke="#f00" d="m97.75 101.66c3.558-3.333 7.22-6.552 10.982-9.652q146.27 177.49 179.02-50.16c4.825.694 9.627 1.542 14.398 2.541q-47.14 225.12-204.4 57.27"/>
  <path fill="#afa" stroke="#afa" d="m109.21 447.39c-3.771-3.091-7.442-6.3-11.01-9.623q156.8-168.26 187.85 59.63c-4.83.658-9.68 1.163-14.542 1.512q-16.501-229.41-162.29-51.52"/>
  <path fill="#f00" stroke="#f00" d="m122.77 457.69c-3.989-2.802-7.887-5.731-11.69-8.781q143.92-179.4 258.56-378.8c4.226 2.429 8.374 4.993 12.437 7.686q-127.08 191.71-259.31 379.89"/>
  <g fill="#8a8" stroke="#8a8">
   <path d="m71.36 407.99c-2.641-3.503-5.182-7.081-7.619-10.729q191.25-127.76 351.29 37.439c-3.151 3.052-6.389 6.01-9.709 8.882q-150.32-174.08-333.96-35.592"/>
   <path d="m98.2 437.76c-3.21-2.991-6.333-6.073-9.366-9.243q166.17-159.02 316.49 15.06c-3.321 2.867-6.722 5.639-10.202 8.312q-140.12-182.39-296.92-14.12"/>
   </g>
  <g fill="#f80" stroke="#f80">
   <path d="m193.37 47.912c3.945-1.097 7.919-2.089 11.917-2.974q49.718 224.56 205.9 55.723c3.01 2.781 5.937 5.641 8.79 8.578q-164.97 160.26-226.61-61.33"/>
   <path d="m126.35 78.84c3.394-2.29 6.849-4.489 10.361-6.595q118.29 197.25 287.68 41.667c2.77 3.02 5.459 6.104 8.06 9.264q-177.46 146.32-306.11-44.34"/>
   <path d="m89.01 110.29c2.834-2.956 5.747-5.835 8.735-8.634q157.25 167.84 334.71 21.523c2.605 3.159 5.125 6.387 7.558 9.681q-185.01 136.64-351-22.57"/>
   </g>
  <path fill="#afa" stroke="#afa" d="m49.597 166.01c1.842-3.657 3.782-7.264 5.817-10.817q199.59 114.3 279.34 330.03c-3.84 1.42-7.718 2.737-11.629 3.95q-68.12-219.68-273.52-323.17"/>
  <path fill="#f80" stroke="#f80" d="m37.818 193.79c1.348-3.866 2.799-7.696 4.351-11.485q212.83 87.2 401.59-44.21c2.34 3.361 4.589 6.783 6.746 10.264q-195.51 121.15-412.69 45.43"/>
  <path fill="#f00" stroke="#f00" d="m205.28 44.938c3.807-.843 7.635-1.589 11.481-2.237q38.24 226.8 47.696-3.01c3.897.16 7.788.419 11.672.778q-21.13 229.03-70.849 4.465"/>
  <g fill="#afa" stroke="#afa">
   <path d="m30.15 221.08c.82-3.812 1.738-7.603 2.752-11.368q222.09 59.784 290.21 279.46c-3.725 1.155-7.478 2.215-11.257 3.179q-56.864-222.86-281.71-271.28"/>
   <path d="m25.17 278.4c-.151-3.897-.202-7.797-.155-11.696q229.98 2.795 286.85 225.66c-3.779.964-7.581 1.832-11.404 2.603q-45.46-225.46-275.29-216.56"/>
   </g>
  <path fill="#f00" stroke="#f00" d="m217.95 496.5c-3.849-.628-7.681-1.354-11.493-2.177q48.542-224.82 182.84-411.54c3.166 2.277 6.274 4.634 9.32 7.07q-143.62 179.65-180.66 406.65"/>
  <g fill="#8a8" stroke="#8a8">
   <path d="m112.88 88.66c2.682-2.108 5.412-4.157 8.186-6.144q133.93 186.98 335.93 296.98c-1.632 2.996-3.331 5.956-5.094 8.877q-196.9-118.87-339.02-299.71"/>
   <path d="m32.906 209.72c.887-3.295 1.847-6.57 2.88-9.822q219.21 69.61 402.5 208.56c-2.061 2.719-4.183 5.392-6.363 8.02q-176.92-146.97-399.01-206.75"/>
   <path d="m25.02 266.7c.041-3.412.159-6.823.352-10.23q229.63 13.02 406.55 159.99c-2.181 2.625-4.419 5.2-6.714 7.725q-170.2-154.69-400.19-157.49"/>
   <path d="m42.741 358.08c-1.314-3.149-2.558-6.327-3.73-9.531q215.99-79.05 383.21 78.864c-2.342 2.481-4.74 4.91-7.191 7.284q-160.03-165.2-372.29-76.62"/>
   </g>
  <path fill="#afa" stroke="#afa" d="m175.01 53.859c3.02-1.119 6.05-2.175 9.116-3.166q70.876 218.81 171.33 425.71c-2.894 1.405-5.817 2.749-8.768 4.03q-91.69-210.93-171.68-426.58"/>
  <path fill="#f80" stroke="#f80" d="m238.6 40.09c3.111-.222 6.227-.381 9.346-.477q7.05 229.89 156.24 54.84c2.374 2.023 4.707 4.095 6.997 6.213q-156.18 168.84-172.58-60.58"/>
  <g fill="#cc0" stroke="#cc0">
   <path d="m155.57 62.1c2.813-1.349 5.653-2.64 8.518-3.873q90.92 211.27 319.46 185.42c.351 3.1.638 6.206.862 9.318q-229.4 16.527-328.84-190.87"/>
   <path d="m63.889 141.53c1.736-2.593 3.524-5.149 5.364-7.669q185.75 135.64 415.7 130.8c.066 3.119.068 6.239.007 9.358q-229.96-4.516-421.07-132.49"/>
   <path d="m88.83 428.52c-2.157-2.254-4.268-4.551-6.332-6.891q172.5-152.13 398.79-110.99c-.558 3.07-1.178 6.127-1.861 9.171q-224.43-50.31-390.6 108.71"/>
   <path d="m230.7 498.21c-3.102-.33-6.197-.722-9.283-1.178q33.581-227.54 249.42-148.07c-1.078 2.927-2.215 5.833-3.411 8.714q-212.42-88.18-236.72 140.53"/>
   </g>
  <path fill="#afa" stroke="#afa" d="m219.14 42.31c2.889-.456 5.786-.857 8.69-1.203q27.17 228.39 135.44 431.31c-2.581 1.377-5.187 2.704-7.818 3.982q-100.46-206.9-136.32-434.09"/>
  <g fill="#f00" stroke="#f00">
   <path d="m136.71 72.25c2.508-1.504 5.04-2.961 7.609-4.368q110.68 201.62 134.72-27.12c2.909.306 5.811.667 8.706 1.083q-32.747 227.66-151.04 30.407"/>
   <path d="m168.16 482.48c-2.708-1.104-5.395-2.26-8.06-3.467q94.9-209.51 221.97-401.22c2.437 1.616 4.844 3.278 7.218 4.986q-134.3 186.72-221.13 399.7"/>
   </g>
  <g fill="#8a8" stroke="#8a8">
   <path d="m79.987 120.27c1.771-2.077 3.579-4.122 5.423-6.135q169.59 155.37 366.49 274.24c-1.411 2.337-2.863 4.649-4.356 6.934q-192.54-125.81-367.56-275.04"/>
   <path d="m227.83 41.11c2.421-.288 4.845-.537 7.273-.748q19.897 229.14 229.45 323.95c-1 2.22-2.044 4.425-3.119 6.612q-206.43-101.42-233.6-329.81"/>
   <path d="m201.26 493.13c-2.37-.569-4.731-1.176-7.081-1.821q60.822-221.81 197.44-36.783c-1.96 1.448-3.944 2.864-5.95 4.249q-130.67-189.28-184.41 34.35"/>
   </g>
  <path fill="#f80" stroke="#f80" d="m164.08 58.23c1.971-.848 3.952-1.668 5.945-2.461q84.971 213.73 249.94 53.47c1.495 1.539 2.968 3.098 4.418 4.678q-169.39 155.58-260.31-55.685"/>
  <path fill="#cc0" stroke="#cc0" d="m121.07 82.52c1.743-1.249 3.504-2.473 5.282-3.673q128.65 190.66 358.05 174.13c.155 2.139.279 4.281.373 6.423q-229.78 10.1-363.71-176.88"/>
  <path fill="#f80" stroke="#f80" d="m69.25 133.86c1.265-1.732 2.554-3.446 3.867-5.142q181.88 140.78 366.89 4.144c1.274 1.725 2.524 3.468 3.749 5.228q-188.76 131.41-374.51-4.23"/>
  <g fill="#cc0" stroke="#cc0">
   <path d="m35.786 199.89c.649-2.044 1.326-4.079 2.032-6.105q217.18 75.71 447.14 80.23c-.042 2.144-.115 4.288-.217 6.43q-229.74-10.946-448.95-80.55"/>
   <path d="m25.369 256.48c.122-2.141.273-4.28.454-6.418q229.18 19.443 458.92 30.389c-.102 2.142-.234 4.283-.396 6.422q-229.34-17.368-458.97-30.393"/>
   <path d="m28.775 311c-.387-2.11-.745-4.225-1.072-6.344q227.3-35.15 456.64-17.787c-.162 2.138-.353 4.275-.575 6.408q-228.77-23.776-454.99 17.723"/>
   </g>
  <g fill="#f80" stroke="#f80">
   <path d="m55.722 384.34c-1.07-1.858-2.115-3.731-3.134-5.619q202.41-109.22 416.92-192.2c.774 2 1.519 4.01 2.237 6.03q-216.75 76.944-416.03 191.78"/>
   <path d="m82.5 421.63c-1.418-1.608-2.814-3.237-4.187-4.884q176.69-147.25 393.44-224.19c.717 2.02 1.406 4.052 2.067 6.093q-218.81 70.851-391.31 222.98"/>
   </g>
  <path fill="#cc0" stroke="#cc0" d="m148.73 473.48c-1.902-.991-3.79-2.01-5.664-3.052q111.93-200.93 336.36-150.61c-.469 2.093-.967 4.179-1.495 6.258q-222.93-56.57-329.2 147.41"/>
  <path fill="#f00" stroke="#f00" d="m247.95 39.608c1.948-.06 3.898-.095 5.848-.105q1.204 230 4.817.025c1.949.031 3.898.086 5.846.167q-9.459 229.81-16.511-.087"/>
  <path fill="#afa" stroke="#afa" d="m146.44 66.734c1.719-.92 3.449-1.819 5.191-2.695q103.37 205.46 195.06 416.4c-1.788.777-3.586 1.532-5.393 2.263q-86.3-213.2-194.86-415.96"/>
  <path fill="#f00" stroke="#f00" d="m25.64 286.64c-.145-1.945-.266-3.891-.362-5.838q229.72-11.307 318.15-223.63c1.8.75 3.59 1.523 5.371 2.318q-93.8 210-323.16 227.15"/>
  <g fill="#afa" stroke="#afa">
   <path d="m30.845 321.02c-.437-1.9-.849-3.805-1.238-5.716q225.39-45.806 270.85 179.66c-1.911.385-3.827.746-5.748 1.083q-39.712-226.55-263.87-175.02"/>
   <path d="m74.946 412.61c-1.213-1.526-2.407-3.068-3.581-4.624q183.63-138.49 220.46 88.55c-1.924.313-3.853.6-5.785.863q-31.04-227.89-211.1-84.78"/>
   <path d="m157.91 478c-1.767-.823-3.524-1.668-5.27-2.536q102.36-205.97 118.86 23.438c-1.944.14-3.891.255-5.839.346q-10.662-229.75-107.75-21.248"/>
   <path d="m255.52 499.5c-1.95.005-3.899-.016-5.849-.061q5.333-229.94 13.07-.068c-1.948.065-3.898.106-5.848.122q-1.892-229.99-1.376.007"/>
   </g>
  <path fill="#8a8" stroke="#8a8" d="m184.12 50.693c1.669-.541 3.345-1.063 5.03-1.565q65.85 220.37 272.28 321.8c-.774 1.575-1.566 3.141-2.375 4.698q-204.06-106.12-274.93-324.93"/>
  <g fill="#cc0" stroke="#cc0">
   <path d="m85.41 114.13c1.185-1.294 2.385-2.574 3.6-3.84q165.99 159.21 395.77 149.1c.077 1.753.134 3.507.171 5.262q-229.95 4.842-399.54-150.53"/>
   <path d="m189.15 49.13c1.401-.419 2.806-.824 4.215-1.216q61.63 221.59 289.64 191.39c.192 1.449.37 2.901.534 4.354q-228.54 25.845-294.39-194.53"/>
   </g>
  <path fill="#8a8" stroke="#8a8" d="m151.63 64.04c1.306-.657 2.619-1.302 3.938-1.934q99.43 207.4 303.49 313.52c-.675 1.297-1.362 2.588-2.061 3.873q-201.99-109.99-305.37-315.46"/>
  <path fill="#f00" stroke="#f00" d="m73.12 128.72c.895-1.156 1.801-2.304 2.718-3.443q179.16 144.22 226.31-80.891c1.432.3 2.86.613 4.285.94q-51.43 224.18-233.31 83.39"/>
  <g fill="#8a8" stroke="#8a8">
   <path d="m29.607 315.31c-.291-1.433-.568-2.869-.832-4.307q226.22-41.499 396.43 113.19c-.984 1.083-1.978 2.155-2.982 3.218q-167.22-157.91-392.62-112.11"/>
   <path d="m152.64 475.47c-1.31-.651-2.613-1.314-3.91-1.99q106.27-203.98 246.39-21.589c-1.159.89-2.327 1.77-3.504 2.639q-136.62-185.03-238.97 20.94"/>
   </g>
  <path fill="#afa" stroke="#afa" d="m77.36 123.41c.867-1.054 1.743-2.1 2.629-3.139q175.01 149.23 258.59 363.51c-1.272.496-2.548.981-3.828 1.454q-79.75-215.73-257.39-361.82"/>
  <path fill="#cc0" stroke="#cc0" d="m235.1 40.36c1.166-.101 2.332-.193 3.499-.277q16.398 229.41 243.92 195.74c.172 1.157.334 2.316.488 3.476q-228.01 30.2-247.91-198.94"/>
  <g fill="#f80" stroke="#f80">
   <path d="m25.823 250.06c.099-1.165.207-2.33.324-3.494q228.85 22.937 424.36-98.21c.616.994 1.224 1.993 1.825 2.997q-197.33 118.15-426.51 98.71"/>
   <path d="m171.42 483.78c-1.09-.425-2.176-.858-3.26-1.3q86.84-212.98 311.84-260.67c.243 1.144.476 2.29.701 3.438q-225.7 44.25-309.28 258.53"/>
   <path d="m221.42 497.04c-1.158-.171-2.314-.35-3.468-.539q37.05-227 262.75-271.25c.226 1.148.442 2.298.649 3.449q-226.35 40.805-259.93 268.34"/>
   </g>
  <path fill="#f00" stroke="#f00" d="m170.03 55.771c.906-.36 1.814-.714 2.725-1.063q82.25 214.79 103.38-14.235c.97.089 1.941.185 2.91.287q-24.04 228.74-109.01 15.01"/>
  <path fill="#afa" stroke="#afa" d="m110.59 90.48c.758-.612 1.521-1.22 2.288-1.822q142.12 180.84 228.41 394.03c-.904.366-1.81.726-2.718 1.08q-83.58-214.28-227.98-393.29"/>
  <path fill="#f00" stroke="#f00" d="m32.1 326.21c-.24-.945-.475-1.891-.703-2.839q223.6-53.867 317.4-263.87c.89.397 1.777.801 2.662 1.209q-96.46 208.8-319.36 265.5"/>
  <path fill="#afa" stroke="#afa" d="m43.885 360.77c-.387-.895-.768-1.792-1.144-2.692q212.26-88.58 251.97 137.97c-.96.168-1.921.33-2.884.486q-36.828-227.03-247.94-135.76"/>
  <path fill="#f00" stroke="#f00" d="m78.31 416.75c-.625-.749-1.244-1.502-1.858-2.259q178.55-144.99 290.64-345.82c.851.475 1.7.956 2.545 1.442q-114.64 199.39-291.33 346.64"/>
  <path fill="#afa" stroke="#afa" d="m204.11 493.8c-.951-.216-1.9-.438-2.848-.666q53.741-223.63 64.4 6.12c-.973.045-1.948.084-2.922.117q-7.74-229.87-58.63-5.571"/>
  <path fill="#cc0" stroke="#cc0" d="m39.01 348.55c-.268-.732-.533-1.466-.793-2.201q216.78-76.847 445.55-53.07c-.081.775-.165 1.551-.254 2.326q-228.51-26.1-444.5 52.946"/>
  <g font-family="Arial,SanSerif" text-anchor="middle" kerning="0" text-rendering="auto" font-size="14">
   <text x="235.11" y="28.745"  transform="matrix(.99673-.08081.08081.99673-1.179 19.08)">xer...
    </text>
   <text x="191.44" y="36.29"  transform="matrix(.9661-.25816.25816.9661-1.68 50.5)">tung...
    </text>
   <text x="152.67" y="50.21"  transform="matrix(.90954-.41563.41563.90954-5.13 67.58)">word
    </text>
   <text x="117.94" y="69.62"  transform="matrix(.83071-.55671.55671.83071-16.209 76.66)">spider
    </text>
   <text x="80.82" y="100.14"  transform="matrix(.70675-.70746.70746.70675-43.86 85.18)">12.0
    </text>
   <text x="48.02" y="140.82"  transform="matrix(.54152-.84069.84069.54152-92.47 102.81)">13.0J
    </text>
   <text x="22.418" y="193.39"  transform="matrix(.32798-.94469.94469.32798-163.25 148.02)">13.0G
    </text>
   <text x="9.616" y="254.11"  transform="matrix(.08136-.99668.99668.08136-239.81 238.75)">11.0
    </text>
   <text x="11.126" y="307.9"  transform="matrix(-.13712-.99055.99055-.13712-287.74 355.86)">11.5
    </text>
   <text x="21.472" y="352.11"  transform="matrix(-.31668-.94853.94853-.31668-301.31 477.87)">12.0.2
    </text>
   <text x="44.47" y="401.79"  transform="matrix(-.51846-.8551.8551-.51846-272.07 641.08)">11.0.1
    </text>
   <text x="80.52" y="447.83"  transform="matrix(-.70551-.7087.7087-.70551-176.77 812.93)">10.1.3
    </text>
   <text x="125.07" y="483.26"  transform="matrix(-.84941-.52774.52774-.84941-21.282 951.17)">11.5.1
    </text>
   <text x="176.57" y="507.51"  transform="matrix(-.9479-.31856.31856-.9479 183.74 1035.8)">11.5P
    </text>
   <text x="229.15" y="518.98"  transform="matrix(-.99447-.10501.10501-.99447 403.02 1049.9)">12.0CT
    </text>
   <text x="338.27" y="42.45"  transform="matrix(.94106.33824-.33824.94106 32.727-112.19)">Severe
    </text>
   <text x="468.45" y="151.45"  transform="matrix(.49834.86698-.86698.49834 362.29-332.49)">Serious
    </text>
   <text x="499.33" y="304.41"  transform="matrix(-.12296.99241-.99241-.12296 858.22-158.91)">Moderate
    </text>
   <text x="437.3" y="439.61"  transform="matrix(-.67211.74045-.74045-.67211 1053.29 403.53)">Mild
    </text>
   <text x="315.72" y="512.74"  transform="matrix(-.96911.24662-.24662-.96911 746.99 922.64)">Annoying
    </text>
   </g>
  </g>
 <circle r="230" cx="275" cy="290" style="fill:none; stroke: red; stroke-width: 1; stroke-dasharray: .1 .70285"/>
 <circle r="230" cx="275" cy="290" style="fill:none; stroke: black; stroke-width: 4; stroke-dasharray: .11426 3.9"/>
 <circle r="230" cx="275" cy="290" style="fill:none; stroke: black; stroke-width: 8; stroke-dasharray: .11426 23.9713"/>
 </svg>
