<svg xmlns="http://www.w3.org/2000/svg" viewBox="0 0 700 700">
 <defs>
  <clipPath id="0">
   <path d="m-10-11h700v700h-700z"/>
   </clipPath>
  <clipPath id="1">
   <path d="m-10-11h700v700h-700z"/>
   </clipPath>
  </defs>
 <g fill-rule="evenodd">
  <g stroke-width="1">
   <path fill="#aaa" d="m0 0h700v700h-700z"/>
   <path fill="#fff" d="m0 0h700v700h-700z"/>
   </g>
  <g transform="translate(10 11)" clip-path="url(#0)">
   <path fill="#0089ce" d="m263.56 0h120v60h-120z"/>
   <g fill="#7cbc4a">
    <path d="m12.434 108.56h60v30h-60z"/>
    <path d="m102.96 108.56h60v30h-60z"/>
    <path d="m24.434 187.51h36v18h-36z"/>
    <path d="m426.52 108.56h60v30h-60z"/>
    <path d="m517.04 108.56h60v30h-60z"/>
    <path d="m607.57 108.56h60v30h-60z"/>
    </g>
   <g fill="#d8c625">
    <path d="m12.434 254.62h60v30h-60z"/>
    <path d="m102.96 254.62h60v30h-60z"/>
    <path d="m193.48 254.62h60v30h-60z"/>
    <path d="m284.01 254.62h60v30h-60z"/>
    <path d="m374.54 254.62h60v30h-60z"/>
    <path d="m465.06 254.62h60v30h-60z"/>
    </g>
   <g fill="#d6332f">
    <path d="m480.06 339.5h36v18h-36z"/>
    <path d="m480.06 424.37h36v18h-36z"/>
    <path d="m480.06 509.25h36v18h-36z"/>
    <path d="m480.06 594.12h36v18h-36z"/>
    <path d="m480.06 661.24h36v18h-36z"/>
    </g>
   <g fill="#f79428">
    <path d="m576.18 254.62h72v36h-72z"/>
    <path d="m576.18 339.5h72v36h-72z"/>
    <path d="m576.18 424.37h72v36h-72z"/>
    <path d="m576.18 509.25h72v36h-72z"/>
    </g>
   <g fill="#d6332f">
    <path d="m27.434 339.5h36v18h-36z"/>
    <path d="m27.434 424.37h36v18h-36z"/>
    <path d="m27.434 509.25h36v18h-36z"/>
    <path d="m117.96 339.5h36v18h-36z"/>
    <path d="m117.96 424.37h36v18h-36z"/>
    <path d="m208.48 339.5h36v18h-36z"/>
    <path d="m208.48 424.37h36v18h-36z"/>
    <path d="m208.48 509.25h36v18h-36z"/>
    <path d="m208.48 594.12h36v18h-36z"/>
    <path d="m299.01 339.5h36v18h-36z"/>
    <path d="m299.01 424.37h36v18h-36z"/>
    <path d="m389.54 339.5h36v18h-36z"/>
    <path d="m389.54 424.37h36v18h-36z"/>
    <path d="m389.54 509.25h36v18h-36z"/>
    </g>
   </g>
  </g>
 <g transform="translate(10 11)" clip-path="url(#1)" fill="none" stroke="#000" fill-opacity="0">
  <path path="M263.557,30L87.696,30L87.696,90.351L87.696,99.456L42.434,99.456L42.434,108.561" d="m263.56 30h-175.86v60.35 9.105h-45.26v9.105" dojoGfxStrokeStyle="solid"/>
  <path path="M263.557,30L87.696,30L87.696,90.351L87.696,99.456L132.959,99.456L132.959,108.561" d="m263.56 30h-175.86v60.35 9.105h45.26v9.105" dojoGfxStrokeStyle="solid"/>
  <path path="M42.434,138.561L42.434,169.157L42.434,187.515" d="m42.43 138.56v30.596 18.358" dojoGfxStrokeStyle="solid"/>
  <g stroke-dasharray="4 3">
   <path path="M383.557,30L547.041,30L547.041,90.351L547.041,99.456L456.516,99.456L456.516,108.561" d="m383.56 30h163.48v60.35 9.105h-90.53v9.105" dojoGfxStrokeStyle="Dash"/>
   <path path="M383.557,30L547.041,30L547.041,90.351L547.041,108.561" d="m383.56 30h163.48v60.35 18.21" dojoGfxStrokeStyle="Dash"/>
   <path path="M383.557,30L547.041,30L547.041,90.351L547.041,99.456L637.566,99.456L637.566,108.561" d="m383.56 30h163.48v60.35 9.105h90.52v9.105" dojoGfxStrokeStyle="Dash"/>
   </g>
  <path path="M323.557,60L323.557,229.459L323.557,242.042L268.747,242.042L268.747,245.188L268.747,249.906L42.434,249.906L42.434,254.625" d="m323.56 60v169.46 12.583h-54.81v3.146 4.718h-226.31v4.719" dojoGfxStrokeStyle="solid"/>
  <path path="M323.557,60L323.557,229.459L323.557,242.042L268.747,242.042L268.747,245.188L268.747,249.906L132.959,249.906L132.959,254.625" d="m323.56 60v169.46 12.583h-54.81v3.146 4.718h-135.79v4.719" dojoGfxStrokeStyle="solid"/>
  <path path="M323.557,60L323.557,229.459L323.557,242.042L268.747,242.042L268.747,245.188L268.747,249.906L223.484,249.906L223.484,254.625" d="m323.56 60v169.46 12.583h-54.81v3.146 4.718h-45.26v4.719" dojoGfxStrokeStyle="solid"/>
  <path path="M323.557,60L323.557,229.459L323.557,242.042L268.747,242.042L268.747,245.188L268.747,249.906L314.009,249.906L314.009,254.625" d="m323.56 60v169.46 12.583h-54.81v3.146 4.718h45.26v4.719" dojoGfxStrokeStyle="solid"/>
  <path path="M323.557,60L323.557,229.459L323.557,242.042L268.747,242.042L268.747,245.188L268.747,249.906L404.535,249.906L404.535,254.625" d="m323.56 60v169.46 12.583h-54.81v3.146 4.718h135.79v4.719" dojoGfxStrokeStyle="solid"/>
  <path path="M323.557,60L323.557,229.459L323.557,242.042L268.747,242.042L268.747,245.188L268.747,249.906L495.06,249.906L495.06,254.625" d="m323.56 60v169.46 12.583h-54.81v3.146 4.718h226.31v4.719" dojoGfxStrokeStyle="solid"/>
  <path path="M475.06,284.625L475.06,339.5L475.06,348.5L480.06,348.5" d="m475.06 284.62v54.875 9h5" dojoGfxStrokeStyle="solid"/>
  <path path="M475.06,284.625L475.06,339.5L475.06,433.375L480.06,433.375" d="m475.06 284.62v54.875 93.87h5" dojoGfxStrokeStyle="solid"/>
  <path path="M475.06,284.625L475.06,339.5L475.06,518.25L480.06,518.25" d="m475.06 284.62v54.875 178.75h5" dojoGfxStrokeStyle="solid"/>
  <path path="M475.06,284.625L475.06,339.5L475.06,603.125L480.06,603.125" d="m475.06 284.62v54.875 263.62h5" dojoGfxStrokeStyle="solid"/>
  <path path="M475.06,284.625L475.06,339.5L475.06,670.235L480.06,670.235" d="m475.06 284.62v54.875 330.74h5" dojoGfxStrokeStyle="solid"/>
  <path path="M323.557,60L323.557,229.459L323.557,242.042L546.687,242.042L546.687,254.625L546.687,272.625L576.18,272.625" d="m323.56 60v169.46 12.583h223.13v12.583 18h29.493" dojoGfxStrokeStyle="solid"/>
  <path path="M323.557,60L323.557,229.459L323.557,242.042L546.687,242.042L546.687,254.625L546.687,357.5L576.18,357.5" d="m323.56 60v169.46 12.583h223.13v12.583 102.87h29.493" dojoGfxStrokeStyle="solid"/>
  <path path="M323.557,60L323.557,229.459L323.557,242.042L546.687,242.042L546.687,254.625L546.687,442.375L576.18,442.375" d="m323.56 60v169.46 12.583h223.13v12.583 187.75h29.493" dojoGfxStrokeStyle="solid"/>
  <path path="M323.557,60L323.557,229.459L323.557,242.042L546.687,242.042L546.687,254.625L546.687,527.25L576.18,527.25" d="m323.56 60v169.46 12.583h223.13v12.583 272.62h29.493" dojoGfxStrokeStyle="solid"/>
  <path path="M22.434,284.625L22.434,339.5L22.434,348.5L27.434,348.5" d="m22.434 284.62v54.875 9h5" dojoGfxStrokeStyle="solid"/>
  <path path="M22.434,284.625L22.434,339.5L22.434,433.375L27.434,433.375" d="m22.434 284.62v54.875 93.87h5" dojoGfxStrokeStyle="solid"/>
  <path path="M22.434,284.625L22.434,339.5L22.434,518.25L27.434,518.25" d="m22.434 284.62v54.875 178.75h5" dojoGfxStrokeStyle="solid"/>
  <path path="M112.959,284.625L112.959,339.5L112.959,348.5L117.959,348.5" d="m112.96 284.62v54.875 9h5" dojoGfxStrokeStyle="solid"/>
  <path path="M112.959,284.625L112.959,339.5L112.959,433.375L117.959,433.375" d="m112.96 284.62v54.875 93.87h5" dojoGfxStrokeStyle="solid"/>
  <path path="M203.484,284.625L203.484,339.5L203.484,348.5L208.484,348.5" d="m203.48 284.62v54.875 9h5" dojoGfxStrokeStyle="solid"/>
  <path path="M203.484,284.625L203.484,339.5L203.484,433.375L208.484,433.375" d="m203.48 284.62v54.875 93.87h5" dojoGfxStrokeStyle="solid"/>
  <path path="M203.484,284.625L203.484,339.5L203.484,518.25L208.484,518.25" d="m203.48 284.62v54.875 178.75h5" dojoGfxStrokeStyle="solid"/>
  <path path="M203.484,284.625L203.484,339.5L203.484,603.125L208.484,603.125" d="m203.48 284.62v54.875 263.62h5" dojoGfxStrokeStyle="solid"/>
  <path path="M294.009,284.625L294.009,339.5L294.009,348.5L299.009,348.5" d="m294.01 284.62v54.875 9h5" dojoGfxStrokeStyle="solid"/>
  <path path="M294.009,284.625L294.009,339.5L294.009,433.375L299.009,433.375" d="m294.01 284.62v54.875 93.87h5" dojoGfxStrokeStyle="solid"/>
  <path path="M384.535,284.625L384.535,339.5L384.535,348.5L389.535,348.5" d="m384.54 284.62v54.875 9h5" dojoGfxStrokeStyle="solid"/>
  <path path="M384.535,284.625L384.535,339.5L384.535,433.375L389.535,433.375" d="m384.54 284.62v54.875 93.87h5" dojoGfxStrokeStyle="solid"/>
  <path path="M384.535,284.625L384.535,339.5L384.535,518.25L389.535,518.25" d="m384.54 284.62v54.875 178.75h5" dojoGfxStrokeStyle="solid"/>
  </g>
 </svg>
