<?xml version="1.0" standalone="no"?> 
<!DOCTYPE svg PUBLIC "-//W3C//DTD SVG 1.1//EN"
	"http://www.w3.org/Graphics/SVG/1.1/DTD/svg11.dtd">
<?xml-stylesheet href="svg-ig.css" type="text/css"?>
<svg version="1.1" xmlns="http://www.w3.org/2000/svg"
	xmlns:xlink="http://www.w3.org/1999/xlink"
	viewBox="-400 -400 20800 20800" preserveAspectRatio="xMidYMid" xml:space="preserve"
	zoomAndPan="magnify" onload="diagramOnLoad(evt)" >
<desc>
Document converted from CGM binary with Boeing SVGBuilder.
For info on tool contact Boeing Information Technology - Thomas Smailus
SVGBuilder v. 2015.04.16.3977
The SVG graphic data remains the property of the owner of the input CGM graphic.

** Release Build - this graphic was created from a CGM diagram and may be enhanced with Boeing Intelligent Graphics technology **

Source CGM Description: "ProfileId:ATA GRAPHICS.GREXCHANGE""ProfileEd:2.4""ColourClass:colour""Source:NIST/ITL""Date:19980930"
Source CGM Metafile Version: 1
CGM Profile: ATA GRAPHICS.GREXCHANGE

Notice: Stroke-width was lower bounded to 0.06% of the max(CGM VDC Extents width and height), which is 12 VDC.
	Thinner CGM edges and lines were set to this stroke-width.
</desc>

<BIGPedigree>BIGpedigree:SVGBuilder_v2015.04.16.3977</BIGPedigree>

<CgmMetaData id="CgmMetaData" ScaleMode="metric" ScaleFactor="3.54729173355503" ScaleFactorUnits="VDC's per mm" VDCExtents="(0,0)(20000,20000)" />

<defs id="ig_defs" >
<style type="text/css" >
	<![CDATA[
	@media screen {.print-only { visibility: hidden;}}
	@media print  {.print-only { visibility: visible;}}
	.hs-activecgm-off { stroke: black; }
	]]>
</style>
</defs>

<text id="StyleSheetTester" class="stylesheettester" />

<!-- Numerical output to beyond here is formatted to the VDC stream precision; some above this line is selectively formatted -->
<rect id='backgroundColor' x='-416400' y='-416400' width='852800' height='852800' fill='rgb(255,255,255)' />

<rect id='mouseCapRect' x='-416400' y='-416400' width='852800' height='852800' fill='green' opacity='0' />

<!-- scripts that drive the core SVG-IG viewer behavior -->
<script xlink:href="BIGcore.js" type="text/ecmascript" />

<!-- watermarks and other processing legends that should appear below the main artwork -->
<g id="markup-below" transform="scale( 1,-1) translate(0,-20000)" >
</g>


<!-- ======================================================================================= -->
<!--         CGM drawing elements / artwork from the source CGM Binary file                  -->
<g id="cgm-objects" transform="scale( 1,-1) translate(0,-20000)">
<path stroke-width="12" stroke="rgb(0,0,0)" fill="none"  d="M1 255 L15405 255 "  />
<path stroke-width="12" stroke="rgb(0,0,0)" fill="none"  d="M15405 255 L15405 19983 "  />
<path stroke-width="12" stroke="rgb(0,0,0)" fill="none"  d="M15405 19983 L1 19983 "  />
<path stroke-width="12" stroke="rgb(0,0,0)" fill="none"  d="M1 19983 L1 255 "  />
<text id="T1" x="10000" y="1700" textLength="5165" igTextHeight="240" lengthAdjust="spacingAndGlyphs" text-anchor="start" transform="translate(10000,1700) scale(1,-1) rotate(-0) translate(-10000,-1700)"  ><tspan  font-family="helvetica" fill="rgb(0,0,0)"  font-size="240"  >SCHEMA02; ATA v2.4;  ClrClass:c</tspan></text>
<text id="T2" x="10000" y="1300" textLength="4155" igTextHeight="240" lengthAdjust="spacingAndGlyphs" text-anchor="start" transform="translate(10000,1300) scale(1,-1) rotate(-0) translate(-10000,-1300)"  ><tspan  font-family="helvetica" fill="rgb(0,0,0)"  font-size="240"  >NIST CGM Interpreter Test Suite</tspan></text>
<text id="T3" x="10000" y="900" textLength="2895" igTextHeight="240" lengthAdjust="spacingAndGlyphs" text-anchor="start" transform="translate(10000,900) scale(1,-1) rotate(-0) translate(-10000,-900)"  ><tspan  font-family="helvetica" fill="rgb(0,0,0)"  font-size="240"  >Release 3.0, Sept 1998</tspan></text>
<text id="T4" x="257" y="2905" textLength="2634" igTextHeight="140" lengthAdjust="spacingAndGlyphs" text-anchor="start" transform="translate(257,2905) scale(1,-1) rotate(-90) translate(-257,-2905)"  ><tspan  font-family="helvetica" fill="rgb(0,0,0)"  font-size="140"  >w 54555101  SHT  1 REV 030B</tspan></text>
<text id="T5" x="12682" y="2" textLength="1317" igTextHeight="187" lengthAdjust="spacingAndGlyphs" text-anchor="start" transform="translate(12682,2) scale(1,-1) rotate(-0) translate(-12682,-2)"  ><tspan  font-family="helvetica" fill="rgb(0,0,0)"  font-size="187"  >W54A003A</tspan></text>
<path stroke-width="12" stroke="rgb(0,0,0)" fill="none"  d="M919 5429 L2347 6555 "  />
<path stroke-width="12" stroke="rgb(0,0,0)" fill="none"  d="M3480 7311 L6012 9192 "  />
<path stroke-width="12" stroke="rgb(0,0,0)" fill="none"  d="M6717 9675 L9052 11271 "  />
<path stroke-width="12" stroke="rgb(0,0,0)" fill="none"  d="M9683 11792 L10466 12277 "  />
<path stroke-width="12" stroke="rgb(0,0,0)" fill="none"  d="M12380 12407 L14945 10926 "  />
<path stroke-width="12" stroke="rgb(0,0,0)" fill="none"  d="M12331 12186 L14294 11053 "  />
<path stroke-width="12" stroke="rgb(0,0,0)" fill="none"  d="M12507 11882 L12965 11620 "  />
<path stroke-width="12" stroke="rgb(0,0,0)" fill="none"  d="M12497 11816 L13737 11105 "  />
<path stroke-width="12" stroke="rgb(0,0,0)" fill="none"  d="M12111 11921 L13551 11087 "  />
<path stroke-width="12" stroke="rgb(0,0,0)" fill="none"  d="M11641 12047 L13254 11108 "  />
<path stroke-width="12" stroke="rgb(0,0,0)" fill="none"  d="M11098 12110 L11232 12033 "  />
<path stroke-width="12" stroke="rgb(0,0,0)" fill="none"  d="M11005 12017 L11246 11879 "  />
<path stroke-width="12" stroke="rgb(0,0,0)" fill="none"  d="M10905 11880 L11245 11683 "  />
<path stroke-width="12" stroke="rgb(0,0,0)" fill="none"  d="M10801 11813 L11233 11559 "  />
<path stroke-width="12" stroke="rgb(0,0,0)" fill="none"  d="M11678 11418 L12167 11136 "  />
<path stroke-width="12" stroke="rgb(0,0,0)" fill="none"  d="M11562 11367 L12157 11024 "  />
<path stroke-width="12" stroke="rgb(0,0,0)" fill="none"  d="M12421 10991 L12640 10863 "  />
<path stroke-width="12" stroke="rgb(0,0,0)" fill="none"  d="M12306 10939 L12555 10795 "  />
<path stroke-width="12" stroke="rgb(0,0,0)" fill="none"  d="M10811 10950 L11223 10712 "  />
<path stroke-width="12" stroke="rgb(0,0,0)" fill="none"  d="M15280 10401 L13179 9565 "  />
<path stroke-width="12" stroke="rgb(0,0,0)" fill="none"  d="M15168 10680 L15280 10401 "  />
<path stroke-width="12" stroke="rgb(0,0,0)" fill="none"  d="M14592 10810 L13142 9639 "  />
<path stroke-width="12" stroke="rgb(0,0,0)" fill="none"  d="M13755 10921 L13049 10326 "  />
<path stroke-width="12" stroke="rgb(0,0,0)" fill="none"  d="M13161 10921 L13274 10921 "  />
<path stroke-width="12" stroke="rgb(0,0,0)" fill="none"  d="M14583 10803 L14694 10779 "  />
<path stroke-width="12" stroke="rgb(0,0,0)" fill="none"  d="M10726 8395 L10644 8351 "  />
<path stroke-width="12" stroke="rgb(0,0,0)" fill="none"  d="M4129 5088 L2312 4680 "  />
<path stroke-width="12" stroke="rgb(0,0,0)" fill="none"  d="M4370 6277 L4129 5088 "  />
<path stroke-width="12" stroke="rgb(0,0,0)" fill="none"  d="M8310 8190 L8102 7077 "  />
<path stroke-width="12" stroke="rgb(0,0,0)" fill="none"  d="M13161 10884 L13049 10326 "  />
<polyline stroke-width="12" stroke="rgb(0,0,0)" fill="none"  points="13180,9566 13140,9640 13106,9716 13077,9795 13055,9877 13040,9959 13031,10043 13029,10127 13033,10210 13050,10327 "  />
<polyline stroke-width="12" stroke="rgb(0,0,0)" fill="none"  points="14413,10844 14499,10825 14584,10804 "  />
<polyline stroke-width="12" stroke="rgb(0,0,0)" fill="none"  points="11383,9842 9857,8999 8311,8191 "  />
<path stroke-width="12" stroke="rgb(0,0,0)" fill="none"  d="M8310 8190 L4351 6277 "  />
<path stroke-width="12" stroke="rgb(0,0,0)" fill="none"  d="M4351 6277 L2368 5366 "  />
<path stroke-width="12" stroke="rgb(0,0,0)" fill="none"  d="M1155 4809 L1075 4697 "  />
<path stroke-width="12" stroke="rgb(0,0,0)" fill="none"  d="M876 4419 L908 4366 "  />
<path stroke-width="12" stroke="rgb(0,0,0)" fill="none"  d="M3670 6562 L3980 6388 "  />
<path stroke-width="12" stroke="rgb(0,0,0)" fill="none"  d="M3527 6472 L3637 6394 "  />
<path stroke-width="12" stroke="rgb(0,0,0)" fill="none"  d="M3590 6908 L3670 6562 "  />
<path stroke-width="12" stroke="rgb(0,0,0)" fill="none"  d="M3460 6797 L3496 6609 "  />
<path stroke-width="12" stroke="rgb(0,0,0)" fill="none"  d="M3275 6343 L3571 6165 "  />
<path stroke-width="12" stroke="rgb(0,0,0)" fill="none"  d="M3214 6223 L3457 6084 "  />
<path stroke-width="12" stroke="rgb(0,0,0)" fill="none"  d="M3311 6165 L3330 6035 "  />
<path stroke-width="12" stroke="rgb(0,0,0)" fill="none"  d="M3208 6739 L3275 6343 "  />
<path stroke-width="12" stroke="rgb(0,0,0)" fill="none"  d="M2987 6504 L3089 5931 "  />
<path stroke-width="12" stroke="rgb(0,0,0)" fill="none"  d="M3069 6574 L3101 6364 "  />
<path stroke-width="12" stroke="rgb(0,0,0)" fill="none"  d="M2987 6504 L2442 6078 "  />
<polyline stroke-width="12" stroke="rgb(0,0,0)" fill="none"  points="3051,7243 3044,7212 3035,7181 3024,7151 3010,7122 2994,7094 2976,7067 2956,7042 2934,7019 2910,6997 2866,6965 "  />
<path stroke-width="12" stroke="rgb(0,0,0)" fill="none"  d="M3051 7243 L3197 7334 "  />
<polyline stroke-width="12" stroke="rgb(0,0,0)" fill="none"  points="3481,7312 3468,7302 3455,7294 3441,7286 3426,7280 3411,7274 3396,7270 3380,7267 3364,7266 3348,7265 3332,7266 3316,7268 3301,7272 3286,7276 3271,7282 3256,7289 3242,7297 3229,7306 3217,7316 3198,7335 "  />
<polyline stroke-width="12" stroke="rgb(0,0,0)" fill="none"  points="6176,9518 6173,9483 6168,9449 6160,9415 6149,9382 6135,9350 6120,9320 6102,9290 6081,9262 6059,9236 6013,9193 "  />
<path stroke-width="12" stroke="rgb(0,0,0)" fill="none"  d="M6176 9516 L6414 9658 "  />
<polyline stroke-width="12" stroke="rgb(0,0,0)" fill="none"  points="6718,9676 6701,9664 6683,9653 6664,9644 6645,9636 6625,9629 6605,9624 6584,9621 6563,9620 6542,9620 6521,9622 6501,9625 6480,9630 6460,9637 6441,9645 6416,9658 "  />
<polyline stroke-width="12" stroke="rgb(0,0,0)" fill="none"  points="9278,11628 9269,11586 9256,11544 9241,11504 9222,11465 9200,11427 9176,11392 9148,11358 9118,11327 9052,11272 "  />
<path stroke-width="12" stroke="rgb(0,0,0)" fill="none"  d="M9277 11627 L9518 11775 "  />
<polyline stroke-width="12" stroke="rgb(0,0,0)" fill="none"  points="9684,11793 9671,11786 9658,11779 9645,11774 9631,11770 9617,11767 9602,11765 9588,11764 9573,11764 9559,11766 9545,11768 9519,11776 "  />
<polyline stroke-width="12" stroke="rgb(0,0,0)" fill="none"  points="1304,5089 1323,5107 1344,5122 1366,5137 1389,5149 1412,5160 1437,5169 1462,5176 1491,5181 "  />
<path stroke-width="12" stroke="rgb(0,0,0)" fill="none"  d="M1489 5181 L2300 5553 "  />
<path stroke-width="12" stroke="rgb(0,0,0)" fill="none"  d="M1442 5088 L2276 5473 "  />
<polyline stroke-width="12" stroke="rgb(0,0,0)" fill="none"  points="4260,6482 4223,6438 4183,6396 4140,6358 4094,6324 4046,6293 3981,6259 "  />
<path stroke-width="12" stroke="rgb(0,0,0)" fill="none"  d="M4259 6481 L4496 6600 "  />
<polyline stroke-width="12" stroke="rgb(0,0,0)" fill="none"  points="4757,6563 4742,6555 4727,6549 4711,6543 4695,6539 4679,6536 4662,6535 4645,6535 4629,6536 4612,6538 4596,6542 4580,6547 4564,6553 4550,6561 4535,6569 4522,6579 4497,6601 "  />
<path stroke-width="12" stroke="rgb(0,0,0)" fill="none"  d="M4756 6562 L7771 8005 "  />
<polyline stroke-width="12" stroke="rgb(0,0,0)" fill="none"  points="8148,8338 8109,8281 8066,8227 8018,8176 7967,8129 7912,8087 7855,8049 7772,8005 "  />
<path stroke-width="12" stroke="rgb(0,0,0)" fill="none"  d="M8147 8337 L8459 8487 "  />
<polyline stroke-width="12" stroke="rgb(0,0,0)" fill="none"  points="8770,8509 8751,8496 8731,8485 8710,8475 8688,8468 8666,8461 8644,8457 8621,8454 8598,8453 8575,8454 8552,8457 8529,8462 8507,8468 8486,8476 8460,8488 "  />
<path stroke-width="12" stroke="rgb(0,0,0)" fill="none"  d="M8770 8507 L11302 9862 "  />
<polyline stroke-width="12" stroke="rgb(0,0,0)" fill="none"  points="11366,9898 11338,9881 11303,9863 "  />
<path stroke-width="12" stroke="rgb(0,0,0)" fill="none"  d="M11619 10178 L11916 10364 "  />
<polyline stroke-width="12" stroke="rgb(0,0,0)" fill="none"  points="12162,10441 12137,10424 12111,10409 12083,10396 12055,10385 12026,10376 11997,10370 11967,10366 11916,10365 "  />
<path stroke-width="12" stroke="rgb(0,0,0)" fill="none"  d="M12162 10440 L12789 10810 "  />
<polyline stroke-width="12" stroke="rgb(0,0,0)" fill="none"  points="13106,11108 13060,11045 13009,10986 12954,10931 12894,10881 12790,10810 "  />
<polyline stroke-width="12" stroke="rgb(0,0,0)" fill="none"  points="13106,11108 13108,11111 13110,11113 13112,11116 13115,11118 13117,11120 13120,11121 13123,11123 13126,11124 13129,11125 13132,11126 13135,11127 13139,11127 13142,11127 13145,11127 13148,11126 13151,11126 13155,11125 13158,11123 13161,11122 13163,11120 13166,11119 13169,11116 13171,11114 13173,11112 13175,11109 13177,11106 13178,11104 13180,11101 13181,11097 13181,11094 13182,11091 "  />
<path stroke-width="12" stroke="rgb(0,0,0)" fill="none"  d="M13161 10884 L13181 11091 "  />
<polyline stroke-width="12" stroke="rgb(0,0,0)" fill="none"  points="14386,11017 14485,10995 14584,10971 "  />
<path stroke-width="12" stroke="rgb(0,0,0)" fill="none"  d="M13189 11087 L13755 11088 "  />
<path stroke-width="12" stroke="rgb(0,0,0)" fill="none"  d="M14583 10970 L14945 10884 "  />
<path stroke-width="12" stroke="rgb(0,0,0)" fill="none"  d="M10949 12370 L11229 12342 "  />
<polyline stroke-width="12" stroke="rgb(0,0,0)" fill="none"  points="11710,12295 11702,12296 11693,12297 "  />
<polyline stroke-width="12" stroke="rgb(0,0,0)" fill="none"  points="11881,12054 11805,12049 11675,12055 "  />
<path stroke-width="12" stroke="rgb(0,0,0)" fill="none"  d="M11089 12114 L11247 12098 "  />
<polyline stroke-width="12" stroke="rgb(0,0,0)" fill="none"  points="10671,12557 10657,12517 10639,12478 10619,12441 10595,12405 10569,12372 10540,12340 10509,12311 10467,12278 "  />
<polyline stroke-width="12" stroke="rgb(0,0,0)" fill="none"  points="10671,12557 10672,12561 10673,12565 10675,12569 10677,12573 10679,12576 10682,12580 10685,12583 10688,12586 10691,12589 10695,12591 10698,12593 10702,12595 10706,12596 10710,12598 10714,12599 10719,12599 10723,12599 10727,12599 10731,12599 10736,12598 10740,12597 10744,12596 10748,12594 10751,12592 10755,12590 10758,12587 10761,12584 10764,12581 10767,12578 10769,12574 10772,12570 "  />
<path stroke-width="12" stroke="rgb(0,0,0)" fill="none"  d="M10771 12569 L10823 12260 "  />
<path stroke-width="12" stroke="rgb(0,0,0)" fill="none"  d="M10823 12260 L11055 12131 "  />
<path stroke-width="12" stroke="rgb(0,0,0)" fill="none"  d="M10689 11980 L9964 11534 "  />
<polyline stroke-width="12" stroke="rgb(0,0,0)" fill="none"  points="9872,11368 9873,11384 9875,11399 9878,11415 9882,11430 9888,11444 9895,11458 9902,11472 9911,11485 9921,11497 9932,11509 9943,11519 9965,11535 "  />
<path stroke-width="12" stroke="rgb(0,0,0)" fill="none"  d="M9871 11367 L9741 11293 "  />
<polyline stroke-width="12" stroke="rgb(0,0,0)" fill="none"  points="9370,11164 9397,11189 9426,11211 9457,11231 9489,11248 9523,11263 9557,11275 9593,11285 9629,11292 9665,11295 9702,11296 9742,11294 "  />
<path stroke-width="12" stroke="rgb(0,0,0)" fill="none"  d="M9369 11163 L8234 10394 "  />
<path stroke-width="12" stroke="rgb(0,0,0)" fill="none"  d="M7900 10169 L6898 9491 "  />
<polyline stroke-width="12" stroke="rgb(0,0,0)" fill="none"  points="6768,9268 6773,9295 6781,9322 6790,9348 6802,9373 6815,9397 6831,9421 6848,9442 6866,9463 6898,9491 "  />
<path stroke-width="12" stroke="rgb(0,0,0)" fill="none"  d="M6768 9268 L6632 9177 "  />
<path stroke-width="12" stroke="rgb(0,0,0)" fill="none"  d="M6361 9114 L5076 8171 "  />
<path stroke-width="12" stroke="rgb(0,0,0)" fill="none"  d="M9928 11024 L10297 10811 "  />
<path stroke-width="12" stroke="rgb(0,0,0)" fill="none"  d="M9576 10800 L10954 10003 "  />
<path stroke-width="12" stroke="rgb(0,0,0)" fill="none"  d="M9455 10726 L9729 10566 "  />
<path stroke-width="12" stroke="rgb(0,0,0)" fill="none"  d="M9983 9974 L10542 9651 "  />
<path stroke-width="12" stroke="rgb(0,0,0)" fill="none"  d="M9710 10013 L10432 9598 "  />
<path stroke-width="12" stroke="rgb(0,0,0)" fill="none"  d="M9602 9938 L10304 9529 "  />
<path stroke-width="12" stroke="rgb(0,0,0)" fill="none"  d="M9797 9769 L10280 9490 "  />
<path stroke-width="12" stroke="rgb(0,0,0)" fill="none"  d="M9871 11330 L9928 11024 "  />
<path stroke-width="12" stroke="rgb(0,0,0)" fill="none"  d="M9741 11255 L9801 10937 "  />
<path stroke-width="12" stroke="rgb(0,0,0)" fill="none"  d="M9518 11237 L9576 10800 "  />
<path stroke-width="12" stroke="rgb(0,0,0)" fill="none"  d="M9388 11163 L9463 10680 "  />
<path stroke-width="12" stroke="rgb(0,0,0)" fill="none"  d="M9463 10680 L9602 9938 "  />
<path stroke-width="12" stroke="rgb(0,0,0)" fill="none"  d="M9204 10947 L9342 10896 "  />
<path stroke-width="12" stroke="rgb(0,0,0)" fill="none"  d="M9342 10896 L9460 10159 "  />
<path stroke-width="12" stroke="rgb(0,0,0)" fill="none"  d="M9460 10159 L9407 9974 "  />
<path stroke-width="12" stroke="rgb(0,0,0)" fill="none"  d="M9407 9974 L9179 9817 "  />
<path stroke-width="12" stroke="rgb(0,0,0)" fill="none"  d="M9204 10947 L8273 10308 "  />
<path stroke-width="12" stroke="rgb(0,0,0)" fill="none"  d="M8218 10290 L8731 9987 "  />
<path stroke-width="12" stroke="rgb(0,0,0)" fill="none"  d="M8087 10215 L9715 9239 "  />
<path stroke-width="12" stroke="rgb(0,0,0)" fill="none"  d="M8106 10029 L8254 9175 "  />
<path stroke-width="12" stroke="rgb(0,0,0)" fill="none"  d="M7679 9918 L7809 9881 "  />
<path stroke-width="12" stroke="rgb(0,0,0)" fill="none"  d="M7809 9881 L7823 9807 "  />
<path stroke-width="12" stroke="rgb(0,0,0)" fill="none"  d="M7920 9324 L7715 8915 "  />
<path stroke-width="12" stroke="rgb(0,0,0)" fill="none"  d="M7715 8915 L7292 8656 "  />
<path stroke-width="12" stroke="rgb(0,0,0)" fill="none"  d="M11482 11744 L11482 11504 "  />
<path stroke-width="12" stroke="rgb(0,0,0)" fill="none"  d="M11600 11674 L11599 11539 "  />
<path stroke-width="12" stroke="rgb(0,0,0)" fill="none"  d="M11601 11340 L11601 10594 "  />
<path stroke-width="12" stroke="rgb(0,0,0)" fill="none"  d="M12222 11289 L12222 11063 "  />
<path stroke-width="12" stroke="rgb(0,0,0)" fill="none"  d="M12232 10910 L12231 10605 "  />
<path stroke-width="12" stroke="rgb(0,0,0)" fill="none"  d="M12342 10900 L12343 10661 "  />
<path stroke-width="12" stroke="rgb(0,0,0)" fill="none"  d="M9890 11385 L10503 11775 "  />
<path stroke-width="12" stroke="rgb(0,0,0)" fill="none"  d="M10503 11775 L10689 11739 "  />
<path stroke-width="12" stroke="rgb(0,0,0)" fill="none"  d="M10689 11739 L10755 11120 "  />
<path stroke-width="12" stroke="rgb(0,0,0)" fill="none"  d="M10694 10882 L10547 10769 "  />
<path stroke-width="12" stroke="rgb(0,0,0)" fill="none"  d="M6768 9249 L6842 8915 "  />
<path stroke-width="12" stroke="rgb(0,0,0)" fill="none"  d="M6842 8915 L7901 8294 "  />
<path stroke-width="12" stroke="rgb(0,0,0)" fill="none"  d="M6656 9175 L6730 8836 "  />
<path stroke-width="12" stroke="rgb(0,0,0)" fill="none"  d="M6730 8836 L7307 8488 "  />
<path stroke-width="12" stroke="rgb(0,0,0)" fill="none"  d="M6433 9137 L6489 8692 "  />
<path stroke-width="12" stroke="rgb(0,0,0)" fill="none"  d="M6489 8692 L7540 8083 "  />
<path stroke-width="12" stroke="rgb(0,0,0)" fill="none"  d="M6394 8637 L7214 8163 "  />
<path stroke-width="12" stroke="rgb(0,0,0)" fill="none"  d="M6768 8413 L6786 8023 "  />
<path stroke-width="12" stroke="rgb(0,0,0)" fill="none"  d="M6861 8357 L6823 7986 "  />
<path stroke-width="12" stroke="rgb(0,0,0)" fill="none"  d="M5132 8116 L6136 8840 "  />
<path stroke-width="12" stroke="rgb(0,0,0)" fill="none"  d="M6136 8840 L6247 8859 "  />
<path stroke-width="12" stroke="rgb(0,0,0)" fill="none"  d="M6247 8859 L6377 8005 "  />
<path stroke-width="12" stroke="rgb(0,0,0)" fill="none"  d="M6377 8005 L6322 7912 "  />
<path stroke-width="12" stroke="rgb(0,0,0)" fill="none"  d="M6322 7912 L5896 7599 "  />
<path stroke-width="12" stroke="rgb(0,0,0)" fill="none"  d="M5039 8079 L6104 7441 "  />
<path stroke-width="12" stroke="rgb(0,0,0)" fill="none"  d="M4913 7995 L5970 7368 "  />
<path stroke-width="12" stroke="rgb(0,0,0)" fill="none"  d="M5020 7912 L5163 7181 "  />
<path stroke-width="12" stroke="rgb(0,0,0)" fill="none"  d="M4928 7874 L5060 7174 "  />
<path stroke-width="12" stroke="rgb(0,0,0)" fill="none"  d="M4813 7965 L4997 6963 "  />
<path stroke-width="12" stroke="rgb(0,0,0)" fill="none"  d="M3608 6983 L4527 7659 "  />
<path stroke-width="12" stroke="rgb(0,0,0)" fill="none"  d="M4527 7659 L4654 7662 "  />
<path stroke-width="12" stroke="rgb(0,0,0)" fill="none"  d="M4654 7662 L4798 6871 "  />
<path stroke-width="12" stroke="rgb(0,0,0)" fill="none"  d="M4798 6871 L4705 6723 "  />
<path stroke-width="12" stroke="rgb(0,0,0)" fill="none"  d="M4705 6723 L4682 6705 "  />
<path stroke-width="12" stroke="rgb(0,0,0)" fill="none"  d="M5039 8079 L4913 7995 "  />
<path stroke-width="12" stroke="rgb(0,0,0)" fill="none"  d="M4810 7963 L3701 7131 "  />
<polyline stroke-width="12" stroke="rgb(0,0,0)" fill="none"  points="3590,6909 3591,6931 3594,6953 3598,6974 3604,6996 3612,7016 3621,7036 3632,7055 3644,7074 3658,7091 3673,7107 3702,7132 "  />
<path stroke-width="12" stroke="rgb(0,0,0)" fill="none"  d="M3590 6908 L3460 6797 "  />
<path stroke-width="12" stroke="rgb(0,0,0)" fill="none"  d="M3192 6734 L2523 6211 "  />
<path stroke-width="12" stroke="rgb(0,0,0)" fill="none"  d="M1229 5199 L1007 5069 "  />
<path stroke-width="12" stroke="rgb(0,0,0)" fill="none"  d="M582 5285 L678 5230 "  />
<path stroke-width="12" stroke="rgb(0,0,0)" fill="none"  d="M728 4995 L767 4972 "  />
<path stroke-width="12" stroke="rgb(0,0,0)" fill="none"  d="M579 4919 L662 4873 "  />
<path stroke-width="12" stroke="rgb(0,0,0)" fill="none"  d="M635 4698 L698 4661 "  />
<path stroke-width="12" stroke="rgb(0,0,0)" fill="none"  d="M598 4549 L709 4485 "  />
<path stroke-width="12" stroke="rgb(0,0,0)" fill="none"  d="M582 5285 L636 5178 "  />
<path stroke-width="12" stroke="rgb(0,0,0)" fill="none"  d="M728 4995 L579 4919 "  />
<path stroke-width="12" stroke="rgb(0,0,0)" fill="none"  d="M661 4854 L639 4749 "  />
<path stroke-width="12" stroke="rgb(0,0,0)" fill="none"  d="M598 4549 L462 4478 "  />
<path stroke-width="12" stroke="rgb(0,0,0)" fill="none"  d="M876 4902 L913 4735 "  />
<path stroke-width="12" stroke="rgb(0,0,0)" fill="none"  d="M486 5125 L492 5112 "  />
<path stroke-width="12" stroke="rgb(0,0,0)" fill="none"  d="M579 4920 L570 4815 "  />
<path stroke-width="12" stroke="rgb(0,0,0)" fill="none"  d="M560 4698 L527 4665 "  />
<path stroke-width="12" stroke="rgb(0,0,0)" fill="none"  d="M462 4478 L527 4439 "  />
<path stroke-width="12" stroke="rgb(0,0,0)" fill="none"  d="M653 4363 L746 4493 "  />
<path stroke-width="12" stroke="rgb(0,0,0)" fill="none"  d="M746 4493 L820 4512 "  />
<path stroke-width="12" stroke="rgb(0,0,0)" fill="none"  d="M672 4363 L749 4384 "  />
<path stroke-width="12" stroke="rgb(0,0,0)" fill="none"  d="M1065 4704 L1015 4892 "  />
<path stroke-width="12" stroke="rgb(0,0,0)" fill="none"  d="M1043 4772 L913 4735 "  />
<polyline stroke-width="12" stroke="rgb(0,0,0)" fill="none"  points="487,5126 484,5135 482,5144 480,5153 479,5162 479,5172 480,5181 481,5190 483,5199 486,5208 490,5217 494,5225 499,5233 504,5241 510,5248 517,5255 524,5261 531,5266 539,5271 547,5276 556,5279 565,5282 574,5284 583,5286 "  />
<polyline stroke-width="12" stroke="rgb(0,0,0)" fill="none"  points="877,4902 873,4910 871,4918 868,4927 867,4935 866,4944 866,4953 866,4962 867,4970 869,4979 872,4987 875,4995 879,5003 883,5011 888,5018 894,5025 900,5031 906,5037 913,5042 921,5047 928,5051 937,5055 945,5057 953,5060 970,5062 "  />
<path stroke-width="12" stroke="rgb(0,0,0)" fill="none"  d="M820 4512 L870 4632 "  />
<path stroke-width="12" stroke="rgb(0,0,0)" fill="none"  d="M1278 5094 L1155 5162 "  />
<polyline stroke-width="12" stroke="rgb(0,0,0)" fill="none"  points="920,5430 908,5420 895,5411 881,5403 867,5396 853,5390 837,5385 822,5381 806,5379 791,5378 775,5378 759,5379 743,5382 728,5386 "  />
<polyline stroke-width="12" stroke="rgb(0,0,0)" fill="none"  points="635,5274 632,5280 630,5285 628,5291 627,5297 626,5303 626,5309 626,5316 626,5322 627,5328 629,5334 631,5339 633,5345 636,5351 639,5356 643,5361 647,5365 651,5370 656,5374 661,5377 666,5380 672,5383 678,5385 684,5387 690,5388 696,5389 702,5390 708,5390 714,5389 720,5388 728,5386 "  />
<polyline stroke-width="12" stroke="rgb(0,0,0)" fill="none"  points="1444,5089 1426,5082 1407,5077 1388,5073 1369,5070 1349,5069 1330,5070 1311,5072 1292,5075 1273,5080 1249,5089 "  />
<polyline stroke-width="12" stroke="rgb(0,0,0)" fill="none"  points="1123,4957 1121,4965 1119,4972 1118,4980 1117,4988 1117,4996 1118,5004 1119,5012 1121,5020 1123,5028 1126,5035 1130,5042 1134,5049 1139,5055 1144,5061 1150,5067 1156,5072 1163,5077 1169,5081 1177,5084 1184,5087 1192,5090 1199,5092 1207,5093 1215,5094 1223,5093 1231,5093 1239,5092 1249,5089 "  />
<path stroke-width="12" stroke="rgb(0,0,0)" fill="none"  d="M1122 4956 L1155 4809 "  />
<path stroke-width="12" stroke="rgb(0,0,0)" fill="none"  d="M908 4369 L870 4395 "  />
<path stroke-width="12" stroke="rgb(0,0,0)" fill="none"  d="M9388 9026 L9035 9230 "  />
<polyline stroke-width="12" stroke="rgb(0,0,0)" fill="none"  points="8893,9236 8902,9241 8912,9245 8922,9249 8932,9251 8943,9253 8953,9254 8964,9254 8975,9253 8985,9252 8995,9249 9006,9246 9015,9242 9025,9238 9036,9231 "  />
<path stroke-width="12" stroke="rgb(0,0,0)" fill="none"  d="M8893 9235 L8550 9038 "  />
<polyline stroke-width="12" stroke="rgb(0,0,0)" fill="none"  points="8498,8866 8494,8875 8490,8885 8487,8895 8485,8905 8484,8915 8484,8925 8484,8935 8485,8946 8487,8956 8490,8966 8493,8975 8498,8985 8503,8994 8508,9002 8515,9010 8521,9018 8529,9025 8537,9031 8551,9040 "  />
<polyline stroke-width="12" stroke="rgb(0,0,0)" fill="none"  points="8404,8916 8385,8927 8367,8939 8350,8953 8334,8968 8319,8985 8306,9002 8294,9021 8283,9040 8275,9060 8267,9081 8262,9102 8258,9124 8255,9146 8255,9176 "  />
<path stroke-width="12" stroke="rgb(0,0,0)" fill="none"  d="M8533 8562 L8310 8691 "  />
<polyline stroke-width="12" stroke="rgb(0,0,0)" fill="none"  points="8114,8683 8130,8691 8146,8697 8163,8702 8180,8706 8197,8709 8214,8710 8232,8710 8249,8708 8266,8705 8283,8701 8311,8691 "  />
<path stroke-width="12" stroke="rgb(0,0,0)" fill="none"  d="M8113 8682 L7809 8506 "  />
<polyline stroke-width="12" stroke="rgb(0,0,0)" fill="none"  points="7754,8377 7752,8386 7751,8395 7751,8405 7751,8414 7752,8423 7754,8432 7756,8441 7760,8450 7763,8458 7768,8467 7773,8474 7779,8482 7785,8489 7792,8495 7799,8501 7809,8507 "  />
<path stroke-width="12" stroke="rgb(0,0,0)" fill="none"  d="M8114 8963 L7464 8587 "  />
<path stroke-width="12" stroke="rgb(0,0,0)" fill="none"  d="M8161 10104 L8254 9565 "  />
<path stroke-width="12" stroke="rgb(0,0,0)" fill="none"  d="M8254 9565 L8533 9472 "  />
<path stroke-width="12" stroke="rgb(0,0,0)" fill="none"  d="M8533 9472 L8869 9663 "  />
<polyline stroke-width="12" stroke="rgb(0,0,0)" fill="none"  points="6880,7875 6868,7883 6856,7892 6845,7902 6834,7912 6825,7924 6817,7936 6809,7948 6803,7962 6797,7975 6793,7989 6790,8004 6787,8024 "  />
<path stroke-width="12" stroke="rgb(0,0,0)" fill="none"  d="M6637 7877 L6507 8562 "  />
<path stroke-width="12" stroke="rgb(0,0,0)" fill="none"  d="M6516 7824 L6006 7503 "  />
<path stroke-width="12" stroke="rgb(0,0,0)" fill="none"  d="M10865 10682 L10793 10635 "  />
<polyline stroke-width="12" stroke="rgb(0,0,0)" fill="none"  points="14414,11021 14421,11033 14428,11045 14436,11055 14446,11066 14456,11075 14466,11084 14478,11091 14490,11098 14502,11104 14515,11109 14528,11113 14541,11116 14555,11117 14569,11118 14583,11118 14596,11116 14610,11114 14623,11110 14648,11100 "  />
<polyline stroke-width="12" stroke="rgb(0,0,0)" fill="none"  points="14210,11108 14213,11120 14217,11132 14221,11144 14227,11155 14234,11166 14241,11176 14249,11185 14258,11194 14267,11202 14277,11210 14288,11216 14299,11222 14311,11227 14323,11231 14335,11234 14347,11236 14360,11237 14372,11237 14385,11236 14397,11234 14409,11231 14421,11227 14444,11217 "  />
<polyline stroke-width="12" stroke="rgb(0,0,0)" fill="none"  points="12529,12069 12532,12082 12537,12094 12542,12106 12548,12118 12555,12129 12563,12140 12572,12150 12581,12159 12591,12167 12602,12175 12613,12182 12625,12188 12638,12192 12650,12196 12663,12199 12676,12201 12689,12202 12703,12202 12716,12200 12729,12198 12742,12195 12754,12191 12771,12183 "  />
<polyline stroke-width="12" stroke="rgb(0,0,0)" fill="none"  points="12332,12187 12335,12199 12338,12211 12342,12223 12348,12234 12354,12245 12361,12256 12369,12266 12377,12275 12386,12283 12396,12291 12407,12298 12418,12304 12429,12309 12441,12313 12453,12317 12465,12319 12478,12321 12490,12321 12503,12320 12515,12319 12528,12316 12540,12313 12551,12309 12567,12301 "  />
<path stroke-width="12" stroke="rgb(0,0,0)" fill="none"  d="M12507 11882 L12196 11945 "  />
<polyline stroke-width="12" stroke="rgb(0,0,0)" fill="none"  points="10827,12273 10827,12281 10828,12288 10830,12296 10832,12303 10834,12311 10837,12318 10841,12324 10845,12331 10850,12337 10855,12342 10861,12348 10867,12352 10873,12357 10880,12361 10887,12364 10894,12367 10901,12369 10909,12370 10917,12371 10924,12372 10932,12371 10940,12370 10947,12369 10955,12367 10962,12364 10969,12361 10976,12357 10982,12353 10988,12348 10994,12343 10999,12338 11004,12332 11008,12325 11012,12319 11015,12312 11018,12304 11020,12297 11022,12290 11022,12282 11023,12274 11023,12267 11022,12259 11020,12251 11018,12244 11016,12237 11012,12230 11009,12223 11004,12217 11000,12210 10995,12205 10989,12200 10979,12192 "  />
<polyline stroke-width="12" stroke="rgb(0,0,0)" fill="none"  points="11679,11419 11670,11423 11661,11429 11652,11434 11644,11441 11637,11448 11630,11456 11624,11464 11618,11472 11613,11481 11609,11491 11606,11500 11603,11510 11601,11520 11600,11540 "  />
<path stroke-width="12" stroke="rgb(0,0,0)" fill="none"  d="M4519 6611 L6024 7298 "  />
<path stroke-width="12" stroke="rgb(0,0,0)" fill="none"  d="M6024 7298 L6043 7336 "  />
<path stroke-width="12" stroke="rgb(0,0,0)" fill="none"  d="M6043 7336 L6192 7428 "  />
<path stroke-width="12" stroke="rgb(0,0,0)" fill="none"  d="M6192 7428 L6284 7428 "  />
<path stroke-width="12" stroke="rgb(0,0,0)" fill="none"  d="M6284 7428 L7809 8190 "  />
<polyline stroke-width="12" stroke="rgb(0,0,0)" fill="none"  points="8014,8396 7999,8366 7981,8338 7961,8311 7939,8286 7916,8262 7890,8241 7863,8221 7809,8191 "  />
<path stroke-width="12" stroke="rgb(0,0,0)" fill="none"  d="M8013 8395 L8199 8487 "  />
<path stroke-width="12" stroke="rgb(0,0,0)" fill="none"  d="M8472 8531 L9760 9212 "  />
<path stroke-width="12" stroke="rgb(0,0,0)" fill="none"  d="M9760 9212 L9797 9268 "  />
<path stroke-width="12" stroke="rgb(0,0,0)" fill="none"  d="M9797 9268 L9908 9305 "  />
<path stroke-width="12" stroke="rgb(0,0,0)" fill="none"  d="M9908 9305 L9983 9324 "  />
<path stroke-width="12" stroke="rgb(0,0,0)" fill="none"  d="M9983 9324 L11340 10066 "  />
<path stroke-width="12" stroke="rgb(0,0,0)" fill="none"  d="M11520 10260 L11675 10356 "  />
<path stroke-width="12" stroke="rgb(0,0,0)" fill="none"  d="M11880 10383 L12696 10884 "  />
<polyline stroke-width="12" stroke="rgb(0,0,0)" fill="none"  points="12790,10978 12778,10960 12764,10942 12749,10926 12733,10911 12697,10885 "  />
<polyline stroke-width="12" stroke="rgb(0,0,0)" fill="none"  points="12790,10978 12795,10985 12800,10991 12805,10998 12812,11003 12818,11008 12825,11013 12832,11017 12840,11021 12848,11023 12856,11026 12864,11027 12872,11028 12881,11029 12889,11028 12897,11027 12905,11026 12913,11023 12921,11021 12929,11017 12936,11013 12943,11008 12949,11003 12957,10996 "  />
<polyline stroke-width="12" stroke="rgb(0,0,0)" fill="none"  points="8473,8532 8451,8518 8428,8507 8404,8497 8379,8488 8354,8482 8328,8478 8303,8476 8277,8476 8251,8478 8200,8488 "  />
<path stroke-width="12" stroke="rgb(0,0,0)" fill="none"  d="M6490 8692 L6394 8637 "  />
<path stroke-width="12" stroke="rgb(0,0,0)" fill="none"  d="M6516 7824 L6339 9087 "  />
<path stroke-width="12" stroke="rgb(0,0,0)" fill="none"  d="M7307 8488 L7777 8208 "  />
<polyline stroke-width="12" stroke="rgb(0,0,0)" fill="none"  points="11881,10384 11863,10374 11844,10366 11824,10359 11804,10353 11784,10349 11764,10347 11743,10347 11722,10348 11702,10350 11676,10356 "  />
<polyline stroke-width="12" stroke="rgb(0,0,0)" fill="none"  points="12422,10992 12413,10996 12404,11002 12395,11007 12387,11014 12380,11021 12373,11029 12367,11037 12361,11045 12356,11054 12352,11064 12349,11073 12346,11083 12344,11093 12343,11104 12343,11114 "  />
<polyline stroke-width="12" stroke="rgb(0,0,0)" fill="none"  points="12308,10940 12298,10945 12288,10951 12279,10957 12270,10965 12262,10972 12255,10981 12248,10990 12242,10999 12237,11009 12232,11020 12229,11031 12226,11041 12224,11053 12223,11064 "  />
<polyline stroke-width="12" stroke="rgb(0,0,0)" fill="none"  points="11565,11366 11555,11371 11546,11376 11537,11382 11529,11389 11521,11396 11514,11404 11508,11413 11502,11422 11497,11431 11493,11441 11489,11451 11486,11462 11485,11472 11484,11483 11483,11494 11484,11505 "  />
<path stroke-width="12" stroke="rgb(0,0,0)" fill="none"  d="M10795 11817 L10906 11881 "  />
<polyline stroke-width="12" stroke="rgb(0,0,0)" fill="none"  points="10921,11747 10930,11620 10930,11492 10919,11365 10898,11239 10868,11116 10811,10951 "  />
<polyline stroke-width="12" stroke="rgb(0,0,0)" fill="none"  points="10801,11814 10815,11666 10817,11518 10807,11369 10786,11222 10754,11078 10689,10880 "  />
<path stroke-width="12" stroke="rgb(0,0,0)" fill="none"  d="M10811 10950 L10694 10882 "  />
<polyline stroke-width="12" stroke="rgb(0,0,0)" fill="none"  points="10690,11981 10726,12000 10763,12017 10802,12030 10841,12040 10901,12050 "  />
<polyline stroke-width="12" stroke="rgb(0,0,0)" fill="none"  points="10901,12049 10901,12049 10948,12050 10995,12048 10995,12048 11007,12049 11018,12050 11029,12052 11029,12052 11036,12054 11042,12057 11049,12059 11055,12063 11055,12063 11059,12065 11064,12069 11067,12072 11071,12076 11074,12080 11074,12080 11075,12082 11076,12085 11078,12087 11078,12089 11079,12092 11080,12095 11080,12097 11080,12097 11080,12099 11079,12102 11078,12105 11078,12107 11076,12110 11075,12112 11074,12114 11074,12114 11071,12118 11067,12122 11064,12125 11059,12129 11055,12131 "  />
<path stroke-width="12" stroke="rgb(0,0,0)" fill="none"  d="M10823 12263 L9509 11440 "  />
<polyline stroke-width="12" stroke="rgb(0,0,0)" fill="none"  points="6362,9115 6393,9132 6425,9147 6458,9159 6492,9168 6526,9175 6561,9179 6596,9180 6633,9178 "  />
<path stroke-width="12" stroke="rgb(0,0,0)" fill="none"  d="M6828 9598 L9163 11193 "  />
<path stroke-width="12" stroke="rgb(0,0,0)" fill="none"  d="M3589 7221 L6123 9114 "  />
<polyline stroke-width="12" stroke="rgb(0,0,0)" fill="none"  points="3193,6735 3220,6751 3248,6765 3278,6777 3308,6787 3338,6794 3370,6798 3401,6801 3460,6798 "  />
<path stroke-width="12" stroke="rgb(0,0,0)" fill="none"  d="M3496 6609 L3527 6472 "  />
<path stroke-width="12" stroke="rgb(0,0,0)" fill="none"  d="M3637 6394 L3850 6277 "  />
<polyline stroke-width="12" stroke="rgb(0,0,0)" fill="none"  points="4118,6541 4099,6502 4077,6465 4052,6430 4025,6397 3995,6366 3963,6338 3929,6312 3892,6289 3832,6259 "  />
<path stroke-width="12" stroke="rgb(0,0,0)" fill="none"  d="M4117 6540 L4254 6617 "  />
<polyline stroke-width="12" stroke="rgb(0,0,0)" fill="none"  points="4520,6612 4489,6603 4457,6597 4425,6594 4392,6593 4360,6594 4327,6599 4296,6605 4254,6618 "  />
<polyline stroke-width="12" stroke="rgb(0,0,0)" fill="none"  points="10866,10683 10878,10690 10890,10695 10902,10700 10915,10703 10928,10706 10941,10707 10954,10708 10968,10708 10981,10706 10994,10703 11007,10700 11019,10695 11038,10686 "  />
<path stroke-width="12" stroke="rgb(0,0,0)" fill="none"  d="M11482 11343 L11482 10524 "  />
<path stroke-width="12" stroke="rgb(0,0,0)" fill="none"  d="M10906 11881 L10879 12037 "  />
<path stroke-width="12" stroke="rgb(0,0,0)" fill="none"  d="M10795 11817 L10758 12013 "  />
<polyline stroke-width="12" stroke="rgb(0,0,0)" fill="none"  points="12307,12408 12311,12411 12315,12413 12319,12415 12323,12417 12327,12419 12332,12420 12337,12421 12341,12421 12346,12421 12350,12421 12355,12420 12360,12419 12364,12418 12368,12416 12372,12414 12376,12411 12381,12408 "  />
<path stroke-width="12" stroke="rgb(0,0,0)" fill="none"  d="M12323 12184 L12295 12278 "  />
<polyline stroke-width="12" stroke="rgb(0,0,0)" fill="none"  points="12320,12416 12323,12405 12326,12395 12327,12384 12328,12373 12328,12362 12327,12351 12325,12340 12322,12329 12319,12318 12315,12308 12309,12298 12304,12289 12296,12279 "  />
<path stroke-width="12" stroke="rgb(0,0,0)" fill="none"  d="M11717 12051 L11634 12170 "  />
<polyline stroke-width="12" stroke="rgb(0,0,0)" fill="none"  points="11623,12296 11628,12294 11634,12291 11639,12288 11643,12284 11648,12280 11652,12276 11656,12271 11659,12266 11662,12261 11664,12256 11667,12250 11668,12244 11669,12239 11670,12233 11671,12227 11670,12221 11670,12215 11669,12209 11667,12203 11665,12198 11663,12192 11660,12187 11657,12182 11653,12177 11649,12173 11645,12169 11640,12165 "  />
<polyline stroke-width="12" stroke="rgb(0,0,0)" fill="none"  points="12112,11921 12102,11925 12092,11930 12083,11936 12074,11942 12065,11949 12058,11957 12050,11965 12044,11974 12038,11984 12033,11993 12029,12003 12025,12014 12023,12024 12021,12035 12020,12046 12020,12057 12022,12076 "  />
<path stroke-width="12" stroke="rgb(0,0,0)" fill="none"  d="M11800 11947 L11374 11995 "  />
<path stroke-width="12" stroke="rgb(0,0,0)" fill="none"  d="M12497 11816 L12342 11847 "  />
<path stroke-width="12" stroke="rgb(0,0,0)" fill="none"  d="M13512 11307 L13848 11114 "  />
<polyline stroke-width="12" stroke="rgb(0,0,0)" fill="none"  points="13739,11091 13746,11092 13752,11092 13759,11091 13766,11090 13773,11089 13779,11087 13785,11084 13791,11081 13797,11078 13803,11074 13808,11069 13813,11065 13817,11060 13821,11054 13825,11048 13828,11042 13830,11036 13833,11030 13834,11023 13835,11017 13836,11010 13836,11003 13836,10996 13835,10990 13833,10983 13831,10977 13828,10970 13825,10964 13822,10958 13818,10953 13814,10948 13809,10943 13804,10938 13798,10934 13793,10931 13787,10928 13781,10925 13774,10923 13766,10921 "  />
<polyline stroke-width="12" stroke="rgb(0,0,0)" fill="none"  points="13181,11084 13187,11080 13193,11075 13198,11070 13203,11065 13207,11059 13211,11053 13215,11047 13218,11040 13220,11033 13222,11026 13223,11019 13224,11012 13224,11005 13224,10997 13223,10990 13221,10983 13219,10976 13217,10969 13214,10963 13210,10956 13206,10950 13201,10945 13196,10939 13191,10935 13185,10930 13179,10926 13169,10921 "  />
<path stroke-width="12" stroke="rgb(0,0,0)" fill="none"  d="M12083 11736 L11984 11662 "  />
<path stroke-width="12" stroke="rgb(0,0,0)" fill="none"  d="M11879 11855 L11766 11780 "  />
<path stroke-width="12" stroke="rgb(0,0,0)" fill="none"  d="M12342 11210 L12342 11113 "  />
<polyline stroke-width="12" stroke="rgb(0,0,0)" fill="none"  points="11602,10579 11601,10583 11601,10587 11601,10594 "  />
<polyline stroke-width="12" stroke="rgb(0,0,0)" fill="none"  points="11490,10476 11487,10487 11484,10499 11483,10511 11482,10525 "  />
<polyline stroke-width="12" stroke="rgb(0,0,0)" fill="none"  points="11397,11465 11406,11461 11416,11457 11424,11452 11433,11446 11440,11440 11448,11433 11455,11425 11461,11417 11466,11409 11471,11400 11475,11390 11478,11381 11481,11371 11483,11361 11484,11344 "  />
<polyline stroke-width="12" stroke="rgb(0,0,0)" fill="none"  points="12159,11025 12168,11021 12176,11016 12184,11011 12191,11005 12198,10999 12204,10992 12210,10985 12215,10977 12220,10969 12224,10960 12227,10951 12230,10942 12232,10933 12233,10923 12233,10911 "  />
<path stroke-width="12" stroke="rgb(0,0,0)" fill="none"  d="M11664 10372 L11711 10434 "  />
<path stroke-width="12" stroke="rgb(0,0,0)" fill="none"  d="M11526 10466 L11579 10533 "  />
<polyline stroke-width="12" stroke="rgb(0,0,0)" fill="none"  points="11527,10467 11537,10468 11547,10468 11557,10467 11567,10465 11577,10463 11587,10459 11596,10455 11605,10451 11613,10445 11621,10439 11629,10433 11636,10426 11643,10418 11648,10410 11654,10401 11658,10392 11665,10373 "  />
<polyline stroke-width="12" stroke="rgb(0,0,0)" fill="none"  points="11580,10534 11589,10535 11599,10535 11608,10534 11617,10532 11626,10530 11635,10527 11644,10524 11652,10519 11660,10515 11668,10509 11675,10503 11681,10496 11687,10489 11693,10482 11698,10474 11702,10465 11705,10457 11708,10448 11711,10435 "  />
<polyline stroke-width="12" stroke="rgb(0,0,0)" fill="none"  points="11468,10394 11474,10396 11480,10398 11486,10399 11492,10400 11498,10401 11504,10401 11510,10400 11516,10399 11522,10397 11528,10395 11534,10393 11539,10390 11544,10387 11549,10383 11554,10379 11558,10375 11562,10370 11566,10365 11569,10360 11571,10354 11574,10348 11575,10342 11577,10336 11578,10330 11578,10319 "  />
<polyline stroke-width="12" stroke="rgb(0,0,0)" fill="none"  points="11295,10234 11301,10235 11307,10236 11314,10236 11320,10236 11326,10235 11332,10234 11338,10232 11344,10230 11350,10227 11355,10224 11360,10221 11365,10217 11370,10213 11374,10208 11378,10203 11381,10198 11384,10192 11387,10187 11389,10181 11391,10175 11392,10169 11393,10163 11393,10154 "  />
<polyline stroke-width="12" stroke="rgb(0,0,0)" fill="none"  points="11346,10280 11351,10283 11356,10285 11361,10287 11366,10289 11372,10290 11377,10290 11383,10291 11389,10291 11394,10290 11400,10289 11405,10287 11410,10286 11415,10283 11420,10281 11425,10277 11429,10274 11433,10270 11437,10266 11441,10262 11444,10257 11446,10252 11449,10247 11451,10242 11452,10237 11453,10231 11454,10226 11454,10220 11454,10212 "  />
<path stroke-width="12" stroke="rgb(0,0,0)" fill="none"  d="M10513 10522 L11114 10179 "  />
<path stroke-width="12" stroke="rgb(0,0,0)" fill="none"  d="M9576 10800 L9455 10726 "  />
<path stroke-width="12" stroke="rgb(0,0,0)" fill="none"  d="M9621 10615 L9710 10013 "  />
<polyline stroke-width="12" stroke="rgb(0,0,0)" fill="none"  points="9984,9975 9958,9994 9933,10015 9911,10039 9890,10063 9871,10090 9845,10135 "  />
<polyline stroke-width="12" stroke="rgb(0,0,0)" fill="none"  points="10005,9970 10003,9978 10001,9987 10000,9996 10000,10004 10000,10013 10001,10022 10003,10030 10005,10039 10008,10047 10012,10055 10016,10062 10021,10070 10026,10076 10032,10083 10039,10089 10050,10097 "  />
<path stroke-width="12" stroke="rgb(0,0,0)" fill="none"  d="M9557 9767 L9411 9678 "  />
<polyline stroke-width="12" stroke="rgb(0,0,0)" fill="none"  points="9558,9768 9572,9777 9587,9785 9602,9792 9618,9797 9634,9801 9651,9804 9667,9806 9684,9806 9701,9805 9717,9803 9734,9799 9750,9794 9765,9788 9780,9781 9798,9770 "  />
<path stroke-width="12" stroke="rgb(0,0,0)" fill="none"  d="M9602 9938 L9281 9754 "  />
<path stroke-width="12" stroke="rgb(0,0,0)" fill="none"  d="M9710 10013 L9601 9936 "  />
<path stroke-width="12" stroke="rgb(0,0,0)" fill="none"  d="M8902 9548 L9617 9144 "  />
<path stroke-width="12" stroke="rgb(0,0,0)" fill="none"  d="M8902 9548 L8294 9203 "  />
<path stroke-width="12" stroke="rgb(0,0,0)" fill="none"  d="M8059 10214 L8232 10326 "  />
<polyline stroke-width="12" stroke="rgb(0,0,0)" fill="none"  points="8233,10327 8230,10329 8228,10330 8226,10332 8224,10334 8222,10336 8220,10339 8218,10341 8217,10344 8216,10347 8215,10350 8214,10352 8213,10355 8213,10358 8213,10361 8213,10364 8214,10367 8214,10370 8215,10373 8216,10376 8218,10379 8219,10381 8221,10384 8223,10386 8225,10388 8227,10390 8229,10392 8232,10393 8235,10395 "  />
<polyline stroke-width="12" stroke="rgb(0,0,0)" fill="none"  points="7901,10170 7919,10181 7938,10191 7957,10199 7978,10205 7998,10210 8019,10213 8059,10215 "  />
<polyline stroke-width="12" stroke="rgb(0,0,0)" fill="none"  points="8106,10030 8108,10039 8111,10048 8114,10056 8118,10064 8123,10072 8128,10079 8134,10086 8141,10093 8148,10099 8155,10104 8163,10109 8171,10113 8179,10117 8188,10119 8197,10122 8206,10123 8215,10124 8224,10124 8235,10123 "  />
<path stroke-width="12" stroke="rgb(0,0,0)" fill="none"  d="M8959 9564 L9015 9595 "  />
<path stroke-width="12" stroke="rgb(0,0,0)" fill="none"  d="M9914 10379 L9864 10126 "  />
<path stroke-width="12" stroke="rgb(0,0,0)" fill="none"  d="M9825 10430 L9844 10133 "  />
<path stroke-width="12" stroke="rgb(0,0,0)" fill="none"  d="M10203 10198 L10050 10096 "  />
<path stroke-width="12" stroke="rgb(0,0,0)" fill="none"  d="M9801 10937 L9928 11024 "  />
<path stroke-width="12" stroke="rgb(0,0,0)" fill="none"  d="M8757 9972 L9845 9331 "  />
<path stroke-width="12" stroke="rgb(0,0,0)" fill="none"  d="M7240 8148 L7444 8030 "  />
<path stroke-width="12" stroke="rgb(0,0,0)" fill="none"  d="M10297 10811 L11229 10272 "  />
<path stroke-width="12" stroke="rgb(0,0,0)" fill="none"  d="M9729 10566 L10862 9905 "  />
<path stroke-width="12" stroke="rgb(0,0,0)" fill="none"  d="M7919 10096 L8114 8963 "  />
<path stroke-width="12" stroke="rgb(0,0,0)" fill="none"  d="M6850 9354 L7092 9519 "  />
<path stroke-width="12" stroke="rgb(0,0,0)" fill="none"  d="M7587 9856 L7679 9918 "  />
<path stroke-width="12" stroke="rgb(0,0,0)" fill="none"  d="M7388 9720 L7499 9796 "  />
<path stroke-width="12" stroke="rgb(0,0,0)" fill="none"  d="M7170 9572 L7295 9657 "  />
<path stroke-width="12" stroke="rgb(0,0,0)" fill="none"  d="M7840 9721 L7861 9616 "  />
<path stroke-width="12" stroke="rgb(0,0,0)" fill="none"  d="M7875 9549 L7895 9447 "  />
<path stroke-width="12" stroke="rgb(0,0,0)" fill="none"  d="M7907 9387 L7920 9324 "  />
<path stroke-width="12" stroke="rgb(0,0,0)" fill="none"  d="M5285 7151 L5163 7181 "  />
<path stroke-width="12" stroke="rgb(0,0,0)" fill="none"  d="M5854 7394 L5395 7094 "  />
<path stroke-width="12" stroke="rgb(0,0,0)" fill="none"  d="M5717 7468 L5285 7151 "  />
<path stroke-width="12" stroke="rgb(0,0,0)" fill="none"  d="M3274 6344 L3527 6472 "  />
<polyline stroke-width="12" stroke="rgb(0,0,0)" fill="none"  points="3215,6224 3201,6231 3187,6240 3175,6249 3163,6259 3152,6271 3141,6283 3132,6296 3124,6309 3117,6323 3111,6338 3103,6366 "  />
<path stroke-width="12" stroke="rgb(0,0,0)" fill="none"  d="M1113 5332 L2373 6326 "  />
<path stroke-width="12" stroke="rgb(0,0,0)" fill="none"  d="M3812 4846 L3757 4679 "  />
<path stroke-width="12" stroke="rgb(0,0,0)" fill="none"  d="M3757 4679 L3571 4698 "  />
<path stroke-width="12" stroke="rgb(0,0,0)" fill="none"  d="M3571 4698 L3497 4642 "  />
<path stroke-width="12" stroke="rgb(0,0,0)" fill="none"  d="M3497 4642 L3497 4874 "  />
<path stroke-width="12" stroke="rgb(0,0,0)" fill="none"  d="M2567 4716 L2567 3935 "  />
<path stroke-width="12" stroke="rgb(0,0,0)" fill="none"  d="M2456 4698 L2530 4419 "  />
<path stroke-width="12" stroke="rgb(0,0,0)" fill="none"  d="M2530 4419 L2530 3940 "  />
<path stroke-width="12" stroke="rgb(0,0,0)" fill="none"  d="M2586 4549 L2623 4475 "  />
<path stroke-width="12" stroke="rgb(0,0,0)" fill="none"  d="M2623 4475 L2642 4047 "  />
<path stroke-width="12" stroke="rgb(0,0,0)" fill="none"  d="M2642 4047 L2567 3973 "  />
<path stroke-width="12" stroke="rgb(0,0,0)" fill="none"  d="M1591 3548 L1721 3537 "  />
<path stroke-width="12" stroke="rgb(0,0,0)" fill="none"  d="M1758 3568 L1876 3550 "  />
<polyline stroke-width="12" stroke="rgb(0,0,0)" fill="none"  points="3752,4977 3735,4968 3717,4959 "  />
<path stroke-width="12" stroke="rgb(0,0,0)" fill="none"  d="M6730 8840 L6493 8694 "  />
<path stroke-width="12" stroke="rgb(0,0,0)" fill="none"  d="M6847 8915 L6726 8840 "  />
<path stroke-width="12" stroke="rgb(0,0,0)" fill="none"  d="M9806 10940 L9576 10800 "  />
<path stroke-width="12" stroke="rgb(0,0,0)" fill="none"  d="M5076 8171 L5039 8079 "  />
<path stroke-width="12" stroke="rgb(0,0,0)" fill="none"  d="M4810 7963 L4913 7995 "  />
<path stroke-width="12" stroke="rgb(0,0,0)" fill="none"  d="M2567 3935 L2530 3940 "  />
<path stroke-width="12" stroke="rgb(0,0,0)" fill="none"  d="M10353 9501 L10384 9483 "  />
<polyline stroke-width="12" stroke="rgb(0,0,0)" fill="none"  points="11658,10389 11613,10348 11567,10307 "  />
<polyline stroke-width="12" stroke="rgb(0,0,0)" fill="none"  points="10053,9171 10016,9140 9979,9110 "  />
<polyline stroke-width="12" stroke="rgb(0,0,0)" fill="none"  points="10191,9131 9953,8939 9715,8750 "  />
<path stroke-width="12" stroke="rgb(0,0,0)" fill="none"  d="M8763 8719 L8403 8915 "  />
<path stroke-width="12" stroke="rgb(0,0,0)" fill="none"  d="M8648 8655 L8114 8963 "  />
<path stroke-width="12" stroke="rgb(0,0,0)" fill="none"  d="M6985 7814 L6879 7874 "  />
<path stroke-width="12" stroke="rgb(0,0,0)" fill="none"  d="M6754 7688 L6515 7824 "  />
<path stroke-width="12" stroke="rgb(0,0,0)" fill="none"  d="M6864 7747 L6637 7877 "  />
<path stroke-width="12" stroke="rgb(0,0,0)" fill="none"  d="M4997 6963 L5099 6903 "  />
<polyline stroke-width="12" stroke="rgb(0,0,0)" fill="none"  points="5208,6965 5187,6978 5168,6993 5150,7009 5133,7027 5118,7046 5104,7066 5092,7087 5081,7110 5072,7132 5061,7175 "  />
<polyline stroke-width="12" stroke="rgb(0,0,0)" fill="none"  points="8172,7749 7166,7133 6138,6552 "  />
<polyline stroke-width="12" stroke="rgb(0,0,0)" fill="none"  points="8153,7597 7184,7006 6196,6449 "  />
<path stroke-width="12" stroke="rgb(0,0,0)" fill="none"  d="M2191 4145 L2622 8081 "  />
<path stroke-width="12" stroke="rgb(0,0,0)" fill="none"  d="M2518 6690 L2865 6964 "  />
<path stroke-width="12" stroke="rgb(0,0,0)" fill="none"  d="M2539 6457 L3059 6867 "  />
<path stroke-width="12" stroke="rgb(0,0,0)" fill="none"  d="M2344 6070 L1229 5199 "  />
<path stroke-width="12" stroke="rgb(0,0,0)" fill="none"  d="M2421 5609 L3831 6258 "  />
<path stroke-width="12" stroke="rgb(0,0,0)" fill="none"  d="M2382 5522 L3980 6258 "  />
<path stroke-width="12" stroke="rgb(0,0,0)" fill="none"  d="M2251 5312 L1155 4809 "  />
<path stroke-width="12" stroke="rgb(0,0,0)" fill="none"  d="M2194 4654 L908 4366 "  />
<path stroke-width="12" stroke="rgb(0,0,0)" fill="none"  d="M2338 5996 L1248 5144 "  />
<circle cx="10622" cy="4032" r="225" fill="none" stroke="rgb(0,0,0)" stroke-width="12"    />
<circle cx="10622" cy="4032" r="225" fill="none" stroke="rgb(0,0,0)" stroke-width="12"    />
<text id="T6" x="10549" y="3913" textLength="250" igTextHeight="269" lengthAdjust="spacingAndGlyphs" text-anchor="start" transform="translate(10549,3913) scale(1,-1) rotate(-0) translate(-10549,-3913)"  ><tspan  font-family="helvetica" fill="rgb(0,0,0)"  font-size="269"  >A</tspan></text>
<circle cx="10689" cy="5765" r="225" fill="none" stroke="rgb(0,0,0)" stroke-width="12"    />
<circle cx="10689" cy="5765" r="225" fill="none" stroke="rgb(0,0,0)" stroke-width="12"    />
<text id="T7" x="10603" y="5629" textLength="250" igTextHeight="269" lengthAdjust="spacingAndGlyphs" text-anchor="start" transform="translate(10603,5629) scale(1,-1) rotate(-0) translate(-10603,-5629)"  ><tspan  font-family="helvetica" fill="rgb(0,0,0)"  font-size="269"  >B</tspan></text>
<circle cx="8867" cy="3010" r="225" fill="none" stroke="rgb(0,0,0)" stroke-width="12"    />
<circle cx="8867" cy="3010" r="225" fill="none" stroke="rgb(0,0,0)" stroke-width="12"    />
<text id="T8" x="8776" y="2872" textLength="270" igTextHeight="269" lengthAdjust="spacingAndGlyphs" text-anchor="start" transform="translate(8776,2872) scale(1,-1) rotate(-0) translate(-8776,-2872)"  ><tspan  font-family="helvetica" fill="rgb(0,0,0)"  font-size="269"  >C</tspan></text>
<circle cx="7172" cy="2036" r="225" fill="none" stroke="rgb(0,0,0)" stroke-width="12"    />
<circle cx="7172" cy="2036" r="225" fill="none" stroke="rgb(0,0,0)" stroke-width="12"    />
<circle cx="3392" cy="2047" r="225" fill="none" stroke="rgb(0,0,0)" stroke-width="12"    />
<circle cx="3392" cy="2047" r="225" fill="none" stroke="rgb(0,0,0)" stroke-width="12"    />
<text id="T9" x="2489" y="8131" textLength="278" igTextHeight="180" lengthAdjust="spacingAndGlyphs" text-anchor="start" transform="translate(2489,8131) scale(1,-1) rotate(-0) translate(-2489,-8131)"  ><tspan  font-family="helvetica" fill="rgb(0,0,0)"  font-size="180"  >60</tspan></text>
<text id="T10" x="4124" y="3574" textLength="278" igTextHeight="180" lengthAdjust="spacingAndGlyphs" text-anchor="start" transform="translate(4124,3574) scale(1,-1) rotate(-0) translate(-4124,-3574)"  ><tspan  font-family="helvetica" fill="rgb(0,0,0)"  font-size="180"  >65</tspan></text>
<text id="T11" x="9560" y="6146" textLength="278" igTextHeight="180" lengthAdjust="spacingAndGlyphs" text-anchor="start" transform="translate(9560,6146) scale(1,-1) rotate(-0) translate(-9560,-6146)"  ><tspan  font-family="helvetica" fill="rgb(0,0,0)"  font-size="180"  >70</tspan></text>
<polyline stroke-width="12" stroke="rgb(0,0,0)" fill="none"  points="9665,8711 9665,8711 9665,8711 9665,8711 9665,8712 9665,8712 9666,8713 9666,8713 9666,8713 9666,8714 9666,8714 9666,8714 9665,8718 9664,8722 9663,8726 9662,8730 9662,8730 9658,8738 9654,8745 9654,8745 9647,8755 9640,8765 9640,8765 9632,8775 9624,8783 9624,8783 9617,8789 9610,8796 9610,8796 9607,8798 9604,8800 9600,8802 9596,8803 9596,8803 9596,8803 9595,8803 9595,8803 "  />
<polyline stroke-width="12" stroke="rgb(0,0,0)" fill="none"  points="9714,8749 9714,8749 9714,8749 9714,8750 9714,8750 9714,8750 9714,8751 9714,8752 9714,8752 9714,8752 9714,8752 9714,8756 9713,8760 9712,8764 9710,8768 9710,8768 9706,8776 9702,8783 9702,8783 9695,8794 9688,8803 9688,8803 9681,8813 9672,8822 9672,8822 9666,8828 9659,8833 9659,8833 9656,8836 9652,8838 9648,8839 9645,8841 9645,8841 9645,8841 9644,8841 9643,8841 9643,8841 "  />
<polyline stroke-width="12" stroke="rgb(0,0,0)" fill="none"  points="5536,6099 5536,6099 5536,6103 5536,6107 5536,6111 5535,6115 5535,6115 5532,6124 5529,6132 5529,6132 5524,6144 5518,6155 5518,6155 5512,6166 5505,6176 5505,6176 5500,6184 5493,6190 5493,6190 5491,6194 5487,6197 5484,6199 5481,6201 5481,6201 5480,6201 5480,6201 5479,6201 5479,6201 5478,6201 5478,6202 "  />
<polyline stroke-width="12" stroke="rgb(0,0,0)" fill="none"  points="5479,6069 5479,6069 5479,6073 5479,6078 5479,6081 5478,6086 5478,6086 5475,6094 5472,6103 5472,6103 5467,6114 5461,6125 5461,6125 5455,6136 5448,6147 5448,6147 5443,6154 5437,6161 5437,6161 5434,6164 5431,6167 5428,6169 5424,6172 5424,6172 5423,6172 5423,6172 5423,6172 5422,6172 5421,6172 5421,6172 5421,6172 "  />
<polyline stroke-width="12" stroke="rgb(0,0,0)" fill="none"  points="6138,6418 6138,6418 6138,6418 6138,6418 6138,6418 6138,6419 6138,6419 6138,6423 6138,6427 6137,6431 6137,6435 6137,6435 6134,6444 6131,6453 6131,6453 6126,6465 6120,6476 6120,6476 6114,6487 6107,6497 6107,6497 6102,6504 6096,6511 6096,6511 6093,6514 6090,6517 6086,6519 6082,6521 6082,6521 6082,6521 6082,6522 "  />
<polyline stroke-width="12" stroke="rgb(0,0,0)" fill="none"  points="6195,6448 6195,6448 6195,6448 6195,6448 6195,6448 6195,6449 6195,6449 6195,6452 6195,6457 6195,6461 6194,6465 6194,6465 6191,6474 6188,6482 6188,6482 6183,6494 6177,6505 6177,6505 6171,6516 6164,6526 6164,6526 6159,6534 6153,6541 6153,6541 6150,6544 6147,6546 6143,6549 6140,6551 6140,6551 6139,6551 6139,6551 6139,6552 6138,6552 6138,6552 "  />
<polyline stroke-width="12" stroke="rgb(0,0,0)" fill="none"  points="7818,7387 7818,7387 7818,7387 7818,7388 7818,7389 7818,7389 7818,7389 7818,7390 7818,7390 7818,7394 7818,7398 7817,7402 7817,7406 7817,7406 7813,7415 7810,7423 7810,7423 7805,7434 7799,7445 7799,7445 7792,7456 7785,7466 7785,7466 7780,7473 7774,7480 7774,7480 7771,7482 7768,7484 7764,7487 7760,7489 7760,7489 7760,7489 7760,7489 7759,7489 7759,7489 7759,7489 "  />
<polyline stroke-width="12" stroke="rgb(0,0,0)" fill="none"  points="7768,7357 7768,7357 7768,7358 7768,7358 7769,7358 7769,7359 7769,7359 7769,7362 7768,7367 7768,7371 7766,7375 7766,7375 7764,7383 7760,7392 7760,7392 7755,7403 7749,7414 7749,7414 7743,7424 7736,7434 7736,7434 7730,7441 7724,7448 7724,7448 7721,7451 7718,7453 7715,7456 7711,7458 7711,7458 7710,7458 7710,7458 7710,7458 7709,7458 7708,7458 7708,7458 7707,7458 "  />
<path stroke-width="12" stroke="rgb(0,0,0)" fill="none"  d="M4167 5763 L4203 5694 "  />
<polyline stroke-width="12" stroke="rgb(0,0,0)" fill="none"  points="4168,5764 4167,5767 4165,5770 4164,5774 4164,5777 4163,5781 4163,5786 "  />
<polyline stroke-width="12" stroke="rgb(0,0,0)" fill="none"  points="4168,5764 4167,5767 4165,5770 4164,5774 4164,5777 4163,5781 4163,5786 "  />
<path stroke-width="12" stroke="rgb(0,0,0)" fill="none"  d="M4703 5437 L4488 5262 "  />
<polyline stroke-width="12" stroke="rgb(0,0,0)" fill="none"  points="4489,5263 4486,5261 4483,5259 4480,5257 4476,5256 4473,5255 4470,5254 4466,5253 4462,5253 4459,5253 4455,5253 4452,5254 4448,5255 4445,5256 4441,5257 4438,5259 4435,5261 4432,5263 4429,5265 4427,5268 4424,5270 4422,5273 4420,5277 "  />
<polyline stroke-width="12" stroke="rgb(0,0,0)" fill="none"  points="4721,5473 4721,5469 4720,5465 4719,5461 4717,5457 4716,5454 4714,5450 4712,5447 4709,5443 4704,5438 "  />
<path stroke-width="12" stroke="rgb(0,0,0)" fill="none"  d="M4719 5512 L4719 5472 "  />
<polyline stroke-width="12" stroke="rgb(0,0,0)" fill="none"  points="4630,5669 4642,5661 4654,5653 4664,5643 4674,5633 4684,5622 4692,5610 4699,5597 4705,5584 4711,5571 4715,5557 4718,5543 4720,5529 4721,5513 "  />
<polyline stroke-width="12" stroke="rgb(0,0,0)" fill="none"  points="4444,5460 4444,5460 4443,5460 4443,5460 4442,5460 "  />
<polyline stroke-width="12" stroke="rgb(0,0,0)" fill="none"  points="4498,5355 4498,5355 4499,5355 4499,5355 4499,5355 4500,5356 4500,5356 4501,5356 4501,5356 4501,5357 4502,5357 4502,5357 4502,5357 4502,5358 4503,5358 4503,5359 4503,5359 4503,5359 4503,5360 4503,5360 4503,5360 4503,5360 4503,5365 4503,5369 4503,5373 4502,5377 4502,5377 4499,5385 4496,5394 4496,5394 4491,5405 4486,5416 4486,5416 4480,5426 4473,5437 4473,5437 4467,5444 4461,5451 4461,5451 4458,5454 4455,5456 4452,5459 4448,5460 4448,5460 4448,5461 4448,5461 4447,5461 4447,5461 4447,5461 4446,5462 4445,5462 4445,5461 4445,5461 4444,5461 4444,5461 4444,5460 "  />
<path stroke-width="12" stroke="rgb(0,0,0)" fill="none"  d="M4414 5288 L4420 5276 "  />
<polyline stroke-width="12" stroke="rgb(0,0,0)" fill="none"  points="4163,5786 4163,5793 4164,5800 4166,5807 4168,5813 4170,5820 4173,5826 4177,5832 4181,5838 4185,5843 4190,5848 4195,5853 4200,5857 4206,5860 4212,5864 4219,5867 4225,5869 4232,5871 4239,5872 "  />
<path stroke-width="12" stroke="rgb(0,0,0)" fill="none"  d="M4376 5814 L4630 5668 "  />
<path stroke-width="12" stroke="rgb(0,0,0)" fill="none"  d="M4365 5202 L4129 5088 "  />
<path stroke-width="12" stroke="rgb(0,0,0)" fill="none"  d="M4448 5537 L4226 5400 "  />
<path stroke-width="12" stroke="rgb(0,0,0)" fill="none"  d="M4391 5641 L4262 5561 "  />
<polyline stroke-width="12" stroke="rgb(0,0,0)" fill="none"  points="4444,5534 4444,5534 4445,5534 4445,5534 4446,5534 4446,5535 4447,5535 4447,5535 4447,5535 4447,5536 4448,5536 4448,5536 4448,5536 4448,5537 4449,5537 4449,5537 4449,5537 4450,5538 4450,5539 4450,5539 4450,5539 4450,5539 4450,5543 4450,5548 4449,5551 4448,5556 4448,5556 4445,5564 4442,5573 4442,5573 4438,5584 4432,5595 4432,5595 4426,5605 4419,5616 4419,5616 4414,5623 4408,5630 4408,5630 4405,5633 4401,5635 4398,5637 4395,5640 4395,5640 4395,5640 4394,5640 4394,5640 4394,5640 4393,5641 4392,5641 4392,5641 4392,5641 4391,5640 4391,5640 4391,5640 4390,5640 "  />
<path stroke-width="12" stroke="rgb(0,0,0)" fill="none"  d="M4148 5352 L3589 5010 "  />
<path stroke-width="12" stroke="rgb(0,0,0)" fill="none"  d="M4142 5488 L3255 4945 "  />
<path stroke-width="12" stroke="rgb(0,0,0)" fill="none"  d="M3364 4793 L2685 4217 "  />
<path stroke-width="12" stroke="rgb(0,0,0)" fill="none"  d="M2661 4320 L3260 4830 "  />
<path stroke-width="12" stroke="rgb(0,0,0)" fill="none"  d="M2653 4435 L3062 4793 "  />
<path stroke-width="12" stroke="rgb(0,0,0)" fill="none"  d="M2488 4287 L1591 3548 "  />
<path stroke-width="12" stroke="rgb(0,0,0)" fill="none"  d="M2498 4184 L1721 3537 "  />
<path stroke-width="12" stroke="rgb(0,0,0)" fill="none"  d="M2515 4080 L1876 3550 "  />
<circle cx="7763" cy="2383" r="225" fill="none" stroke="rgb(0,0,0)" stroke-width="12"    />
<circle cx="7763" cy="2383" r="225" fill="none" stroke="rgb(0,0,0)" stroke-width="12"    />
<circle cx="9638" cy="3441" r="225" fill="none" stroke="rgb(0,0,0)" stroke-width="12"    />
<circle cx="9638" cy="3441" r="225" fill="none" stroke="rgb(0,0,0)" stroke-width="12"    />
<text id="T12" x="9560" y="3300" textLength="250" igTextHeight="269" lengthAdjust="spacingAndGlyphs" text-anchor="start" transform="translate(9560,3300) scale(1,-1) rotate(-0) translate(-9560,-3300)"  ><tspan  font-family="helvetica" fill="rgb(0,0,0)"  font-size="269"  >B</tspan></text>
<polyline stroke-width="12" stroke="rgb(0,0,0)" fill="none"  points="11520,10261 11502,10228 11482,10196 "  />
<polyline stroke-width="12" stroke="rgb(0,0,0)" fill="none"  points="11619,10179 11605,10152 11590,10126 "  />
<polyline stroke-width="12" stroke="rgb(0,0,0)" fill="none"  points="4130,5269 3947,5159 3763,5051 "  />
<polyline stroke-width="12" stroke="rgb(0,0,0)" fill="none"  points="4107,5118 4088,5106 4070,5095 "  />
<polyline stroke-width="12" stroke="rgb(0,0,0)" fill="none"  points="4445,5462 4325,5388 4205,5315 "  />
<polyline stroke-width="12" stroke="rgb(0,0,0)" fill="none"  points="4504,5360 4340,5259 4177,5159 "  />
<polyline stroke-width="12" stroke="rgb(0,0,0)" fill="none"  points="9689,8878 8990,8338 8278,7818 "  />
<polyline stroke-width="12" stroke="rgb(0,0,0)" fill="none"  points="9715,8750 9002,8202 8277,7672 "  />
<path stroke-width="12" stroke="rgb(0,0,0)" fill="none"  d="M3753 4917 L3812 4846 "  />
<polyline stroke-width="12" stroke="rgb(0,0,0)" fill="none"  points="10599,9627 10442,9494 10285,9361 "  />
<polyline stroke-width="12" stroke="rgb(0,0,0)" fill="none"  points="10544,9422 10508,9392 10473,9363 "  />
<polyline stroke-width="12" stroke="rgb(0,0,0)" fill="none"  points="11053,9854 10917,9737 10780,9621 "  />
<polyline stroke-width="12" stroke="rgb(0,0,0)" fill="none"  points="11467,10218 11404,10161 11341,10106 "  />
<polyline stroke-width="12" stroke="rgb(0,0,0)" fill="none"  points="11535,10454 11202,10152 10865,9855 "  />
<path stroke-width="12" stroke="rgb(0,0,0)" fill="none"  d="M11454 10451 L11368 10500 "  />
<path stroke-width="12" stroke="rgb(0,0,0)" fill="none"  d="M11744 10424 L11823 10379 "  />
<path stroke-width="12" stroke="rgb(0,0,0)" fill="none"  d="M11301 10417 L11301 13781 "  />
<path stroke-width="12" stroke="rgb(0,0,0)" fill="none"  d="M11369 12328 L11469 12318 "  />
<path stroke-width="12" stroke="rgb(0,0,0)" fill="none"  d="M11379 12084 L11468 12076 "  />
<path stroke-width="12" stroke="rgb(0,0,0)" fill="none"  d="M11365 11956 L13001 11015 "  />
<path stroke-width="12" stroke="rgb(0,0,0)" fill="none"  d="M11362 11811 L12733 11019 "  />
<path stroke-width="12" stroke="rgb(0,0,0)" fill="none"  d="M11351 11621 L11432 11574 "  />
<path stroke-width="12" stroke="rgb(0,0,0)" fill="none"  d="M11350 11491 L11396 11464 "  />
<path stroke-width="12" stroke="rgb(0,0,0)" fill="none"  d="M11354 10637 L11432 10592 "  />
<path stroke-width="12" stroke="rgb(0,0,0)" fill="none"  d="M11234 10575 L11037 10686 "  />
<text id="T13" x="11068" y="14471" textLength="529" igTextHeight="180" lengthAdjust="spacingAndGlyphs" text-anchor="start" transform="translate(11068,14471) scale(1,-1) rotate(-0) translate(-11068,-14471)"  ><tspan  font-family="helvetica" fill="rgb(0,0,0)"  font-size="180"  >NAC</tspan></text>
<text id="T14" x="11090" y="14180" textLength="487" igTextHeight="180" lengthAdjust="spacingAndGlyphs" text-anchor="start" transform="translate(11090,14180) scale(1,-1) rotate(-0) translate(-11090,-14180)"  ><tspan  font-family="helvetica" fill="rgb(0,0,0)"  font-size="180"  >STA</tspan></text>
<text id="T15" x="10907" y="13892" textLength="765" igTextHeight="180" lengthAdjust="spacingAndGlyphs" text-anchor="start" transform="translate(10907,13892) scale(1,-1) rotate(-0) translate(-10907,-13892)"  ><tspan  font-family="helvetica" fill="rgb(0,0,0)"  font-size="180"  >361.19</tspan></text>
<polyline stroke-width="12" stroke="rgb(0,0,0)" fill="none"  points="13757,11089 13865,11084 13974,11076 "  />
<polyline stroke-width="12" stroke="rgb(0,0,0)" fill="none"  points="14048,11069 14103,11063 14156,11056 "  />
<polyline stroke-width="12" stroke="rgb(0,0,0)" fill="none"  points="14210,11048 14264,11039 14318,11030 "  />
<path stroke-width="12" stroke="rgb(0,0,0)" fill="none"  d="M13361 10921 L13461 10921 "  />
<path stroke-width="12" stroke="rgb(0,0,0)" fill="none"  d="M13527 10921 L13613 10921 "  />
<path stroke-width="12" stroke="rgb(0,0,0)" fill="none"  d="M13668 10921 L13755 10921 "  />
<polyline stroke-width="12" stroke="rgb(0,0,0)" fill="none"  points="13757,10922 13862,10917 13966,10910 "  />
<polyline stroke-width="12" stroke="rgb(0,0,0)" fill="none"  points="14074,10899 14129,10892 14184,10885 "  />
<polyline stroke-width="12" stroke="rgb(0,0,0)" fill="none"  points="14256,10874 14306,10865 14357,10855 "  />
<path stroke-width="12" stroke="rgb(0,0,0)" fill="none"  d="M14778 10762 L14886 10739 "  />
<polyline stroke-width="12" stroke="rgb(0,0,0)" fill="none"  points="14956,10925 14969,10918 14982,10909 14994,10900 15006,10890 15016,10879 15026,10867 15034,10854 15042,10841 15049,10827 15054,10813 15058,10798 15062,10783 15063,10768 15064,10753 15064,10737 15060,10710 "  />
<path stroke-width="12" stroke="rgb(0,0,0)" fill="none"  d="M15133 10687 L15168 10680 "  />
<path stroke-width="12" stroke="rgb(0,0,0)" fill="none"  d="M14967 10722 L15087 10697 "  />
<path stroke-width="12" stroke="rgb(0,0,0)" fill="none"  d="M924 4485 L876 4419 "  />
<path stroke-width="12" stroke="rgb(0,0,0)" fill="none"  d="M1027 4631 L967 4546 "  />
<path stroke-width="12" stroke="rgb(0,0,0)" fill="none"  d="M996 4964 L969 5061 "  />
<path stroke-width="12" stroke="rgb(0,0,0)" fill="none"  d="M902 5101 L969 5061 "  />
<path stroke-width="12" stroke="rgb(0,0,0)" fill="none"  d="M736 5196 L828 5144 "  />
<path stroke-width="12" stroke="rgb(0,0,0)" fill="none"  d="M668 5115 L728 4995 "  />
<path stroke-width="12" stroke="rgb(0,0,0)" fill="none"  d="M819 4942 L858 4920 "  />
<path stroke-width="12" stroke="rgb(0,0,0)" fill="none"  d="M527 5033 L579 4920 "  />
<path stroke-width="12" stroke="rgb(0,0,0)" fill="none"  d="M737 4830 L777 4807 "  />
<path stroke-width="12" stroke="rgb(0,0,0)" fill="none"  d="M892 4684 L914 4737 "  />
<path stroke-width="12" stroke="rgb(0,0,0)" fill="none"  d="M761 4625 L839 4580 "  />
<path stroke-width="12" stroke="rgb(0,0,0)" fill="none"  d="M849 4766 L916 4729 "  />
<path stroke-width="12" stroke="rgb(0,0,0)" fill="none"  d="M623 4671 L598 4549 "  />
<path stroke-width="12" stroke="rgb(0,0,0)" fill="none"  d="M564 4746 L560 4698 "  />
<path stroke-width="12" stroke="rgb(0,0,0)" fill="none"  d="M494 4602 L462 4478 "  />
<path stroke-width="12" stroke="rgb(0,0,0)" fill="none"  d="M574 4411 L653 4363 "  />
<path stroke-width="12" stroke="rgb(0,0,0)" fill="none"  d="M805 4400 L826 4405 "  />
<path stroke-width="12" stroke="rgb(0,0,0)" fill="none"  d="M830 4406 L876 4419 "  />
<path stroke-width="12" stroke="rgb(0,0,0)" fill="none"  d="M12336 9199 L13179 9566 "  />
<path stroke-width="12" stroke="rgb(0,0,0)" fill="none"  d="M9716 8688 L10627 5981 "  />
<path stroke-width="12" stroke="rgb(0,0,0)" fill="none"  d="M7841 7314 L9309 5365 "  />
<path stroke-width="12" stroke="rgb(0,0,0)" fill="none"  d="M3026 4391 L4085 3708 "  />
<path stroke-width="12" stroke="rgb(0,0,0)" fill="none"  d="M4676 5327 L7594 2534 "  />
<path stroke-width="12" stroke="rgb(0,0,0)" fill="none"  d="M3842 4647 L7012 2194 "  />
<polyline stroke-width="12" stroke="rgb(0,0,0)" fill="none"  points="10776,8422 11119,8607 11464,8785 "  />
<path stroke-width="12" stroke="rgb(0,0,0)" fill="none"  d="M9885 7950 L9335 7660 "  />
<path stroke-width="12" stroke="rgb(0,0,0)" fill="none"  d="M8008 6963 L6483 6226 "  />
<path stroke-width="12" stroke="rgb(0,0,0)" fill="none"  d="M6389 6181 L5785 5888 "  />
<path stroke-width="12" stroke="rgb(0,0,0)" fill="none"  d="M10442 8245 L10049 8037 "  />
<path stroke-width="12" stroke="rgb(0,0,0)" fill="none"  d="M10589 8323 L10506 8278 "  />
<polyline stroke-width="12" stroke="rgb(0,0,0)" fill="none"  points="10727,8396 10727,8396 10727,8396 10727,8396 10727,8396 10727,8396 10727,8396 10727,8396 10727,8396 10727,8396 10727,8396 10727,8396 10727,8396 10727,8396 10727,8396 10727,8396 10727,8396 10727,8396 10727,8396 10727,8396 10727,8397 10728,8396 10728,8396 10728,8396 10728,8396 10728,8396 10728,8396 10728,8396 10728,8396 10728,8396 10728,8396 10728,8396 10728,8396 10728,8396 10728,8396 10728,8396 10728,8396 10728,8396 10728,8396 10728,8396 10728,8396 "  />
<path stroke-width="12" stroke="rgb(0,0,0)" fill="none"  d="M9060 8149 L9695 6386 "  />
<path stroke-width="12" stroke="rgb(0,0,0)" fill="none"  d="M6631 1315 L6708 1183 "  />
<path stroke-width="12" stroke="rgb(0,0,0)" fill="none"  d="M8854 2401 L8919 2288 "  />
<path stroke-width="12" stroke="rgb(0,0,0)" fill="none"  d="M11064 3869 L11139 3741 "  />
<path stroke-width="12" stroke="rgb(0,0,0)" fill="none"  d="M11139 3741 L6708 1183 "  />
<text id="T16" x="7677" y="2255" textLength="250" igTextHeight="269" lengthAdjust="spacingAndGlyphs" text-anchor="start" transform="translate(7677,2255) scale(1,-1) rotate(-0) translate(-7677,-2255)"  ><tspan  font-family="helvetica" fill="rgb(0,0,0)"  font-size="269"  >E</tspan></text>
<text id="T17" x="3314" y="1908" textLength="270" igTextHeight="269" lengthAdjust="spacingAndGlyphs" text-anchor="start" transform="translate(3314,1908) scale(1,-1) rotate(-0) translate(-3314,-1908)"  ><tspan  font-family="helvetica" fill="rgb(0,0,0)"  font-size="269"  >D</tspan></text>
<text id="T18" x="7091" y="1897" textLength="270" igTextHeight="269" lengthAdjust="spacingAndGlyphs" text-anchor="start" transform="translate(7091,1897) scale(1,-1) rotate(-0) translate(-7091,-1897)"  ><tspan  font-family="helvetica" fill="rgb(0,0,0)"  font-size="269"  >D</tspan></text>
<text id="T19" x="8809" y="2055" textLength="278" igTextHeight="180" lengthAdjust="spacingAndGlyphs" text-anchor="start" transform="translate(8809,2055) scale(1,-1) rotate(-0) translate(-8809,-2055)"  ><tspan  font-family="helvetica" fill="rgb(0,0,0)"  font-size="180"  >10</tspan></text>
<polyline stroke-width="12" stroke="rgb(0,0,0)" fill="none"  points="11927,12298 11861,12292 11794,12291 "  />
<polyline stroke-width="12" stroke="rgb(0,0,0)" fill="none"  points="12123,12337 12069,12322 12013,12310 "  />
<polyline stroke-width="12" stroke="rgb(0,0,0)" fill="none"  points="12307,12408 12253,12383 12198,12361 "  />
<polyline stroke-width="12" stroke="rgb(0,0,0)" fill="none"  points="12324,12185 12268,12157 12210,12132 "  />
<polyline stroke-width="12" stroke="rgb(0,0,0)" fill="none"  points="12133,12104 12054,12082 11974,12065 "  />
<path stroke-width="12" stroke="rgb(0,0,0)" fill="none"  d="M11551 12067 L11674 12054 "  />
<path stroke-width="12" stroke="rgb(0,0,0)" fill="none"  d="M11547 12310 L11692 12296 "  />
<path stroke-width="12" stroke="rgb(0,0,0)" fill="none"  d="M2619 3941 L3309 2256 "  />
<circle cx="9413" cy="5166" r="225" fill="none" stroke="rgb(0,0,0)" stroke-width="12"    />
<circle cx="9413" cy="5166" r="225" fill="none" stroke="rgb(0,0,0)" stroke-width="12"    />
<text id="T20" x="9322" y="5030" textLength="250" igTextHeight="269" lengthAdjust="spacingAndGlyphs" text-anchor="start" transform="translate(9322,5030) scale(1,-1) rotate(-0) translate(-9322,-5030)"  ><tspan  font-family="helvetica" fill="rgb(0,0,0)"  font-size="269"  >B</tspan></text>
<polyline stroke-width="12" stroke="rgb(0,0,0)" fill="none"  points="5675,6306 5127,6026 4575,5757 "  />
<polyline stroke-width="12" stroke="rgb(0,0,0)" fill="none"  points="5733,6203 5223,5942 4708,5690 "  />
<path stroke-width="12" stroke="rgb(0,0,0)" fill="none"  d="M5656 6353 L5760 6405 "  />
<path stroke-width="12" stroke="rgb(0,0,0)" fill="none"  d="M5754 6167 L5853 6216 "  />
<polyline stroke-width="12" stroke="rgb(0,0,0)" fill="none"  points="5757,6404 5757,6404 5757,6403 5756,6402 "  />
<polyline stroke-width="12" stroke="rgb(0,0,0)" fill="none"  points="5853,6216 5853,6216 5854,6216 5854,6216 5855,6216 5856,6217 5856,6217 5857,6217 5857,6217 5858,6218 5858,6219 5858,6219 5859,6220 5860,6220 5860,6221 5860,6222 5860,6222 5861,6223 5861,6224 5861,6224 5861,6231 5861,6239 5860,6245 5858,6253 5858,6253 5854,6268 5849,6283 5849,6283 5840,6303 5830,6323 5830,6323 5820,6342 5808,6360 5808,6360 5799,6373 5789,6385 5789,6385 5783,6390 5778,6395 5772,6399 5766,6404 5766,6404 5766,6404 5765,6404 5764,6404 5763,6404 5763,6405 5762,6405 5761,6405 5760,6405 5760,6404 5758,6404 5758,6404 5757,6404 "  />
<polyline stroke-width="12" stroke="rgb(0,0,0)" fill="none"  points="5659,6355 5659,6355 5658,6355 5657,6354 5656,6353 5656,6353 5656,6352 5655,6352 5655,6351 5655,6350 5654,6350 5654,6349 5654,6348 5654,6347 5654,6347 5653,6340 5654,6333 5655,6325 5656,6319 5656,6319 5659,6308 5662,6299 "  />
<polyline stroke-width="12" stroke="rgb(0,0,0)" fill="none"  points="6138,6552 5970,6462 5801,6372 "  />
<polyline stroke-width="12" stroke="rgb(0,0,0)" fill="none"  points="6196,6449 6026,6358 5855,6267 "  />
<polyline stroke-width="12" stroke="rgb(0,0,0)" fill="none"  points="5733,6202 5733,6202 5733,6206 5733,6210 5732,6214 5731,6218 5731,6218 5728,6227 5725,6236 5725,6236 5720,6247 5715,6258 5715,6258 5708,6269 5702,6280 5702,6280 5696,6287 5690,6294 5690,6294 5688,6297 5684,6300 5681,6302 5677,6304 5677,6304 5677,6305 5677,6305 5676,6305 5675,6305 5675,6305 5675,6305 5674,6305 5674,6305 "  />
<polyline stroke-width="12" stroke="rgb(0,0,0)" fill="none"  points="5718,6195 5718,6195 5725,6186 5725,6186 5731,6181 5736,6176 5742,6172 5748,6168 5748,6168 5749,6168 5750,6167 5750,6167 5751,6167 5752,6167 5753,6167 5753,6167 5754,6167 5755,6167 5756,6167 5757,6167 5757,6168 5757,6168 5758,6168 5758,6169 5759,6169 5760,6170 5760,6170 5761,6171 5761,6172 5761,6172 5761,6173 5762,6174 5762,6175 5762,6175 5762,6175 5763,6183 5762,6190 5761,6197 5760,6204 5760,6204 5757,6217 5752,6230 "  />
<polyline stroke-width="12" stroke="rgb(0,0,0)" fill="none"  points="5707,6316 5707,6316 5699,6327 5690,6336 5690,6336 5685,6342 5680,6346 5674,6351 5667,6355 5667,6355 5667,6355 5666,6355 5666,6355 5665,6356 5664,6356 5663,6356 5663,6356 5662,6356 5661,6356 5660,6355 5659,6355 5659,6355 "  />
<path stroke-width="12" stroke="rgb(0,0,0)" fill="none"  d="M5697 6328 L5796 6377 "  />
<path stroke-width="12" stroke="rgb(0,0,0)" fill="none"  d="M5759 6208 L5858 6256 "  />
<path stroke-width="12" stroke="rgb(0,0,0)" fill="none"  d="M5858 6218 L5858 6219 "  />
<path stroke-width="12" stroke="rgb(0,0,0)" fill="none"  d="M6218 6380 L9494 3614 "  />
<path stroke-width="12" stroke="rgb(0,0,0)" fill="none"  d="M5167 5810 L6179 4965 "  />
<text id="T21" x="6035" y="4508" textLength="292" igTextHeight="180" lengthAdjust="spacingAndGlyphs" text-anchor="start" transform="translate(6035,4508) scale(1,-1) rotate(-0) translate(-6035,-4508)"  ><tspan  font-family="helvetica" fill="rgb(0,0,0)"  font-size="180"  >ref</tspan></text>
<text id="T22" x="6029" y="4730" textLength="278" igTextHeight="180" lengthAdjust="spacingAndGlyphs" text-anchor="start" transform="translate(6029,4730) scale(1,-1) rotate(-0) translate(-6029,-4730)"  ><tspan  font-family="helvetica" fill="rgb(0,0,0)"  font-size="180"  >60</tspan></text>
<path stroke-width="12" stroke="rgb(0,0,0)" fill="none"  d="M5280 5645 L4948 5484 "  />
<polyline stroke-width="12" stroke="rgb(0,0,0)" fill="none"  points="11505,9912 11502,9909 11498,9907 11490,9903 "  />
<path stroke-width="12" stroke="rgb(0,0,0)" fill="none"  d="M9189 7583 L8150 7034 "  />
<path stroke-width="12" stroke="rgb(0,0,0)" fill="none"  d="M5553 6032 L8723 3183 "  />
<path stroke-width="12" stroke="rgb(0,0,0)" fill="none"  d="M5664 5830 L5389 5697 "  />
<path stroke-width="12" stroke="rgb(0,0,0)" fill="none"  d="M11463 8785 L11578 8842 "  />
<path stroke-width="12" stroke="rgb(0,0,0)" fill="none"  d="M11383 9842 L11488 9902 "  />
<path stroke-width="12" stroke="rgb(0,0,0)" fill="none"  d="M11435 10143 L13080 7964 "  />
<text id="T23" x="13136" y="7661" textLength="250" igTextHeight="269" lengthAdjust="spacingAndGlyphs" text-anchor="start" transform="translate(13136,7661) scale(1,-1) rotate(-0) translate(-13136,-7661)"  ><tspan  font-family="helvetica" fill="rgb(0,0,0)"  font-size="269"  >A</tspan></text>
<circle cx="13209" cy="7780" r="225" fill="none" stroke="rgb(0,0,0)" stroke-width="12"    />
<circle cx="13209" cy="7780" r="225" fill="none" stroke="rgb(0,0,0)" stroke-width="12"    />
<polyline stroke-width="12" stroke="rgb(0,0,0)" fill="none"  points="13161,10885 12414,10438 11661,10000 "  />
<polyline stroke-width="12" stroke="rgb(0,0,0)" fill="none"  points="11578,8842 11836,8968 12096,9091 "  />
<path stroke-width="12" stroke="rgb(0,0,0)" fill="none"  d="M11122 4516 L10808 4164 "  />
<path stroke-width="12" stroke="rgb(0,0,0)" fill="none"  d="M11072 4461 L11080 4412 "  />
<path stroke-width="12" stroke="rgb(0,0,0)" fill="none"  d="M11112 4490 L11088 4456 "  />
<path stroke-width="12" stroke="rgb(0,0,0)" fill="none"  d="M11097 4503 L11061 4477 "  />
<path stroke-width="12" stroke="rgb(0,0,0)" fill="none"  d="M11072 4461 L11023 4463 "  />
<path stroke-width="12" stroke="rgb(0,0,0)" fill="none"  d="M11080 4412 L11200 4605 "  />
<path stroke-width="12" stroke="rgb(0,0,0)" fill="none"  d="M11023 4463 L11200 4605 "  />
<path stroke-width="12" stroke="rgb(0,0,0)" fill="none"  d="M11116 4524 L11153 4552 "  />
<path stroke-width="12" stroke="rgb(0,0,0)" fill="none"  d="M11153 4552 L11132 4515 "  />
<text id="T24" x="8174" y="2570" textLength="278" igTextHeight="180" lengthAdjust="spacingAndGlyphs" text-anchor="start" transform="translate(8174,2570) scale(1,-1) rotate(-0) translate(-8174,-2570)"  ><tspan  font-family="helvetica" fill="rgb(0,0,0)"  font-size="180"  >60</tspan></text>
<text id="T25" x="6486" y="1609" textLength="278" igTextHeight="180" lengthAdjust="spacingAndGlyphs" text-anchor="start" transform="translate(6486,1609) scale(1,-1) rotate(-0) translate(-6486,-1609)"  ><tspan  font-family="helvetica" fill="rgb(0,0,0)"  font-size="180"  >65</tspan></text>
<text id="T26" x="9951" y="3609" textLength="278" igTextHeight="180" lengthAdjust="spacingAndGlyphs" text-anchor="start" transform="translate(9951,3609) scale(1,-1) rotate(-0) translate(-9951,-3609)"  ><tspan  font-family="helvetica" fill="rgb(0,0,0)"  font-size="180"  >70</tspan></text>
<path stroke-width="12" stroke="rgb(0,0,0)" fill="none"  d="M10050 4373 L10060 4333 "  />
<path stroke-width="12" stroke="rgb(0,0,0)" fill="none"  d="M10030 4370 L10026 4326 "  />
<path stroke-width="12" stroke="rgb(0,0,0)" fill="none"  d="M10012 4289 L10023 4515 "  />
<path stroke-width="12" stroke="rgb(0,0,0)" fill="none"  d="M10037 4397 L10093 3929 "  />
<path stroke-width="12" stroke="rgb(0,0,0)" fill="none"  d="M10087 4298 L10023 4515 "  />
<path stroke-width="12" stroke="rgb(0,0,0)" fill="none"  d="M10046 4324 L10086 4298 "  />
<path stroke-width="12" stroke="rgb(0,0,0)" fill="none"  d="M10046 4324 L10012 4289 "  />
<path stroke-width="12" stroke="rgb(0,0,0)" fill="none"  d="M10032 4445 L10045 4405 "  />
<path stroke-width="12" stroke="rgb(0,0,0)" fill="none"  d="M10028 4398 L10032 4445 "  />
<path stroke-width="12" stroke="rgb(0,0,0)" fill="none"  d="M7981 3153 L8015 3129 "  />
<path stroke-width="12" stroke="rgb(0,0,0)" fill="none"  d="M7968 3138 L7994 3101 "  />
<path stroke-width="12" stroke="rgb(0,0,0)" fill="none"  d="M8008 3065 L7868 3243 "  />
<path stroke-width="12" stroke="rgb(0,0,0)" fill="none"  d="M7956 3163 L8304 2845 "  />
<path stroke-width="12" stroke="rgb(0,0,0)" fill="none"  d="M8058 3120 L7868 3243 "  />
<path stroke-width="12" stroke="rgb(0,0,0)" fill="none"  d="M8010 3113 L8058 3120 "  />
<path stroke-width="12" stroke="rgb(0,0,0)" fill="none"  d="M8010 3113 L8008 3064 "  />
<path stroke-width="12" stroke="rgb(0,0,0)" fill="none"  d="M7920 3195 L7957 3173 "  />
<path stroke-width="12" stroke="rgb(0,0,0)" fill="none"  d="M7948 3158 L7920 3195 "  />
<path stroke-width="12" stroke="rgb(0,0,0)" fill="none"  d="M6255 2183 L6291 2163 "  />
<path stroke-width="12" stroke="rgb(0,0,0)" fill="none"  d="M6243 2167 L6272 2133 "  />
<path stroke-width="12" stroke="rgb(0,0,0)" fill="none"  d="M6289 2097 L6134 2262 "  />
<path stroke-width="12" stroke="rgb(0,0,0)" fill="none"  d="M6228 2191 L6605 1907 "  />
<path stroke-width="12" stroke="rgb(0,0,0)" fill="none"  d="M6335 2158 L6134 2262 "  />
<path stroke-width="12" stroke="rgb(0,0,0)" fill="none"  d="M6288 2146 L6335 2157 "  />
<path stroke-width="12" stroke="rgb(0,0,0)" fill="none"  d="M6288 2146 L6289 2097 "  />
<path stroke-width="12" stroke="rgb(0,0,0)" fill="none"  d="M6190 2219 L6228 2201 "  />
<path stroke-width="12" stroke="rgb(0,0,0)" fill="none"  d="M6221 2185 L6190 2219 "  />
<path stroke-width="12" stroke="rgb(0,0,0)" fill="none"  d="M3444 17075 L3462 17111 "  />
<polyline stroke-width="12" stroke="rgb(0,0,0)" fill="none"  points="3327,17385 3348,17407 3370,17426 3393,17444 3418,17461 3445,17475 3472,17487 3500,17497 3529,17504 3558,17510 3588,17513 3617,17513 3647,17512 3677,17508 3706,17501 3734,17493 3767,17480 "  />
<path stroke-width="12" stroke="rgb(0,0,0)" fill="none"  d="M4143 15831 L3106 15663 "  />
<polyline stroke-width="12" stroke="rgb(0,0,0)" fill="none"  points="3793,17300 3085,16790 1748,16031 "  />
<path stroke-width="12" stroke="rgb(0,0,0)" fill="none"  d="M3895 16458 L2738 15790 "  />
<path stroke-width="12" stroke="rgb(0,0,0)" fill="none"  d="M2738 15790 L1973 15978 "  />
<polyline stroke-width="12" stroke="rgb(0,0,0)" fill="none"  points="1974,15978 1689,15835 1394,15714 1090,15617 780,15544 374,15487 "  />
<path stroke-width="12" stroke="rgb(0,0,0)" fill="none"  d="M3312 16087 L3065 15723 "  />
<polyline stroke-width="12" stroke="rgb(0,0,0)" fill="none"  points="1470,16026 931,15739 374,15487 "  />
<polyline stroke-width="12" stroke="rgb(0,0,0)" fill="none"  points="1748,16031 1257,15797 374,15487 "  />
<path stroke-width="12" stroke="rgb(0,0,0)" fill="none"  d="M2423 15665 L2119 15012 "  />
<path stroke-width="12" stroke="rgb(0,0,0)" fill="none"  d="M2464 15756 L2415 15571 "  />
<path stroke-width="12" stroke="rgb(0,0,0)" fill="none"  d="M2409 15591 L2463 15754 "  />
<path stroke-width="12" stroke="rgb(0,0,0)" fill="none"  d="M2464 15756 L2352 15596 "  />
<path stroke-width="12" stroke="rgb(0,0,0)" fill="none"  d="M2463 15754 L2367 15597 "  />
<polyline stroke-width="12" stroke="rgb(0,0,0)" fill="none"  points="2421,15523 2433,15620 2464,15755 "  />
<polyline stroke-width="12" stroke="rgb(0,0,0)" fill="none"  points="2464,15755 2410,15681 2313,15573 "  />
<path stroke-width="12" stroke="rgb(0,0,0)" fill="none"  d="M2387 15591 L2420 15522 "  />
<path stroke-width="12" stroke="rgb(0,0,0)" fill="none"  d="M2387 15591 L2313 15572 "  />
<polyline stroke-width="12" stroke="rgb(0,0,0)" fill="none"  points="3064,15681 3064,15681 3062,15684 3061,15686 3061,15689 3060,15692 3059,15695 3059,15697 3059,15697 3059,15701 3060,15706 3061,15710 3062,15714 3064,15718 3064,15718 3065,15723 "  />
<polyline stroke-width="12" stroke="rgb(0,0,0)" fill="none"  points="3106,15663 3106,15663 3101,15663 3097,15663 3097,15663 3092,15663 3088,15665 3084,15666 3080,15667 3076,15669 3076,15669 3074,15671 3071,15672 3069,15674 3067,15676 3065,15679 3064,15681 "  />
<polyline stroke-width="12" stroke="rgb(0,0,0)" fill="none"  points="2119,15981 2509,16316 2905,16645 "  />
<polyline stroke-width="12" stroke="rgb(0,0,0)" fill="none"  points="3327,17385 2739,16880 1470,16026 "  />
<path stroke-width="12" stroke="rgb(0,0,0)" fill="none"  d="M2232 15914 L2118 15980 "  />
<polyline stroke-width="12" stroke="rgb(0,0,0)" fill="none"  points="3294,16957 3369,17017 3446,17076 "  />
<path stroke-width="12" stroke="rgb(0,0,0)" fill="none"  d="M6541 14884 L6216 15931 "  />
<polyline stroke-width="12" stroke="rgb(0,0,0)" fill="none"  points="4362,16378 4362,16378 4398,16309 4430,16238 4455,16164 4455,16164 4466,16118 4475,16071 4480,16024 4481,15977 4481,15977 4480,15941 4475,15905 4468,15870 4458,15836 4444,15803 4444,15803 4436,15787 4427,15772 4416,15758 4405,15745 4391,15732 4377,15722 4362,15712 4362,15712 4348,15705 4333,15698 4318,15693 "  />
<polyline stroke-width="12" stroke="rgb(0,0,0)" fill="none"  points="3905,16415 3905,16415 3950,16381 3993,16343 4032,16301 4066,16256 4098,16208 4125,16158 4148,16106 4166,16052 4166,16052 4176,16013 4184,15972 4188,15932 4190,15891 4190,15891 4188,15861 4184,15830 4178,15800 4169,15771 4157,15742 4157,15742 4151,15729 4143,15716 4134,15704 4123,15692 4112,15682 4100,15673 4087,15665 4087,15665 4074,15657 4060,15652 4045,15647 4030,15644 4015,15642 4000,15641 3985,15643 3985,15643 3954,15647 3925,15654 3895,15663 3867,15675 3840,15689 3840,15689 3804,15712 3770,15737 3738,15764 "  />
<polyline stroke-width="12" stroke="rgb(0,0,0)" fill="none"  points="5262,16489 5262,16489 5280,16429 5280,16429 5302,16342 5319,16254 5329,16165 5332,16075 5332,16075 5329,16008 5320,15941 5306,15876 5287,15811 5262,15749 5262,15749 5246,15719 5229,15691 5208,15664 5186,15640 5161,15617 5135,15596 5107,15579 5107,15579 5077,15563 5047,15551 5014,15540 4982,15533 4949,15529 4915,15528 4882,15530 4882,15530 4815,15540 4750,15555 4686,15575 4624,15601 4564,15632 4564,15632 4517,15661 4470,15692 "  />
<path stroke-width="12" stroke="rgb(0,0,0)" fill="none"  d="M5115 15829 L4038 15646 "  />
<polyline stroke-width="12" stroke="rgb(0,0,0)" fill="none"  points="5072,16798 5072,16798 5136,16678 5189,16554 5233,16425 5233,16425 5254,16345 5268,16263 5277,16181 5280,16099 5280,16099 5278,16036 5270,15975 5257,15914 5238,15854 5215,15796 5215,15796 5201,15769 5185,15743 5166,15718 5146,15695 5123,15674 5099,15655 5072,15639 5072,15639 5045,15624 5016,15613 4987,15604 4957,15597 4926,15593 4895,15592 4864,15594 4864,15594 4803,15602 4742,15616 4683,15635 4625,15660 4570,15688 4570,15688 4542,15706 "  />
<polyline stroke-width="12" stroke="rgb(0,0,0)" fill="none"  points="6671,16189 5853,15842 5017,15542 "  />
<text id="T27" x="6522" y="14465" textLength="673" igTextHeight="134" lengthAdjust="spacingAndGlyphs" text-anchor="middle" transform="translate(6522,14465) scale(1,-1) rotate(-0) translate(-6522,-14465)"  ><tspan  font-family="helvetica" fill="rgb(0,0,0)"  font-size="134"  >434,444</tspan></text>
<text id="T28" x="6522" y="14699" textLength="641" igTextHeight="134" lengthAdjust="spacingAndGlyphs" text-anchor="middle" transform="translate(6522,14699) scale(1,-1) rotate(-0) translate(-6522,-14699)"  ><tspan  font-family="helvetica" fill="rgb(0,0,0)"  font-size="134"  >ZONES</tspan></text>
<polyline stroke-width="12" stroke="rgb(0,0,0)" fill="none"  points="5104,18439 5306,18608 5521,18760 5746,18895 5982,19012 6227,19110 6478,19189 6856,19268 "  />
<polyline stroke-width="12" stroke="rgb(0,0,0)" fill="none"  points="5697,18171 5697,18171 5773,18112 5846,18049 5914,17981 5914,17981 6033,17845 6142,17700 6238,17546 "  />
<polyline stroke-width="12" stroke="rgb(0,0,0)" fill="none"  points="3565,17552 4099,17888 4640,18212 "  />
<path stroke-width="12" stroke="rgb(0,0,0)" fill="none"  d="M5013 18082 L5056 17875 "  />
<polyline stroke-width="12" stroke="rgb(0,0,0)" fill="none"  points="4435,17362 4785,17656 5157,17922 5839,18308 "  />
<polyline stroke-width="12" stroke="rgb(0,0,0)" fill="none"  points="4352,17687 4545,17814 4743,17933 "  />
<path stroke-width="12" stroke="rgb(0,0,0)" fill="none"  d="M4066 17325 L4946 17778 "  />
<polyline stroke-width="12" stroke="rgb(0,0,0)" fill="none"  points="4557,17408 4557,17408 4564,17404 4564,17404 4640,17357 4712,17304 4781,17246 4845,17183 4845,17183 4911,17109 4973,17032 "  />
<polyline stroke-width="12" stroke="rgb(0,0,0)" fill="none"  points="4495,17366 4495,17366 4533,17349 4570,17329 4570,17329 4640,17285 4707,17236 4770,17182 4829,17124 4829,17124 4919,17022 5000,16913 5072,16798 "  />
<path stroke-width="12" stroke="rgb(0,0,0)" fill="none"  d="M3845 16844 L3845 17054 "  />
<path stroke-width="12" stroke="rgb(0,0,0)" fill="none"  d="M4333 17171 L3845 16890 "  />
<path stroke-width="12" stroke="rgb(0,0,0)" fill="none"  d="M4333 16982 L3895 16458 "  />
<path stroke-width="12" stroke="rgb(0,0,0)" fill="none"  d="M4080 16679 L3845 16844 "  />
<polyline stroke-width="12" stroke="rgb(0,0,0)" fill="none"  points="4118,16655 4118,16655 4155,16628 4190,16598 4223,16566 4223,16566 4274,16506 4321,16444 4362,16378 "  />
<path stroke-width="12" stroke="rgb(0,0,0)" fill="none"  d="M3903 17152 L4067 17325 "  />
<polyline stroke-width="12" stroke="rgb(0,0,0)" fill="none"  points="3767,17480 3775,17476 3782,17471 3789,17466 3795,17461 3801,17454 3807,17448 3812,17441 3816,17433 3820,17426 3823,17418 3825,17409 3827,17401 3829,17392 3829,17384 3829,17375 3828,17367 3827,17358 3825,17350 3822,17342 3818,17334 3814,17326 3810,17319 3805,17312 3793,17300 "  />
<path stroke-width="12" stroke="rgb(0,0,0)" fill="none"  d="M3615 17190 L3462 17111 "  />
<path stroke-width="12" stroke="rgb(0,0,0)" fill="none"  d="M4026 17349 L3977 17376 "  />
<path stroke-width="12" stroke="rgb(0,0,0)" fill="none"  d="M3977 17376 L3903 17338 "  />
<path stroke-width="12" stroke="rgb(0,0,0)" fill="none"  d="M3845 17054 L3903 17152 "  />
<path stroke-width="12" stroke="rgb(0,0,0)" fill="none"  d="M4333 17171 L4434 17361 "  />
<path stroke-width="12" stroke="rgb(0,0,0)" fill="none"  d="M4333 17171 L4156 17274 "  />
<path stroke-width="12" stroke="rgb(0,0,0)" fill="none"  d="M4333 17171 L4333 16982 "  />
<polyline stroke-width="12" stroke="rgb(0,0,0)" fill="none"  points="4136,17911 4136,17911 4176,17900 4216,17887 4254,17871 4291,17851 4291,17851 4342,17819 4391,17783 4437,17744 "  />
<path stroke-width="12" stroke="rgb(0,0,0)" fill="none"  d="M4437 17744 L4478 17541 "  />
<polyline stroke-width="12" stroke="rgb(0,0,0)" fill="none"  points="5115,15829 5115,15829 5124,15829 "  />
<polyline stroke-width="12" stroke="rgb(0,0,0)" fill="none"  points="5124,15829 5124,15829 5131,15829 5140,15828 5148,15827 5148,15827 5153,15825 5157,15824 5162,15822 5166,15820 5166,15820 5169,15818 5171,15817 "  />
<polyline stroke-width="12" stroke="rgb(0,0,0)" fill="none"  points="4640,18212 4731,18261 4825,18303 4965,18350 "  />
<polyline stroke-width="12" stroke="rgb(0,0,0)" fill="none"  points="5136,18138 5292,18210 5450,18276 "  />
<polyline stroke-width="12" stroke="rgb(0,0,0)" fill="none"  points="4965,18350 5335,18422 5708,18474 "  />
<polyline stroke-width="12" stroke="rgb(0,0,0)" fill="none"  points="4705,18247 4705,18247 4748,18237 4790,18223 4831,18206 4871,18185 4871,18185 4921,18154 4969,18120 5013,18082 "  />
<polyline stroke-width="12" stroke="rgb(0,0,0)" fill="none"  points="5445,18439 5445,18439 5463,18438 5481,18436 5498,18432 5515,18427 5531,18420 5547,18413 5562,18404 5576,18394 5589,18382 5602,18370 5613,18356 5613,18356 5622,18346 "  />
<polyline stroke-width="12" stroke="rgb(0,0,0)" fill="none"  points="5708,18474 5722,18475 5735,18475 5748,18473 5762,18471 5775,18467 5788,18463 5800,18458 5812,18451 5823,18444 5834,18436 5844,18427 5857,18413 "  />
<path stroke-width="12" stroke="rgb(0,0,0)" fill="none"  d="M5622 18346 L5650 18213 "  />
<polyline stroke-width="12" stroke="rgb(0,0,0)" fill="none"  points="5857,18413 5860,18409 5863,18404 5866,18399 5868,18394 5870,18389 5871,18384 5872,18378 5873,18373 5873,18367 5873,18362 5872,18356 5871,18351 5869,18345 5867,18340 5865,18335 5862,18331 5859,18326 5855,18322 5852,18318 5848,18314 5839,18308 "  />
<polyline stroke-width="12" stroke="rgb(0,0,0)" fill="none"  points="7372,18214 7372,18214 7459,18048 7534,17875 7594,17698 7594,17698 7622,17587 7643,17475 7655,17361 7660,17247 7660,17247 7656,17161 7645,17076 7627,16992 7602,16909 7570,16830 7570,16830 7553,16797 7535,16766 7514,16737 7492,16710 "  />
<polyline stroke-width="12" stroke="rgb(0,0,0)" fill="none"  points="7911,18544 7911,18544 7984,18405 8047,18259 8098,18109 8098,18109 8122,18015 8139,17920 8150,17824 8153,17727 8153,17727 8150,17654 8141,17582 8126,17512 8105,17442 8077,17374 8077,17374 8058,17338 8036,17302 8012,17269 "  />
<polyline stroke-width="12" stroke="rgb(0,0,0)" fill="none"  points="7804,18477 7804,18477 7882,18329 7948,18176 8002,18017 8002,18017 8028,17918 8046,17818 8057,17717 8061,17614 8061,17614 8058,17538 8048,17462 8031,17387 8009,17313 7981,17242 7981,17242 7968,17217 7955,17194 "  />
<polyline stroke-width="12" stroke="rgb(0,0,0)" fill="none"  points="8013,17270 7847,17062 7664,16868 7467,16689 7257,16525 7035,16379 6671,16189 "  />
<polyline stroke-width="12" stroke="rgb(0,0,0)" fill="none"  points="6238,17546 6238,17546 6322,17386 6394,17219 6452,17048 6452,17048 6480,16941 6500,16832 6512,16722 6516,16611 6516,16611 6513,16528 6502,16445 6485,16364 6460,16285 6429,16207 6429,16207 6411,16171 6389,16137 6365,16105 6338,16075 6309,16047 6277,16022 6244,16000 "  />
<polyline stroke-width="12" stroke="rgb(0,0,0)" fill="none"  points="6855,19267 6855,19267 6886,19273 6917,19276 6949,19276 6981,19274 6981,19274 7052,19264 7123,19248 7193,19225 7260,19197 7324,19163 7324,19163 7406,19112 7484,19055 7558,18992 7627,18925 7627,18925 7731,18806 7826,18679 7911,18544 "  />
<polyline stroke-width="12" stroke="rgb(0,0,0)" fill="none"  points="6734,19247 6734,19247 6764,19249 6794,19249 6823,19247 6823,19247 6899,19237 6974,19219 7047,19196 7118,19166 7185,19130 7185,19130 7272,19076 7354,19016 7432,18950 7505,18878 7505,18878 7615,18753 7715,18618 7804,18477 "  />
<polyline stroke-width="12" stroke="rgb(0,0,0)" fill="none"  points="6096,19060 6096,19060 6131,19069 6166,19075 6201,19078 6237,19078 6273,19076 6273,19076 6358,19064 6442,19044 6524,19018 6603,18985 6679,18945 6679,18945 6776,18884 6869,18817 6955,18743 7037,18663 7037,18663 7160,18522 7273,18372 7372,18214 "  />

</g>  <!-- end of graphics/artwork layer -->

<script type="text/ecmascript"><![CDATA[
// diagram specific initialization
function diagramOnLoad(evt) {
  var errMsg="";
  if ( window['coreOnLoad'] != undefined ) {
	coreOnLoad(evt); // call the core initialization
  }
  else {
	errMsg = errMsg + "You need the [BIGcore] and related IG support code for IG functionality.\n";
  }

	// Resize CGM Restricted Text; Supports scaling to fill y-dimension beyond font-size due to text rendering.
	if ( window['resizeRestrictedTexts'] != undefined ) { resizeRestrictedTexts( "T1","T2","T3","T4","T5","T6","T7","T8","T9","T10","T11","T12","T13","T14","T15","T16","T17","T18","T19","T20","T21","T22","T23","T24","T25","T26","T27","T28"); } // resize the restricted text items
	if (errMsg.length>0) { alert(errMsg); }
}
]]></script>
</svg>
