<?xml version="1.0" standalone="no"?><!DOCTYPE svg PUBLIC "-//W3C//DTD SVG 1.1//EN" "http://www.w3.org/Graphics/SVG/1.1/DTD/svg11.dtd"><svg xmlns:xlink="http://www.w3.org/1999/xlink" version="1.1" class="highcharts-root" style="font-family:&quot;lucida grande&quot;, &quot;lucida sans unicode&quot;, arial, helvetica, sans-serif;font-size:12px;" xmlns="http://www.w3.org/2000/svg" width="600" height="400" viewBox="0 0 600 400"><title id="highcharts-title-1">Desktop screen readers from 2009 to 2015</title><desc>Created with Highcharts 5.0.9</desc><defs><clipPath id="highcharts-nlcd4kw-7"><rect x="0" y="0" width="511" height="187" fill="none"></rect></clipPath></defs><rect fill="#ffffff" class="highcharts-background" x="0" y="0" width="600" height="400" rx="0" ry="0"></rect><rect fill="none" class="highcharts-plot-background" x="79" y="63" width="511" height="187"></rect><g class="highcharts-grid highcharts-xaxis-grid "><path fill="none" class="highcharts-grid-line" d="M 180.5 63 L 180.5 250" opacity="1"></path><path fill="none" class="highcharts-grid-line" d="M 282.5 63 L 282.5 250" opacity="1"></path><path fill="none" class="highcharts-grid-line" d="M 385.5 63 L 385.5 250" opacity="1"></path><path fill="none" class="highcharts-grid-line" d="M 487.5 63 L 487.5 250" opacity="1"></path><path fill="none" class="highcharts-grid-line" d="M 589.5 63 L 589.5 250" opacity="1"></path><path fill="none" class="highcharts-grid-line" d="M 78.5 63 L 78.5 250" opacity="1"></path></g><g class="highcharts-grid highcharts-yaxis-grid "><path fill="none" stroke="#e6e6e6" stroke-width="1" class="highcharts-grid-line" d="M 79 250.5 L 590 250.5" opacity="1"></path><path fill="none" stroke="#e6e6e6" stroke-width="1" class="highcharts-grid-line" d="M 79 203.5 L 590 203.5" opacity="1"></path><path fill="none" stroke="#e6e6e6" stroke-width="1" class="highcharts-grid-line" d="M 79 157.5 L 590 157.5" opacity="1"></path><path fill="none" stroke="#e6e6e6" stroke-width="1" class="highcharts-grid-line" d="M 79 110.5 L 590 110.5" opacity="1"></path><path fill="none" stroke="#e6e6e6" stroke-width="1" class="highcharts-grid-line" d="M 79 62.5 L 590 62.5" opacity="1"></path></g><rect fill="none" class="highcharts-plot-border" x="79" y="63" width="511" height="187"></rect><g class="highcharts-axis highcharts-xaxis "><path fill="none" class="highcharts-tick" stroke="#ccd6eb" stroke-width="1" d="M 180.5 250 L 180.5 260" opacity="1"></path><path fill="none" class="highcharts-tick" stroke="#ccd6eb" stroke-width="1" d="M 282.5 250 L 282.5 260" opacity="1"></path><path fill="none" class="highcharts-tick" stroke="#ccd6eb" stroke-width="1" d="M 385.5 250 L 385.5 260" opacity="1"></path><path fill="none" class="highcharts-tick" stroke="#ccd6eb" stroke-width="1" d="M 487.5 250 L 487.5 260" opacity="1"></path><path fill="none" class="highcharts-tick" stroke="#ccd6eb" stroke-width="1" d="M 590.5 250 L 590.5 260" opacity="1"></path><path fill="none" class="highcharts-tick" stroke="#ccd6eb" stroke-width="1" d="M 78.5 250 L 78.5 260" opacity="1"></path><text x="334.5" text-anchor="middle" transform="translate(0,0)" class="highcharts-axis-title" style="color:#666666;fill:#666666;" y="306" aria-hidden="true">Time</text><path fill="none" class="highcharts-axis-line" stroke="#ccd6eb" stroke-width="1" d="M 79 250.5 L 590 250.5"></path></g><g class="highcharts-axis highcharts-yaxis "><text x="27.453125" text-anchor="middle" transform="translate(0,0) rotate(270 27.453125 156.5)" class="highcharts-axis-title" style="color:#666666;fill:#666666;" y="156.5" aria-hidden="true"><tspan>Percentage usage</tspan></text><path fill="none" class="highcharts-axis-line" d="M 79 63 L 79 250"></path></g><g class="highcharts-series-group"><g class="highcharts-series highcharts-series-0 highcharts-spline-series highcharts-color-0 " transform="translate(79,63) scale(1 1)" clip-path="url(#highcharts-nlcd4kw-7)"><path fill="none" d="M 51.1 48.620000000000005 C 51.1 48.620000000000005 112.42 52.99580000000001 153.3 56.84800000000001 C 194.18 60.70020000000001 214.61999999999998 67.88099999999999 255.5 67.88099999999999 C 296.38 67.88099999999999 316.82 67.50699999999999 357.7 67.50699999999999 C 398.58 67.50699999999999 459.9 105.28099999999999 459.9 105.28099999999999" class="highcharts-graph" stroke="#7cb5ec" stroke-width="2" stroke-linejoin="round" stroke-linecap="round"></path></g><g class="highcharts-markers highcharts-series-0 highcharts-spline-series highcharts-color-0 " transform="translate(79,63) scale(1 1)" clip-path="none" role="region" tabindex="-1" aria-label="JAWS, line 1 of 8 with 5 data points"><path fill="#7cb5ec" d="M 55 49 A 4 4 0 1 1 54.99999800000017 48.99600000066666 Z" class="highcharts-point highcharts-color-0" role="img" tabindex="-1" aria-label="1. January 2009, 74."></path><path fill="#7cb5ec" d="M 157 57 A 4 4 0 1 1 156.99999800000018 56.99600000066666 Z" class="highcharts-point highcharts-color-0" role="img" tabindex="-1" aria-label="2. December 2010, 69.6."></path><path fill="#7cb5ec" d="M 259 68 A 4 4 0 1 1 258.9999980000002 67.99600000066667 Z" class="highcharts-point highcharts-color-0" role="img" tabindex="-1" aria-label="3. May 2012, 63.7."></path><path fill="#7cb5ec" d="M 361 68 A 4 4 0 1 1 360.9999980000002 67.99600000066667 Z" class="highcharts-point highcharts-color-0" role="img" tabindex="-1" aria-label="4. January 2014, 63.9."></path><path fill="#7cb5ec" d="M 463 105 A 4 4 0 1 1 462.9999980000002 104.99600000066667 Z" class="highcharts-point highcharts-color-0" role="img" tabindex="-1" aria-label="5. July 2015, 43.7."></path></g><g class="highcharts-series highcharts-series-1 highcharts-spline-series highcharts-color-1 " transform="translate(79,63) scale(1 1)" clip-path="url(#highcharts-nlcd4kw-7)"><path fill="none" d="M 51.1 172.04 C 51.1 172.04 112.42 135.014 153.3 121.924 C 194.18 108.834 214.61999999999998 112.72359999999999 255.5 106.58999999999999 C 296.38 100.45639999999999 316.82 91.25599999999999 357.7 91.25599999999999 C 398.58 91.25599999999999 459.9 109.582 459.9 109.582" class="highcharts-graph" stroke="#434348" stroke-width="2" stroke-dasharray="2,6"></path></g><g class="highcharts-markers highcharts-series-1 highcharts-spline-series highcharts-color-1 " transform="translate(79,63) scale(1 1)" clip-path="none" role="region" tabindex="-1" aria-label="NVDA, line 2 of 8 with 5 data points"><path fill="#434348" d="M 51 168 L 55 172 51 176 47 172 Z" class="highcharts-point highcharts-color-1" role="img" tabindex="-1" aria-label="1. January 2009, 8."></path><path fill="#434348" d="M 153 118 L 157 122 153 126 149 122 Z" class="highcharts-point highcharts-color-1" role="img" tabindex="-1" aria-label="2. December 2010, 34.8."></path><path fill="#434348" d="M 255 103 L 259 107 255 111 251 107 Z" class="highcharts-point highcharts-color-1" role="img" tabindex="-1" aria-label="3. May 2012, 43."></path><path fill="#434348" d="M 357 87 L 361 91 357 95 353 91 Z" class="highcharts-point highcharts-color-1" role="img" tabindex="-1" aria-label="4. January 2014, 51.2."></path><path fill="#434348" d="M 459 106 L 463 110 459 114 455 110 Z" class="highcharts-point highcharts-color-1" role="img" tabindex="-1" aria-label="5. July 2015, 41.4."></path></g><g class="highcharts-series highcharts-series-2 highcharts-spline-series highcharts-color-undefined " transform="translate(79,63) scale(1 1)" clip-path="url(#highcharts-nlcd4kw-7)"><path fill="none" d="M 51.1 175.78 C 51.1 175.78 112.42 158.4638 153.3 149.226 C 194.18 139.9882 214.61999999999998 135.7994 255.5 129.591 C 296.38 123.38260000000002 316.82 118.184 357.7 118.184 C 398.58 118.184 459.9 129.21699999999998 459.9 129.21699999999998" class="highcharts-graph" stroke="#2b908f" stroke-width="2" stroke-dasharray="2,2"></path></g><g class="highcharts-markers highcharts-series-2 highcharts-spline-series highcharts-color-undefined " transform="translate(79,63) scale(1 1)" clip-path="none" role="region" tabindex="-1" aria-label="VoiceOver, line 3 of 8 with 5 data points"><path fill="#2b908f" d="M 47 172 L 55 172 55 180 47 180 Z" class="highcharts-point" role="img" tabindex="-1" aria-label="1. January 2009, 6."></path><path fill="#2b908f" d="M 149 145 L 157 145 157 153 149 153 Z" class="highcharts-point" role="img" tabindex="-1" aria-label="2. December 2010, 20.2."></path><path fill="#2b908f" d="M 251 126 L 259 126 259 134 251 134 Z" class="highcharts-point" role="img" tabindex="-1" aria-label="3. May 2012, 30.7."></path><path fill="#2b908f" d="M 353 114 L 361 114 361 122 353 122 Z" class="highcharts-point" role="img" tabindex="-1" aria-label="4. January 2014, 36.8."></path><path fill="#2b908f" d="M 455 125 L 463 125 463 133 455 133 Z" class="highcharts-point" role="img" tabindex="-1" aria-label="5. July 2015, 30.9."></path></g><g class="highcharts-series highcharts-series-3 highcharts-spline-series highcharts-color-undefined " transform="translate(79,63) scale(1 1)" clip-path="url(#highcharts-nlcd4kw-7)"><path fill="none" d="M 51.1 143.99 C 51.1 143.99 112.42 151.47 153.3 151.47 C 194.18 151.47 214.61999999999998 148.291 255.5 148.291 C 296.38 148.291 316.82 161.007 357.7 161.007 C 398.58 161.007 459.9 131.648 459.9 131.648" class="highcharts-graph" stroke="#7cb5ec" stroke-width="2" stroke-dasharray="8,6"></path></g><g class="highcharts-markers highcharts-series-3 highcharts-spline-series highcharts-color-undefined " transform="translate(79,63) scale(1 1)" clip-path="none" role="region" tabindex="-1" aria-label="Window-Eyes, line 4 of 8 with 5 data points"><path fill="#7cb5ec" d="M 51 140 L 55 148 47 148 Z" class="highcharts-point" role="img" tabindex="-1" aria-label="1. January 2009, 23."></path><path fill="#7cb5ec" d="M 153 147 L 157 155 149 155 Z" class="highcharts-point" role="img" tabindex="-1" aria-label="2. December 2010, 19."></path><path fill="#7cb5ec" d="M 255 144 L 259 152 251 152 Z" class="highcharts-point" role="img" tabindex="-1" aria-label="3. May 2012, 20.7."></path><path fill="#7cb5ec" d="M 357 157 L 361 165 353 165 Z" class="highcharts-point" role="img" tabindex="-1" aria-label="4. January 2014, 13.9."></path><path fill="#7cb5ec" d="M 459 128 L 463 136 455 136 Z" class="highcharts-point" role="img" tabindex="-1" aria-label="5. July 2015, 29.6."></path></g><g class="highcharts-series highcharts-series-4 highcharts-spline-series highcharts-color-undefined " transform="translate(79,63) scale(1 1)" clip-path="url(#highcharts-nlcd4kw-7)"><path fill="none" d="M 51.1 187 C 51.1 187 112.42 176.902 153.3 175.593 C 194.18 174.284 214.61999999999998 174.284 255.5 174.284 C 296.38 174.284 316.82 177.089 357.7 177.089 C 398.58 177.089 459.9 135.575 459.9 135.575" class="highcharts-graph" stroke="#f45b5b" stroke-width="2" stroke-dasharray="6,2,2,2"></path></g><g class="highcharts-markers highcharts-series-4 highcharts-spline-series highcharts-color-undefined " transform="translate(79,63) scale(1 1)" clip-path="none" role="region" tabindex="-1" aria-label="ZoomText, line 5 of 8 with 5 data points"><path fill="#f45b5b" d="M 47 183 L 55 183 51 191 Z" class="highcharts-point" role="img" tabindex="-1" aria-label="1. January 2009, 0."></path><path fill="#f45b5b" d="M 149 172 L 157 172 153 180 Z" class="highcharts-point" role="img" tabindex="-1" aria-label="2. December 2010, 6.1."></path><path fill="#f45b5b" d="M 251 170 L 259 170 255 178 Z" class="highcharts-point" role="img" tabindex="-1" aria-label="3. May 2012, 6.8."></path><path fill="#f45b5b" d="M 353 173 L 361 173 357 181 Z" class="highcharts-point" role="img" tabindex="-1" aria-label="4. January 2014, 5.3."></path><path fill="#f45b5b" d="M 455 132 L 463 132 459 140 Z" class="highcharts-point" role="img" tabindex="-1" aria-label="5. July 2015, 27.5."></path></g><g class="highcharts-series highcharts-series-5 highcharts-spline-series highcharts-color-undefined " transform="translate(79,63) scale(1 1)" clip-path="url(#highcharts-nlcd4kw-7)"><path fill="none" d="M 51.1 187 C 51.1 187 112.42 164.9714 153.3 156.706 C 194.18 148.4406 214.61999999999998 149.413 255.5 145.673 C 296.38 141.933 316.82 138.006 357.7 138.006 C 398.58 138.006 459.9 174.097 459.9 174.097" class="highcharts-graph" stroke="#434348" stroke-width="2" stroke-dasharray="6,2"></path></g><g class="highcharts-markers highcharts-series-5 highcharts-spline-series highcharts-color-undefined " transform="translate(79,63) scale(1 1)" clip-path="none" role="region" tabindex="-1" aria-label="System Access To Go, line 6 of 8 with 5 data points"><path fill="#434348" d="M 55 187 A 4 4 0 1 1 54.99999800000017 186.99600000066667 Z" class="highcharts-point" role="img" tabindex="-1" aria-label="1. January 2009, 0."></path><path fill="#434348" d="M 157 157 A 4 4 0 1 1 156.99999800000018 156.99600000066667 Z" class="highcharts-point" role="img" tabindex="-1" aria-label="2. December 2010, 16.2."></path><path fill="#434348" d="M 259 146 A 4 4 0 1 1 258.9999980000002 145.99600000066667 Z" class="highcharts-point" role="img" tabindex="-1" aria-label="3. May 2012, 22.1."></path><path fill="#434348" d="M 361 138 A 4 4 0 1 1 360.9999980000002 137.99600000066667 Z" class="highcharts-point" role="img" tabindex="-1" aria-label="4. January 2014, 26.2."></path><path fill="#434348" d="M 463 174 A 4 4 0 1 1 462.9999980000002 173.99600000066667 Z" class="highcharts-point" role="img" tabindex="-1" aria-label="5. July 2015, 6.9."></path></g><g class="highcharts-series highcharts-series-6 highcharts-spline-series highcharts-color-undefined " transform="translate(79,63) scale(1 1)" clip-path="url(#highcharts-nlcd4kw-7)"><path fill="none" d="M 51.1 187 C 51.1 187 112.42 187 153.3 187 C 194.18 187 214.61999999999998 183.55920000000003 255.5 181.764 C 296.38 179.96880000000002 316.82 178.024 357.7 178.024 C 398.58 178.024 459.9 181.764 459.9 181.764" class="highcharts-graph" stroke="#8085e9" stroke-width="2" stroke-dasharray="2,6,8,6"></path></g><g class="highcharts-markers highcharts-series-6 highcharts-spline-series highcharts-color-undefined " transform="translate(79,63) scale(1 1)" clip-path="none" role="region" tabindex="-1" aria-label="ChromeVox, line 7 of 8 with 5 data points"><path fill="#8085e9" d="M 51 183 L 55 187 51 191 47 187 Z" class="highcharts-point" role="img" tabindex="-1" aria-label="1. January 2009, 0."></path><path fill="#8085e9" d="M 153 183 L 157 187 153 191 149 187 Z" class="highcharts-point" role="img" tabindex="-1" aria-label="2. December 2010, 0."></path><path fill="#8085e9" d="M 255 178 L 259 182 255 186 251 182 Z" class="highcharts-point" role="img" tabindex="-1" aria-label="3. May 2012, 2.8."></path><path fill="#8085e9" d="M 357 174 L 361 178 357 182 353 178 Z" class="highcharts-point" role="img" tabindex="-1" aria-label="4. January 2014, 4.8."></path><path fill="#8085e9" d="M 459 178 L 463 182 459 186 455 182 Z" class="highcharts-point" role="img" tabindex="-1" aria-label="5. July 2015, 2.8."></path></g><g class="highcharts-series highcharts-series-7 highcharts-spline-series highcharts-color-undefined " transform="translate(79,63) scale(1 1)" clip-path="url(#highcharts-nlcd4kw-7)"><path fill="none" d="M 51.1 187 C 51.1 187 112.42 173.162 153.3 173.162 C 194.18 173.162 214.61999999999998 175.96699999999998 255.5 175.96699999999998 C 296.38 175.96699999999998 316.82 169.609 357.7 169.609 C 398.58 169.609 459.9 174.845 459.9 174.845" class="highcharts-graph" stroke="#2b908f" stroke-width="2" stroke-dasharray="16,6"></path></g><g class="highcharts-markers highcharts-series-7 highcharts-spline-series highcharts-color-undefined " transform="translate(79,63) scale(1 1)" clip-path="none" role="region" tabindex="-1" aria-label="Other, line 8 of 8 with 5 data points"><path fill="#2b908f" d="M 47 183 L 55 183 55 191 47 191 Z" class="highcharts-point" role="img" tabindex="-1" aria-label="1. January 2009, 0."></path><path fill="#2b908f" d="M 149 169 L 157 169 157 177 149 177 Z" class="highcharts-point" role="img" tabindex="-1" aria-label="2. December 2010, 7.4."></path><path fill="#2b908f" d="M 251 172 L 259 172 259 180 251 180 Z" class="highcharts-point" role="img" tabindex="-1" aria-label="3. May 2012, 5.9."></path><path fill="#2b908f" d="M 353 166 L 361 166 361 174 353 174 Z" class="highcharts-point" role="img" tabindex="-1" aria-label="4. January 2014, 9.3."></path><path fill="#2b908f" d="M 455 171 L 463 171 463 179 455 179 Z" class="highcharts-point" role="img" tabindex="-1" aria-label="5. July 2015, 6.5."></path></g></g><text x="300" text-anchor="middle" class="highcharts-title" style="color:#333333;font-size:18px;fill:#333333;" y="24" aria-hidden="true"><tspan>Desktop screen readers from 2009 to 2015</tspan></text><text x="300" text-anchor="middle" class="highcharts-subtitle" style="color:#666666;fill:#666666;" y="45" aria-hidden="true"><tspan>Click on point to visit official website</tspan></text><g class="highcharts-legend" transform="translate(47,323)"><rect fill="none" class="highcharts-legend-box" rx="0" ry="0" x="0" y="0" width="506" height="62" visibility="visible"></rect><g><g><g class="highcharts-legend-item highcharts-spline-series highcharts-color-0 highcharts-series-0" transform="translate(8,3)"><path fill="none" d="M 0 11 L 40 11" class="highcharts-graph" stroke="#7cb5ec" stroke-width="2"></path><path fill="#7cb5ec" d="M 24 11 A 4 4 0 1 1 23.99999800000017 10.996000000666664 Z" class="highcharts-point"></path><text x="45" style="color:#333333;font-size:12px;font-weight:bold;cursor:pointer;fill:#333333;" text-anchor="start" y="15" aria-hidden="true">JAWS</text></g><g class="highcharts-legend-item highcharts-spline-series highcharts-color-1 highcharts-series-1" transform="translate(110.296875,3)"><path fill="none" d="M 0 11 L 40 11" class="highcharts-graph" stroke-dasharray="2,6" stroke="#434348" stroke-width="2"></path><path fill="#434348" d="M 20 7 L 24 11 20 15 16 11 Z" class="highcharts-point"></path><text x="45" y="15" style="color:#333333;font-size:12px;font-weight:bold;cursor:pointer;fill:#333333;" text-anchor="start" aria-hidden="true">NVDA</text></g><g class="highcharts-legend-item highcharts-spline-series highcharts-color-undefined highcharts-series-2" transform="translate(217.234375,3)"><path fill="none" d="M 0 11 L 40 11" class="highcharts-graph" stroke-dasharray="2,2" stroke="#2b908f" stroke-width="2"></path><path fill="#2b908f" d="M 16 7 L 24 7 24 15 16 15 Z" class="highcharts-point"></path><text x="45" y="15" style="color:#333333;font-size:12px;font-weight:bold;cursor:pointer;fill:#333333;" text-anchor="start" aria-hidden="true">VoiceOver</text></g><g class="highcharts-legend-item highcharts-spline-series highcharts-color-undefined highcharts-series-3" transform="translate(355.5625,3)"><path fill="none" d="M 0 11 L 40 11" class="highcharts-graph" stroke-dasharray="8,6" stroke="#7cb5ec" stroke-width="2"></path><path fill="#7cb5ec" d="M 20 7 L 24 15 16 15 Z" class="highcharts-point"></path><text x="45" y="15" style="color:#333333;font-size:12px;font-weight:bold;cursor:pointer;fill:#333333;" text-anchor="start" aria-hidden="true">Window-Eyes</text></g><g class="highcharts-legend-item highcharts-spline-series highcharts-color-undefined highcharts-series-4" transform="translate(8,20)"><path fill="none" d="M 0 11 L 40 11" class="highcharts-graph" stroke-dasharray="6,2,2,2" stroke="#f45b5b" stroke-width="2"></path><path fill="#f45b5b" d="M 16 7 L 24 7 20 15 Z" class="highcharts-point"></path><text x="45" y="15" style="color:#333333;font-size:12px;font-weight:bold;cursor:pointer;fill:#333333;" text-anchor="start" aria-hidden="true">ZoomText</text></g><g class="highcharts-legend-item highcharts-spline-series highcharts-color-undefined highcharts-series-5" transform="translate(145.28125,20)"><path fill="none" d="M 0 11 L 40 11" class="highcharts-graph" stroke-dasharray="6,2" stroke="#434348" stroke-width="2"></path><path fill="#434348" d="M 24 11 A 4 4 0 1 1 23.99999800000017 10.996000000666664 Z" class="highcharts-point"></path><text x="45" y="15" style="color:#333333;font-size:12px;font-weight:bold;cursor:pointer;fill:#333333;" text-anchor="start" aria-hidden="true"><tspan>System Access To Go</tspan></text></g><g class="highcharts-legend-item highcharts-spline-series highcharts-color-undefined highcharts-series-6" transform="translate(362.875,20)"><path fill="none" d="M 0 11 L 40 11" class="highcharts-graph" stroke-dasharray="2,6,8,6" stroke="#8085e9" stroke-width="2"></path><path fill="#8085e9" d="M 20 7 L 24 11 20 15 16 11 Z" class="highcharts-point"></path><text x="45" y="15" style="color:#333333;font-size:12px;font-weight:bold;cursor:pointer;fill:#333333;" text-anchor="start" aria-hidden="true">ChromeVox</text></g><g class="highcharts-legend-item highcharts-spline-series highcharts-color-undefined highcharts-series-7" transform="translate(8,37)"><path fill="none" d="M 0 11 L 40 11" class="highcharts-graph" stroke-dasharray="16,6" stroke="#2b908f" stroke-width="2"></path><path fill="#2b908f" d="M 16 7 L 24 7 24 15 16 15 Z" class="highcharts-point"></path><text x="45" y="15" style="color:#333333;font-size:12px;font-weight:bold;cursor:pointer;fill:#333333;" text-anchor="start" aria-hidden="true">Other</text></g></g></g></g><g class="highcharts-axis-labels highcharts-xaxis-labels "><text x="130.1" style="color:#666666;cursor:default;font-size:11px;fill:#666666;" text-anchor="middle" transform="translate(0,0)" y="269" opacity="1" aria-hidden="true"><tspan>January 2009</tspan></text><text x="232.29999999999998" style="color:#666666;cursor:default;font-size:11px;fill:#666666;" text-anchor="middle" transform="translate(0,0)" y="269" opacity="1" aria-hidden="true"><tspan>December</tspan><tspan dy="14" x="232.29999999999998">2010</tspan><title>December 2010</title></text><text x="334.5" style="color:#666666;cursor:default;font-size:11px;fill:#666666;" text-anchor="middle" transform="translate(0,0)" y="269" opacity="1" aria-hidden="true"><tspan>May 2012</tspan></text><text x="436.7" style="color:#666666;cursor:default;font-size:11px;fill:#666666;" text-anchor="middle" transform="translate(0,0)" y="269" opacity="1" aria-hidden="true"><tspan>January 2014</tspan></text><text x="538.9" style="color:#666666;cursor:default;font-size:11px;fill:#666666;" text-anchor="middle" transform="translate(0,0)" y="269" opacity="1" aria-hidden="true"><tspan>July 2015</tspan></text></g><g class="highcharts-axis-labels highcharts-yaxis-labels "><text x="64" style="color:#666666;cursor:default;font-size:11px;fill:#666666;" text-anchor="end" transform="translate(0,0)" y="254" opacity="1" aria-hidden="true"><tspan>0</tspan></text><text x="64" style="color:#666666;cursor:default;font-size:11px;fill:#666666;" text-anchor="end" transform="translate(0,0)" y="207" opacity="1" aria-hidden="true"><tspan>25</tspan></text><text x="64" style="color:#666666;cursor:default;font-size:11px;fill:#666666;" text-anchor="end" transform="translate(0,0)" y="161" opacity="1" aria-hidden="true"><tspan>50</tspan></text><text x="64" style="color:#666666;cursor:default;font-size:11px;fill:#666666;" text-anchor="end" transform="translate(0,0)" y="114" opacity="1" aria-hidden="true"><tspan>75</tspan></text><text x="64" style="color:#666666;cursor:default;font-size:11px;fill:#666666;" text-anchor="end" transform="translate(0,0)" y="67" opacity="1" aria-hidden="true"><tspan>100</tspan></text></g><text x="590" class="highcharts-credits" text-anchor="end" style="cursor:pointer;color:#999999;font-size:9px;fill:#999999;" y="395" aria-hidden="true">Highcharts.com</text></svg>